<?xml version="1.0" encoding="UTF-8"?>
<svg id="_レイヤー_2" data-name="レイヤー 2" xmlns="http://www.w3.org/2000/svg" viewBox="0 0 18.41 4.8">
  <defs>
    <style>
      .cls-1 {
        stroke: #8c6464;
        stroke-linecap: round;
        stroke-linejoin: round;
        stroke-width: .05px;
      }

      .cls-1, .cls-2 {
        fill: #8c6464;
      }

      .cls-2 {
        stroke-width: 0px;
      }
    </style>
  </defs>
  <g id="lay">
    <g>
      <g>
        <path class="cls-1" d="M.13,4.55v-1.91c0-.08-.03-.12-.1-.2h.63c.79,0,1.34.39,1.34,1.15s-.54,1.15-1.34,1.15H.03c.08-.08.1-.12.1-.2ZM.58,4.71c.73,0,1.23-.38,1.23-1.11s-.5-1.11-1.23-1.11h-.27v2.21h.27Z"/>
        <path class="cls-1" d="M3.19,2.98c.54,0,.92.34.92.9s-.38.9-.92.9-.92-.34-.92-.9.38-.9.92-.9ZM3.19,4.73c.43,0,.74-.33.74-.86s-.3-.86-.74-.86-.74.33-.74.86.3.86.74.86Z"/>
        <path class="cls-1" d="M4.46,4.55v-1.91c0-.11-.03-.14-.07-.14-.03,0-.07.03-.1.05v-.03c.08-.08.2-.19.27-.19.06,0,.07.05.07.2v2.03c0,.08.03.12.1.2h-.38c.08-.08.1-.12.1-.2Z"/>
        <path class="cls-1" d="M5.08,4.55v-1.91c0-.11-.03-.14-.07-.14-.03,0-.07.03-.1.05v-.03c.08-.08.2-.19.27-.19.06,0,.07.05.07.2v2.03c0,.08.03.12.1.2h-.38c.08-.08.1-.12.1-.2Z"/>
        <path class="cls-1" d="M5.75,4.55v-1.25c0-.11-.03-.14-.07-.14-.03,0-.07.03-.1.05v-.03c.08-.08.2-.19.27-.19.06,0,.07.05.07.2v1.37c0,.08.03.12.1.2h-.38c.08-.08.1-.12.1-.2ZM5.8,2.42c.09,0,.15.05.15.14s-.06.14-.15.14-.15-.05-.15-.14.06-.14.15-.14Z"/>
        <path class="cls-1" d="M7.29,3.18l.04.42h-.04c-.07-.28-.2-.58-.45-.58-.17,0-.28.15-.28.32,0,.45.86.53.86,1.04,0,.27-.23.4-.52.4-.34,0-.49-.16-.54-.2l-.07-.46h.03c.11.28.33.62.6.62.18,0,.32-.15.32-.33,0-.43-.85-.51-.85-1.03,0-.25.2-.39.45-.39.29,0,.41.16.45.2Z"/>
        <path class="cls-1" d="M7.76,4.55v-1.79c0-.33.16-.44.33-.44.29,0,.35.38.14.73.06-.04.12-.07.2-.07.18,0,.34.14.34.48v1.09c0,.08.03.12.1.2h-.38c.08-.08.1-.12.1-.2v-.93c0-.28-.02-.6-.22-.6-.21,0-.37.35-.45.59v.93c0,.08.03.12.1.2h-.38c.08-.08.1-.12.1-.2ZM8.15,3.13c.29-.41.19-.76-.03-.76-.18,0-.18.25-.18.52v.66c.04-.14.11-.31.21-.42Z"/>
        <path class="cls-1" d="M10.3,4.55v-1.91c0-.08-.03-.12-.1-.2h.42c.58,0,.78.18.78.45,0,.33-.32.43-.65.47.45.05.86.15.86.67,0,.44-.23.72-.99.72h-.42c.08-.08.1-.12.1-.2ZM10.56,3.34c.27,0,.66-.1.66-.45,0-.24-.16-.4-.67-.4h-.07v.85h.08ZM10.54,4.71c.69,0,.88-.31.88-.67,0-.49-.49-.65-.87-.65h-.08v1.32h.07Z"/>
        <path class="cls-1" d="M12.87,3.18l.04.52h-.04c-.07-.38-.18-.67-.32-.67-.16,0-.29.42-.36.73v.79c0,.08.03.12.1.2h-.38c.08-.08.1-.12.1-.2v-1.25c0-.11-.03-.14-.07-.14-.03,0-.07.03-.1.05v-.03c.08-.08.2-.19.27-.19.05,0,.07.05.07.2v.42c.07-.31.19-.63.38-.63.12,0,.25.13.29.2Z"/>
        <path class="cls-1" d="M14.05,2.98c.54,0,.92.34.92.9s-.38.9-.92.9-.92-.34-.92-.9.38-.9.92-.9ZM14.05,4.73c.43,0,.74-.33.74-.86s-.3-.86-.74-.86-.74.33-.74.86.3.86.74.86Z"/>
        <path class="cls-1" d="M16.05,3l.35,1.43.29-1.24c.02-.08,0-.12-.05-.2h.25c-.09.08-.13.12-.16.2l-.38,1.57h-.04l-.36-1.39-.33,1.39h-.04l-.41-1.57c-.02-.08-.08-.12-.15-.2h.39c-.08.08-.08.12-.06.2l.3,1.24.34-1.43h.04Z"/>
        <path class="cls-1" d="M17.27,4.55v-1.25c0-.11-.03-.14-.07-.14-.03,0-.07.03-.1.05v-.03c.08-.08.2-.19.27-.19.05,0,.07.05.07.2v.36c.08-.24.22-.57.5-.57.18,0,.34.14.34.48v1.09c0,.08.03.12.1.2h-.38c.08-.08.1-.12.1-.2v-.93c0-.28-.02-.6-.22-.6-.21,0-.37.35-.45.59v.93c0,.08.03.12.1.2h-.38c.08-.08.1-.12.1-.2Z"/>
      </g>
      <g>
        <path class="cls-2" d="M.41.9c0,.09,0,.34,0,.41H.42s0,.03,0,.04c-.01,0-.07.02-.13.02-.05,0-.06,0-.06-.03H.23s0-.48,0-.66c0-.34,0-.44-.02-.53.11,0,.16.01.2.02.02,0,.02.01.02.02t0,.03s0,.04-.01.06c0,0,0,.09,0,.27q.11.03.17.05c.15.05.24.09.37.16.01,0,.02.02.02.03,0,.02-.03.09-.05.13-.01.03-.02.03-.03.03,0,0-.01,0-.02-.01-.15-.1-.3-.17-.45-.21v.17ZM.79.44c-.03-.05-.07-.1-.11-.15,0,0,0,0,0-.01,0,0,0-.02.04-.04.02-.02.03-.02.04-.02.01,0,.03.01.06.05.05.05.08.1.08.11,0,.02-.07.07-.09.07,0,0,0,0-.01-.01ZM1,.32s-.03.02-.04.02c0,0,0,0-.02-.01-.04-.06-.07-.1-.11-.15,0,0,0,0,0-.01,0-.01.06-.05.08-.05,0,0,.02,0,.03.02.05.04.11.13.11.14,0,0-.01.02-.04.04Z"/>
        <path class="cls-2" d="M1.85.65c.27,0,.43,0,.58-.01h.02s.04,0,.04.12c0,.06,0,.07-.03.07h0c-.1,0-.15,0-.59,0-.16,0-.24,0-.38,0h-.04s-.06,0-.08,0c0,0-.01,0-.02,0-.02,0-.03,0-.03-.02,0-.04-.01-.11-.01-.18.12.01.23.02.54.02Z"/>
        <path class="cls-2" d="M3.13.61s0,.1,0,.15c0,.02,0,.03,0,.04,0,.03-.02.04-.14.04-.04,0-.05,0-.05-.03v-.03c0-.12,0-.18,0-.29,0-.17,0-.24-.02-.32.08,0,.15,0,.18.01.02,0,.03.02.03.03,0,0,0,.01,0,.02-.01.03-.01.06-.01.13v.25ZM3.71.42c0,.21-.01.35-.04.46-.05.19-.17.34-.35.44-.04.02-.07.03-.08.03-.01,0-.02,0-.03-.02-.04-.04-.06-.07-.11-.1.1-.04.18-.09.24-.15.08-.08.13-.17.15-.27.02-.09.03-.25.03-.42,0-.12,0-.18-.01-.24.09,0,.14,0,.19.02.02,0,.03.01.03.03,0,0,0,.01,0,.03-.01.03-.01.06-.01.13v.06Z"/>
        <path class="cls-2" d="M4.27.85c-.02-.06-.07-.15-.09-.18-.03-.05-.04-.05-.04-.06,0-.01.02-.03.06-.05.05-.03.05-.03.06-.03.01,0,.02,0,.04.04.05.06.12.2.12.22,0,.01-.01.02-.04.04-.04.02-.08.04-.09.04-.01,0-.01,0-.02-.03ZM5.09.59s0,.01,0,.02c-.01.02-.02.03-.04.08-.11.24-.18.35-.3.47-.09.09-.23.19-.26.19,0,0-.02,0-.03-.01-.03-.03-.07-.06-.12-.09.23-.12.35-.24.46-.44.06-.11.1-.23.1-.31.12.03.19.07.19.09ZM4.55.78c-.02-.06-.06-.15-.11-.23,0,0,0,0,0-.02,0-.01.01-.02.06-.04.06-.03.06-.03.07-.03.01,0,.02,0,.04.04.05.08.11.2.11.22,0,0,0,.02-.03.03-.03.02-.09.05-.1.05,0,0-.01,0-.02-.02Z"/>
        <path class="cls-2" d="M5.78.78s-.03.04-.04.04t-.08-.04c-.05-.03-.12-.07-.23-.1-.02,0-.03-.01-.03-.03,0,0,.01-.03.04-.07,0-.01.01-.02.01-.03.02-.03.02-.04.04-.04.03,0,.14.04.22.08.05.02.1.06.11.06,0,0,0,.01,0,.02,0,.02-.02.06-.06.11ZM6.55.61s0,.02,0,.03c0,.02,0,.03-.04.06-.12.14-.25.25-.41.35-.13.09-.28.17-.43.23-.04.02-.06.03-.07.04-.01.01-.02.01-.03.01-.03,0-.08-.08-.12-.2.15-.03.32-.1.49-.2.11-.06.24-.16.33-.25.08-.08.13-.13.22-.25,0,.07.02.09.05.17ZM5.93.49s-.03.03-.04.03c0,0-.01,0-.02-.01-.09-.08-.18-.14-.28-.18-.01,0-.02-.01-.02-.02,0,0,0-.01,0-.02.07-.11.07-.11.09-.11.03,0,.16.06.24.12.07.05.09.06.09.08,0,.02-.04.08-.07.12Z"/>
        <path class="cls-2" d="M7.1.73c-.05,0-.09,0-.12,0,0,0,0,0-.01,0-.01,0-.02,0-.03-.02,0-.03-.01-.08-.01-.15.05.01.14.02.31.02.14,0,.15,0,.18-.01,0,0,.01,0,.02,0,.03,0,.05.01.09.05.03.03.05.06.05.07,0,0,0,.01-.01.03t-.04.17c-.02.12-.03.17-.04.22t0,0c.13,0,.16,0,.22,0h0s.03.01.03.09c0,.06,0,.07-.02.07,0,0-.01,0-.07,0-.05,0-.21,0-.35,0-.23,0-.41,0-.47.01h-.01s-.03,0-.04-.02c0-.02-.01-.06-.02-.15.11,0,.15.01.56.01,0-.01,0-.01,0-.03.02-.09.04-.22.05-.35h-.26Z"/>
        <path class="cls-2" d="M8.47.44c-.27,0-.46.01-.51.02,0,0,0,0,0,0-.03,0-.04-.05-.04-.2.07.01.17.02.39.02.2,0,.44,0,.47,0,.03,0,.04,0,.06-.02,0,0,.01,0,.02,0,.03,0,.06.02.11.08.03.04.03.04.03.06,0,.01,0,.02-.01.03-.01.02-.02.02-.05.13-.08.26-.25.5-.48.68-.09.07-.17.12-.2.12-.02,0-.02,0-.05-.04-.04-.04-.07-.06-.11-.09.22-.11.34-.2.46-.35.1-.13.17-.27.2-.44q-.12,0-.29,0ZM9.12.28s-.05.04-.06.04t-.04-.04s-.06-.09-.09-.12c0,0,0,0,0-.01,0-.01.06-.05.07-.05.01,0,.03.02.08.07.04.05.07.09.07.1s0,.02-.02.03ZM9.18.21c-.04-.06-.07-.1-.11-.14,0,0,0,0,0-.01,0,0,0-.02.03-.03.02-.02.03-.02.04-.02.02,0,.06.04.11.1.02.03.03.05.03.06,0,0,0,.02-.02.03-.02.02-.05.03-.05.03,0,0-.01,0-.02-.02Z"/>
        <path class="cls-2" d="M9.44.7s0,0-.01,0c-.03,0-.05-.05-.06-.21.07.01.18.02.46.02.3,0,.38,0,.41,0,.02,0,.03,0,.06-.01.01,0,.02,0,.03,0,.02,0,.04.01.06.04.04.05.07.09.07.11,0,.02,0,.03-.03.05-.01.01-.02.02-.05.09-.1.22-.21.36-.39.47-.08.05-.21.11-.24.11-.02,0-.03,0-.06-.04-.04-.05-.06-.06-.1-.08.17-.05.33-.14.44-.24.08-.08.15-.19.19-.32-.57,0-.67.01-.78.03ZM9.93.17q.16,0,.33-.01h.02s.03.02.03.06c0,.02,0,.03,0,.05h0c0,.06,0,.07-.03.07,0,0-.02,0-.03,0-.03,0-.14,0-.19,0-.22,0-.39,0-.47.01h-.01s-.04-.02-.05-.19c.1.01.19.02.41.02Z"/>
        <path class="cls-2" d="M11.21.3c0-.08,0-.13-.01-.19.11,0,.17,0,.2.02.01,0,.02.01.02.02,0,0,0,.02,0,.03-.01.02-.02.05-.02.12v.05h.19s.08,0,.11-.02c.02,0,.03,0,.04,0,.03,0,.07.03.12.09.03.03.03.04.03.06,0,.01,0,.02-.01.04-.01.03-.02.04-.04.12-.03.14-.06.21-.12.31-.1.17-.24.3-.42.39-.04.02-.07.03-.08.03-.01,0-.02,0-.03-.02-.03-.03-.06-.06-.12-.1.12-.05.18-.08.25-.13.15-.1.24-.23.3-.4.03-.08.04-.13.04-.2-.14,0-.19,0-.31,0-.13,0-.21,0-.4,0q0,.09,0,.11s0,.07,0,.13h0s0,.03-.02.03c-.01,0-.06,0-.1,0-.06,0-.07,0-.07-.03,0,0,0-.02,0-.04,0-.02,0-.18,0-.21,0-.05,0-.09,0-.16.04,0,.13,0,.22,0h.21v-.04Z"/>
        <path class="cls-2" d="M13.26.53s.01.03.01.03c0,.02,0,.03-.03.05-.08.11-.17.19-.3.3-.15.12-.28.19-.46.28-.12.05-.12.06-.14.07-.01.01-.02.02-.03.02-.01,0-.03-.01-.05-.04-.03-.05-.06-.11-.07-.16.15-.03.33-.12.51-.23.23-.15.38-.29.49-.49.02.06.03.09.07.16ZM12.26.28s.04-.04.05-.04c.03,0,.14.07.23.15.06.05.08.07.08.08,0,.01-.03.05-.06.09-.03.04-.05.05-.06.05t-.07-.06s-.12-.1-.16-.12q-.05-.03-.06-.04s0,0,0-.01c0-.01.03-.06.07-.1Z"/>
      </g>
    </g>
  </g>
</svg>