<?xml version="1.0" encoding="UTF-8"?>
<svg id="_レイヤー_2" data-name="レイヤー 2" xmlns="http://www.w3.org/2000/svg" viewBox="0 0 14.14 4.8">
  <defs>
    <style>
      .cls-1 {
        stroke: #8c6464;
        stroke-linecap: round;
        stroke-linejoin: round;
        stroke-width: .05px;
      }

      .cls-1, .cls-2 {
        fill: #8c6464;
      }

      .cls-2 {
        stroke-width: 0px;
      }
    </style>
  </defs>
  <g id="lay">
    <g>
      <g>
        <path class="cls-1" d="M.45,4.75c.08-.08.17-.12.17-.3v-1.96h-.01c-.39,0-.5.34-.55.79H.03l.07-.84h1.25l.07.84h-.04c-.06-.45-.17-.79-.55-.79h-.01v1.96c0,.18.1.22.17.3H.45Z"/>
        <path class="cls-1" d="M1.83,4.55v-1.25c0-.11-.03-.14-.07-.14-.03,0-.07.03-.1.05v-.03c.08-.08.2-.19.27-.19.06,0,.07.05.07.2v1.37c0,.08.03.12.1.2h-.38c.08-.08.1-.12.1-.2ZM1.89,2.42c.09,0,.15.05.15.14s-.06.14-.15.14-.15-.05-.15-.14.06-.14.15-.14Z"/>
        <path class="cls-1" d="M2.51,4.55v-1.25c0-.11-.03-.14-.07-.14-.03,0-.07.03-.1.05v-.03c.08-.08.2-.19.27-.19.06,0,.07.05.07.2v.36c.08-.24.22-.57.5-.57.18,0,.34.14.34.48v1.09c0,.08.03.12.1.2h-.38c.08-.08.1-.12.1-.2v-.93c0-.28-.02-.6-.22-.6-.21,0-.37.35-.45.59v.93c0,.08.03.12.1.2h-.38c.08-.08.1-.12.1-.2Z"/>
        <path class="cls-1" d="M4.06,2.58h.04v.42h.24v.04h-.24v.96c.56.08.66.77.17.77-.08,0-.35-.02-.35-.4v-1.33h-.17v-.04c.18,0,.31-.29.31-.42ZM4.1,4.31c0,.37.11.42.21.42.36,0,.32-.62-.21-.71v.28Z"/>
        <path class="cls-1" d="M6.03,4.55v-1.91c0-.08-.03-.12-.1-.2h.42c.58,0,.78.18.78.45,0,.33-.32.43-.65.47.45.05.86.15.86.67,0,.44-.23.72-.99.72h-.42c.08-.08.1-.12.1-.2ZM6.29,3.34c.27,0,.66-.1.66-.45,0-.24-.16-.4-.67-.4h-.07v.85h.08ZM6.28,4.71c.69,0,.88-.31.88-.67,0-.49-.49-.65-.87-.65h-.08v1.32h.07Z"/>
        <path class="cls-1" d="M8.6,3.18l.04.52h-.04c-.07-.38-.18-.67-.32-.67-.16,0-.29.42-.36.73v.79c0,.08.03.12.1.2h-.38c.08-.08.1-.12.1-.2v-1.25c0-.11-.03-.14-.07-.14-.03,0-.07.03-.1.05v-.03c.08-.08.2-.19.27-.19.05,0,.07.05.07.2v.42c.07-.31.19-.63.38-.63.12,0,.25.13.29.2Z"/>
        <path class="cls-1" d="M9.78,2.98c.54,0,.92.34.92.9s-.38.9-.92.9-.92-.34-.92-.9.38-.9.92-.9ZM9.78,4.73c.43,0,.74-.33.74-.86s-.3-.86-.74-.86-.74.33-.74.86.3.86.74.86Z"/>
        <path class="cls-1" d="M11.78,3l.35,1.43.29-1.24c.02-.08,0-.12-.05-.2h.25c-.09.08-.13.12-.16.2l-.38,1.57h-.04l-.36-1.39-.33,1.39h-.04l-.41-1.57c-.02-.08-.08-.12-.15-.2h.39c-.08.08-.08.12-.06.2l.3,1.24.34-1.43h.04Z"/>
        <path class="cls-1" d="M13,4.55v-1.25c0-.11-.03-.14-.07-.14-.03,0-.07.03-.1.05v-.03c.08-.08.2-.19.27-.19.05,0,.07.05.07.2v.36c.08-.24.22-.57.5-.57.18,0,.34.14.34.48v1.09c0,.08.03.12.1.2h-.38c.08-.08.1-.12.1-.2v-.93c0-.28-.02-.6-.22-.6-.21,0-.37.35-.45.59v.93c0,.08.03.12.1.2h-.38c.08-.08.1-.12.1-.2Z"/>
      </g>
      <g>
        <path class="cls-2" d="M.16.7s-.03,0-.03,0-.01,0-.01,0h-.01s-.03,0-.03-.03c0-.04-.01-.09-.01-.15.07,0,.08,0,.23.01.2,0,.31,0,.36,0,.25,0,.54,0,.59,0h.01s.02,0,.02.1c0,.07,0,.07-.02.07h-.01c-.07,0-.1,0-.45,0,0,.11-.01.16-.03.23-.05.17-.13.29-.29.38-.04.03-.07.04-.09.04,0,0-.01,0-.03-.02-.05-.05-.07-.07-.13-.1.26-.12.36-.27.37-.54-.24,0-.33,0-.44,0ZM.68.2c.14,0,.3,0,.36-.01h0s.03.01.03.06v.03s0,.02,0,.04c0,.04,0,.04-.03.04h-.02s-.32,0-.38,0c-.18,0-.31,0-.36,0,0,0,0,0-.01,0-.02,0-.02,0-.03-.02,0-.03-.01-.1-.01-.16.06,0,.26.01.44.01Z"/>
        <path class="cls-2" d="M1.87.88c-.12.08-.27.16-.3.16t-.04-.03s-.06-.06-.09-.08c.2-.06.39-.18.57-.34.07-.06.1-.1.15-.16.08.05.14.11.14.13,0,0,0,.01-.02.02-.02,0-.03.02-.08.06-.03.03-.09.08-.16.13v.24c0,.13,0,.26,0,.33v.02s-.02.03-.11.03c-.06,0-.07,0-.07-.02h0s0-.03,0-.04c0-.04,0-.17,0-.31v-.12Z"/>
        <path class="cls-2" d="M3.67.53s.01.03.01.03c0,.02,0,.03-.03.05-.08.11-.17.19-.3.3-.15.12-.28.19-.46.28-.12.05-.12.06-.14.07-.01.01-.02.02-.03.02-.01,0-.03-.01-.05-.04-.03-.05-.06-.11-.07-.16.15-.03.33-.12.51-.23.23-.15.38-.29.49-.49.02.06.03.09.07.16ZM2.68.28s.04-.04.05-.04c.03,0,.14.07.23.15.06.05.08.07.08.08,0,.01-.03.05-.06.09-.03.04-.05.05-.06.05t-.07-.06s-.12-.1-.16-.12q-.05-.03-.06-.04s0,0,0-.01c0-.01.03-.06.07-.1Z"/>
        <path class="cls-2" d="M4.28.89c0,.09,0,.34,0,.41h0s0,.03-.01.04c-.01,0-.07.02-.13.02-.05,0-.06,0-.06-.03h0s0-.48,0-.66c0-.35,0-.44-.02-.53.11,0,.16.01.2.02.01,0,.02.01.02.02t0,.03s0,.04-.01.06c0,0,0,.09,0,.27q.11.03.17.05c.15.05.24.09.37.16.01,0,.02.02.02.03,0,.01-.03.09-.05.13-.01.03-.02.03-.03.03,0,0-.01,0-.02-.01-.15-.1-.3-.17-.46-.21v.17Z"/>
        <path class="cls-2" d="M5.52.44c-.27,0-.46.01-.51.02,0,0,0,0,0,0-.03,0-.04-.05-.04-.2.07.01.17.02.39.02.2,0,.44,0,.47,0,.03,0,.04,0,.06-.02,0,0,.01,0,.02,0,.03,0,.06.02.11.08.03.04.03.04.03.06,0,.01,0,.02-.01.03-.01.02-.02.02-.05.13-.08.26-.25.5-.48.68-.09.07-.17.12-.2.12-.02,0-.02,0-.05-.04-.04-.04-.07-.06-.11-.09.22-.11.34-.2.46-.35.1-.13.17-.27.2-.44q-.12,0-.29,0ZM6.17.28s-.05.04-.06.04t-.04-.04s-.06-.09-.09-.12c0,0,0,0,0-.01,0-.01.06-.05.07-.05.01,0,.03.02.08.07.04.05.07.09.07.1s0,.02-.02.03ZM6.24.21c-.04-.06-.07-.1-.11-.14,0,0,0,0,0-.01,0,0,0-.02.03-.03.02-.02.03-.02.04-.02.02,0,.06.04.11.1.02.03.03.05.03.06,0,0,0,.02-.02.03-.02.02-.05.03-.05.03,0,0-.01,0-.02-.02Z"/>
        <path class="cls-2" d="M6.49.7s0,0-.01,0c-.03,0-.05-.05-.06-.21.07.01.18.02.46.02.3,0,.38,0,.41,0,.02,0,.03,0,.06-.01.01,0,.02,0,.03,0,.02,0,.04.01.06.04.04.05.07.09.07.11,0,.02,0,.03-.03.05-.01.01-.02.02-.05.09-.1.22-.21.36-.39.47-.08.05-.21.11-.24.11-.02,0-.03,0-.06-.04-.04-.05-.06-.06-.1-.08.17-.05.33-.14.44-.24.08-.08.15-.19.19-.32-.57,0-.67.01-.78.03ZM6.98.17q.16,0,.33-.01h.02s.03.02.03.06c0,.02,0,.03,0,.05h0c0,.06,0,.07-.03.07,0,0-.02,0-.03,0-.03,0-.14,0-.19,0-.22,0-.39,0-.47.01h-.01s-.04-.02-.05-.19c.1.01.19.02.41.02Z"/>
        <path class="cls-2" d="M8.26.3c0-.08,0-.13-.01-.19.11,0,.17,0,.2.02.01,0,.02.01.02.02,0,0,0,.02,0,.03-.01.02-.02.05-.02.12v.05h.19s.08,0,.11-.02c.02,0,.03,0,.04,0,.03,0,.07.03.12.09.03.03.03.04.03.06,0,.01,0,.02-.01.04-.01.03-.02.04-.04.12-.03.14-.06.21-.12.31-.1.17-.24.3-.42.39-.04.02-.07.03-.08.03-.01,0-.02,0-.03-.02-.03-.03-.06-.06-.12-.1.12-.05.18-.08.25-.13.15-.1.24-.23.3-.4.03-.08.04-.13.04-.2-.14,0-.19,0-.31,0-.13,0-.21,0-.4,0q0,.09,0,.11s0,.07,0,.13h0s0,.03-.02.03c-.01,0-.06,0-.1,0-.06,0-.07,0-.07-.03,0,0,0-.02,0-.04,0-.02,0-.18,0-.21,0-.05,0-.09,0-.16.04,0,.13,0,.22,0h.21v-.04Z"/>
        <path class="cls-2" d="M10.32.53s.01.03.01.03c0,.02,0,.03-.03.05-.08.11-.17.19-.3.3-.15.12-.28.19-.46.28-.12.05-.12.06-.14.07-.01.01-.02.02-.03.02-.01,0-.03-.01-.05-.04-.03-.05-.06-.11-.07-.16.15-.03.33-.12.51-.23.23-.15.38-.29.49-.49.02.06.03.09.07.16ZM9.32.28s.04-.04.05-.04c.03,0,.14.07.23.15.06.05.08.07.08.08,0,.01-.03.05-.06.09-.03.04-.05.05-.06.05t-.07-.06s-.12-.1-.16-.12q-.05-.03-.06-.04s0,0,0-.01c0-.01.03-.06.07-.1Z"/>
      </g>
    </g>
  </g>
</svg>