<?xml version="1.0" encoding="UTF-8"?>
<svg id="_レイヤー_2" data-name="レイヤー 2" xmlns="http://www.w3.org/2000/svg" viewBox="0 0 69.46 6.43">
  <defs>
    <style>
      .cls-1 {
        fill: none;
        stroke-width: .1px;
      }

      .cls-1, .cls-2 {
        stroke: #8c6464;
        stroke-miterlimit: 10;
      }

      .cls-2 {
        fill: #8c6464;
        stroke-width: .1px;
      }
    </style>
  </defs>
  <g id="lay">
    <g>
      <g>
        <path class="cls-2" d="M14.69,3.34c0-1.88,1.4-3.04,3.17-3.04,1.27,0,1.95.71,2.11.85l.12,1.31h-.09c-.25-.79-.84-2.04-2.18-2.04s-2.66,1.13-2.66,2.92,1.3,2.92,2.66,2.92c1.43,0,2.2-1.25,2.45-2.04h.09l-.12,1.31c-.16.14-.97.85-2.39.85-1.76,0-3.16-1.17-3.16-3.04Z"/>
        <path class="cls-2" d="M23.09,1.75c1.39,0,2.37.89,2.37,2.32s-.98,2.32-2.37,2.32-2.37-.88-2.37-2.32.98-2.32,2.37-2.32ZM23.09,6.28c1.12,0,1.91-.85,1.91-2.21s-.79-2.21-1.91-2.21-1.9.85-1.9,2.21.79,2.21,1.9,2.21Z"/>
        <path class="cls-2" d="M26.03,5.81V.88c0-.27-.08-.36-.18-.36-.08,0-.19.07-.27.12v-.08c.2-.2.51-.5.71-.5.14,0,.19.14.19.53v5.24c0,.21.07.32.27.51h-.98c.2-.2.27-.3.27-.51Z"/>
        <path class="cls-2" d="M29.41,1.75c1.39,0,2.37.89,2.37,2.32s-.98,2.32-2.37,2.32-2.37-.88-2.37-2.32.98-2.32,2.37-2.32ZM29.41,6.28c1.12,0,1.91-.85,1.91-2.21s-.79-2.21-1.91-2.21-1.9.85-1.9,2.21.79,2.21,1.9,2.21Z"/>
        <path class="cls-2" d="M34.53,2.27l.09,1.35h-.09c-.19-.99-.47-1.74-.81-1.74-.42,0-.76,1.09-.92,1.89v2.04c0,.21.07.32.27.51h-.98c.2-.2.27-.3.27-.51v-3.24c0-.27-.08-.36-.18-.36-.08,0-.19.07-.27.12v-.08c.2-.2.51-.5.71-.5.14,0,.19.14.19.53v1.09c.19-.79.49-1.62.97-1.62.3,0,.65.33.76.52Z"/>
        <path class="cls-2" d="M37.32,3.34c0-1.88,1.4-3.04,3.17-3.04,1.27,0,1.95.71,2.11.85l.12,1.31h-.09c-.25-.79-.84-2.04-2.18-2.04s-2.66,1.13-2.66,2.92,1.3,2.92,2.66,2.92c1.43,0,2.2-1.25,2.45-2.04h.09l-.12,1.31c-.16.14-.97.85-2.39.85-1.76,0-3.16-1.17-3.16-3.04Z"/>
        <path class="cls-2" d="M43.55,5.81V1.19c0-.85.41-1.14.85-1.14.76,0,.91.98.37,1.87.15-.1.32-.17.52-.17.46,0,.88.35.88,1.23v2.83c0,.21.07.32.27.51h-.98c.2-.2.27-.3.27-.51v-2.4c0-.73-.06-1.54-.56-1.54-.53,0-.95.9-1.15,1.53v2.41c0,.21.07.32.27.51h-.98c.2-.2.27-.3.27-.51ZM44.54,2.13c.75-1.06.48-1.96-.07-1.96-.46,0-.47.64-.47,1.34v1.71c.12-.36.29-.79.55-1.09Z"/>
        <path class="cls-2" d="M49.02,6.32v-.97c-.19.47-.52,1.03-1.22,1.03-.83,0-1.12-.71-1.12-1.44,0-.53.16-1.66,1.23-1.66.65,0,.94.36,1.12.7v-.66c0-.48-.02-1.47-.63-1.47-.48,0-.96.6-1.32,1.25h-.09l.27-1c.18-.09.48-.35,1.05-.35.81,0,1.18.52,1.18,1.41v2.66c0,.21.07.32.27.51h-.72ZM49.02,4.14c-.17-.36-.48-.78-.91-.78-.7,0-.96,1.1-.96,1.67s.3,1.27.81,1.27.89-.71,1.06-1.2v-.95Z"/>
        <path class="cls-2" d="M52.52,2.27l.09,1.35h-.09c-.19-.99-.47-1.74-.81-1.74-.42,0-.76,1.09-.92,1.89v2.04c0,.21.07.32.27.51h-.98c.2-.2.27-.3.27-.51v-3.24c0-.27-.08-.36-.18-.36-.08,0-.19.07-.27.12v-.08c.2-.2.51-.5.71-.5.14,0,.19.14.19.53v1.09c.19-.79.49-1.62.97-1.62.3,0,.65.33.76.52Z"/>
        <path class="cls-2" d="M53.43.72h.09v1.09h.63v.09h-.63v2.49c1.44.2,1.71,1.99.45,1.99-.21,0-.89-.05-.89-1.03V1.91h-.45v-.09c.46,0,.8-.75.8-1.09ZM53.52,5.18c0,.95.29,1.09.55,1.09.92,0,.82-1.6-.55-1.82v.73Z"/>
      </g>
      <line class="cls-1" x1="0" y1="3.6" x2="4.57" y2="3.6"/>
      <line class="cls-1" x1="64.89" y1="3.6" x2="69.46" y2="3.6"/>
    </g>
  </g>
</svg>