<?xml version="1.0" encoding="UTF-8"?>
<svg id="_レイヤー_2" data-name="レイヤー 2" xmlns="http://www.w3.org/2000/svg" viewBox="0 0 34.56 9">
  <defs>
    <style>
      .cls-1 {
        fill: #f096aa;
        stroke-width: 0px;
      }
    </style>
  </defs>
  <g id="lay">
    <g>
      <g>
        <path class="cls-1" d="M.92,7.4c.08.06.13.18.15.33h-.19c-.01-.07-.04-.13-.08-.18-.04-.05-.11-.07-.2-.07-.13,0-.22.06-.27.18-.04.08-.05.18-.05.3s.02.22.07.3c.05.08.13.12.23.12.08,0,.15-.02.19-.07.05-.05.08-.12.1-.2h.19c-.02.16-.08.27-.16.34-.09.07-.2.11-.34.11-.15,0-.28-.06-.37-.17-.09-.11-.14-.25-.14-.42,0-.21.05-.37.15-.48.1-.11.23-.17.38-.17.13,0,.24.03.32.1"/>
        <path class="cls-1" d="M2.29,8.24c.05-.1.07-.21.07-.33,0-.11-.02-.2-.05-.27-.06-.11-.15-.16-.28-.16-.12,0-.21.05-.26.14-.05.09-.08.2-.08.33s.03.23.08.31c.05.08.14.12.26.12.13,0,.22-.05.27-.15M2.41,7.46c.1.1.16.25.16.45s-.05.35-.14.47c-.09.12-.23.19-.43.19-.16,0-.29-.05-.38-.16-.09-.11-.14-.26-.14-.44,0-.2.05-.35.15-.47.1-.12.23-.18.4-.18.15,0,.28.05.38.15"/>
        <rect class="cls-1" x="3.1" y="6.9" width=".2" height="1.61"/>
        <path class="cls-1" d="M4.62,8.24c.05-.1.07-.21.07-.33,0-.11-.02-.2-.05-.27-.06-.11-.15-.16-.28-.16-.12,0-.21.05-.26.14-.05.09-.08.2-.08.33s.03.23.08.31c.05.08.14.12.26.12.13,0,.22-.05.27-.15M4.74,7.46c.1.1.16.25.16.45s-.05.35-.14.47c-.09.12-.23.19-.43.19-.16,0-.29-.05-.38-.16-.09-.11-.14-.26-.14-.44,0-.2.05-.35.15-.47.1-.12.23-.18.4-.18.15,0,.28.05.38.15"/>
        <path class="cls-1" d="M5.43,7.34h.19v.2s.05-.09.11-.14c.06-.06.13-.08.21-.08,0,0,0,0,.02,0,0,0,.02,0,.04,0v.21s-.02,0-.03,0c0,0-.02,0-.03,0-.1,0-.18.03-.23.1-.05.06-.08.14-.08.22v.68h-.2v-1.18Z"/>
        <path class="cls-1" d="M8.12,7.34h.22c-.03.08-.09.25-.19.52-.07.2-.13.37-.18.49-.11.3-.19.48-.24.55-.05.07-.13.1-.24.1-.03,0-.05,0-.06,0-.02,0-.03,0-.06-.01v-.18s.06.02.07.02c.02,0,.03,0,.04,0,.04,0,.06,0,.08-.02.02-.01.03-.03.04-.04,0,0,.02-.04.04-.09.02-.05.04-.09.05-.12l-.43-1.21h.22l.31.96.32-.96Z"/>
        <path class="cls-1" d="M9.52,8.24c.05-.1.07-.21.07-.33,0-.11-.02-.2-.05-.27-.06-.11-.15-.16-.28-.16-.12,0-.21.05-.26.14-.05.09-.08.2-.08.33s.03.23.08.31c.05.08.14.12.26.12.13,0,.22-.05.27-.15M9.65,7.46c.1.1.16.25.16.45s-.05.35-.14.47c-.09.12-.23.19-.43.19-.16,0-.29-.05-.38-.16-.09-.11-.14-.26-.14-.44,0-.2.05-.35.15-.47.1-.12.23-.18.4-.18.15,0,.28.05.38.15"/>
        <path class="cls-1" d="M10.53,7.34v.78c0,.06,0,.11.03.15.03.07.1.11.19.11.13,0,.23-.06.27-.18.03-.07.04-.16.04-.27v-.58h.2v1.18h-.19v-.17s-.05.08-.09.11c-.07.06-.16.09-.27.09-.16,0-.28-.06-.34-.17-.03-.06-.05-.14-.05-.24v-.8h.2Z"/>
        <path class="cls-1" d="M11.88,7.34h.19v.2s.05-.09.11-.14c.06-.06.13-.08.21-.08,0,0,0,0,.02,0,0,0,.02,0,.04,0v.21s-.02,0-.03,0c0,0-.02,0-.03,0-.1,0-.18.03-.23.1-.05.06-.08.14-.08.22v.68h-.2v-1.18Z"/>
        <path class="cls-1" d="M13.03,8.14c0,.07.02.12.05.15.05.06.14.1.26.1.07,0,.14-.02.2-.05.06-.03.09-.08.09-.15,0-.05-.02-.09-.07-.12-.03-.02-.09-.03-.17-.06l-.16-.04c-.1-.02-.18-.05-.23-.08-.09-.05-.13-.13-.13-.22,0-.11.04-.2.12-.27.08-.07.19-.1.33-.1.18,0,.31.05.39.16.05.07.07.14.07.21h-.19s-.02-.08-.05-.12c-.05-.05-.13-.08-.24-.08-.08,0-.13.01-.17.04-.04.03-.06.07-.06.11,0,.05.03.09.08.12.03.02.07.03.13.05l.13.03c.14.03.24.07.29.1.08.05.12.13.12.24s-.04.2-.12.27c-.08.08-.2.11-.37.11-.18,0-.3-.04-.38-.12-.07-.08-.11-.18-.12-.29h.19Z"/>
        <path class="cls-1" d="M15.12,7.83c0-.09-.03-.15-.06-.21-.05-.09-.14-.14-.27-.14-.09,0-.17.03-.23.1-.06.07-.09.15-.1.25h.65ZM15.05,7.37c.08.04.14.09.18.15.04.06.07.13.08.21.01.05.02.14.02.26h-.86c0,.12.03.22.08.29.05.07.13.11.24.11.1,0,.18-.03.24-.1.03-.04.06-.09.07-.14h.19s-.02.09-.05.14c-.03.05-.06.1-.1.13-.06.06-.13.1-.22.12-.05.01-.1.02-.16.02-.15,0-.27-.05-.37-.16-.1-.11-.15-.26-.15-.45s.05-.34.15-.46c.1-.12.23-.18.4-.18.08,0,.16.02.24.06"/>
        <rect class="cls-1" x="15.87" y="6.9" width=".2" height="1.61"/>
        <path class="cls-1" d="M16.75,6.98c.05-.07.14-.1.27-.1.01,0,.03,0,.04,0,.01,0,.03,0,.04,0v.18s-.04,0-.04,0c0,0-.02,0-.03,0-.06,0-.1.02-.11.05-.01.03-.02.11-.02.24h.2v.16h-.2v1.01h-.2v-1.01h-.16v-.16h.16v-.18c0-.08.02-.14.04-.18"/>
        <path class="cls-1" d="M18.52,7.01h.2v.33h.19v.16h-.19v.77s.01.07.04.08c.02,0,.04.01.08.01,0,0,.02,0,.03,0,.01,0,.02,0,.04,0v.16s-.05.01-.07.01c-.02,0-.05,0-.08,0-.09,0-.15-.02-.19-.07-.03-.05-.05-.11-.05-.18v-.78h-.16v-.16h.16v-.33Z"/>
        <path class="cls-1" d="M20.13,8.24c.05-.1.07-.21.07-.33,0-.11-.02-.2-.05-.27-.06-.11-.15-.16-.28-.16-.12,0-.21.05-.26.14-.05.09-.08.2-.08.33s.03.23.08.31c.05.08.14.12.26.12.13,0,.22-.05.27-.15M20.25,7.46c.1.1.16.25.16.45s-.05.35-.14.47c-.09.12-.23.19-.43.19-.16,0-.29-.05-.38-.16-.09-.11-.14-.26-.14-.44,0-.2.05-.35.15-.47.1-.12.23-.18.4-.18.15,0,.28.05.38.15"/>
        <path class="cls-1" d="M22.59,7.34h.22c-.03.08-.09.25-.19.52-.07.2-.13.37-.18.49-.11.3-.19.48-.24.55-.05.07-.13.1-.24.1-.03,0-.05,0-.06,0-.02,0-.03,0-.06-.01v-.18s.06.02.07.02c.02,0,.03,0,.04,0,.04,0,.06,0,.08-.02.02-.01.03-.03.04-.04,0,0,.02-.04.04-.09.02-.05.04-.09.05-.12l-.43-1.21h.22l.31.96.32-.96Z"/>
        <path class="cls-1" d="M24,8.24c.05-.1.07-.21.07-.33,0-.11-.02-.2-.05-.27-.05-.11-.15-.16-.28-.16-.12,0-.21.05-.26.14-.05.09-.08.2-.08.33s.03.23.08.31c.05.08.14.12.26.12.13,0,.22-.05.27-.15M24.12,7.46c.1.1.16.25.16.45s-.05.35-.14.47c-.09.12-.23.19-.43.19-.16,0-.29-.05-.38-.16-.09-.11-.14-.26-.14-.44,0-.2.05-.35.15-.47.1-.12.23-.18.4-.18.15,0,.28.05.38.15"/>
        <path class="cls-1" d="M25.01,7.34v.78c0,.06,0,.11.03.15.03.07.1.11.19.11.13,0,.23-.06.27-.18.03-.07.04-.16.04-.27v-.58h.2v1.18h-.19v-.17s-.05.08-.09.11c-.07.06-.16.09-.27.09-.16,0-.28-.06-.34-.17-.03-.06-.05-.14-.05-.24v-.8h.2Z"/>
        <path class="cls-1" d="M26.35,7.34h.19v.2s.05-.09.11-.14c.06-.06.13-.08.21-.08,0,0,0,0,.02,0,0,0,.02,0,.05,0v.21s-.02,0-.03,0c0,0-.02,0-.03,0-.1,0-.18.03-.23.1-.05.06-.08.14-.08.22v.68h-.2v-1.18Z"/>
        <path class="cls-1" d="M28.3,7.34h.2v.17c.05-.06.09-.1.13-.13.07-.04.14-.07.22-.07.09,0,.17.02.23.07.03.03.06.07.09.12.04-.06.1-.11.15-.14.06-.03.13-.05.2-.05.16,0,.27.06.32.17.03.06.05.14.05.25v.78h-.21v-.82c0-.08-.02-.13-.06-.16-.04-.03-.09-.04-.14-.04-.08,0-.14.03-.2.08-.06.05-.08.14-.08.26v.68h-.2v-.77c0-.08,0-.14-.03-.17-.03-.05-.09-.08-.17-.08-.07,0-.14.03-.2.09-.06.06-.09.16-.09.31v.62h-.2v-1.18Z"/>
        <path class="cls-1" d="M31.19,8.24c.05-.1.07-.21.07-.33,0-.11-.02-.2-.05-.27-.06-.11-.15-.16-.28-.16-.12,0-.21.05-.26.14-.05.09-.08.2-.08.33s.03.23.08.31c.05.08.14.12.26.12.13,0,.22-.05.27-.15M31.31,7.46c.1.1.16.25.16.45s-.05.35-.14.47c-.09.12-.23.19-.43.19-.16,0-.29-.05-.38-.16-.09-.11-.14-.26-.14-.44,0-.2.05-.35.15-.47.1-.12.23-.18.4-.18.15,0,.28.05.38.15"/>
        <path class="cls-1" d="M32.73,8.24c.05-.1.07-.21.07-.33,0-.11-.02-.2-.05-.27-.06-.11-.15-.16-.28-.16-.12,0-.21.05-.26.14-.05.09-.08.2-.08.33s.03.23.08.31c.05.08.14.12.26.12.13,0,.22-.05.27-.15M32.85,7.46c.1.1.16.25.16.45s-.05.35-.14.47c-.09.12-.23.19-.43.19-.16,0-.29-.05-.38-.16-.09-.11-.14-.26-.14-.44,0-.2.05-.35.15-.47.1-.12.23-.18.4-.18.15,0,.28.05.38.15"/>
        <path class="cls-1" d="M33.75,8.26c.05.08.14.13.26.13.09,0,.17-.04.22-.12.06-.08.09-.19.09-.34s-.03-.26-.09-.33c-.06-.07-.14-.11-.22-.11-.1,0-.18.04-.24.11-.06.08-.09.19-.09.34,0,.13.03.23.08.32M34.19,7.37s.07.06.12.12v-.59h.19v1.62h-.18v-.16c-.05.07-.1.12-.16.16-.06.03-.13.05-.22.05-.13,0-.24-.05-.34-.17-.1-.11-.14-.26-.14-.44,0-.17.04-.32.13-.45.09-.13.21-.19.37-.19.09,0,.16.02.23.06"/>
      </g>
      <g>
        <path class="cls-1" d="M31.17,4.81h-.58c-.12.01-.14-.07-.14-.1v-2.37s0,0,0,0v-.28s0-1.82,0-1.82c0,0,0-.06,0-.07V.04h-1.57c-.07,0-.08.03-.08.06,0,.02,0,.05.09.05h.55s.06.07.06.09v4.47s-.02.1-.05.1h-.58s-.08,0-.08.05.03.06.07.06h2.31s.07.01.07-.06c0-.06-.05-.05-.07-.05"/>
        <path class="cls-1" d="M34.48,4.81h-.48s-.04-.05-.05-.07l-2.23-2.95s-.01-.05,0-.06l1.49-1.35c.12-.11.28-.23.45-.23h.41s.08-.02.08-.06c0-.03-.02-.05-.08-.05h-2.04s-.08,0-.08.05c0,.05.03.06.08.06h.99s.05.06.06.08c0,0,0,.03-.01.05l-2.03,1.78s-.02.01-.04.03c-.04.06-.08.16,0,.34h0s1.7,2.25,1.7,2.25c.01.01.01.03,0,.05,0,.01-.02.07-.05.07h-.74s-.08,0-.08.05.03.05.08.05h2.56s.08,0,.08-.05-.03-.05-.08-.05"/>
        <path class="cls-1" d="M.08,4.81h.51c.09,0,.12-.09.12-.17V.44c0-.13.05-.3-.22-.29H.1s-.08,0-.08-.05C.02.07.04.05.05.05h.07s.39,0,.39,0h.14s.05,0,.09,0h.46s.73,0,.73,0c.07,0,.13.05.15.11l1.27,2.62c.03.06.07.04.1-.02L4.74.16l.03-.02s.03,0,.06,0c0,0,.02.01.03.01.01,0,.03.02.04.04h0s0,.02,0,.03l-1.82,3.73s-.03.08-.1.08-.09-.04-.11-.08L1.12.33s-.18-.08-.21.01v4.3c0,.08.07.17.16.17h.63s.08.01.08.06-.03.05-.08.05H.08s-.08,0-.08-.05.04-.06.08-.06"/>
        <path class="cls-1" d="M4.52,4.81h.52c.09,0,.15-.08.15-.16V.39c0-.12.04-.19.08-.23,0,0,.08-.09.22-.1h.09s0,0,0,0h1.26c.05,0,.09,0,.09.05,0,.04-.03.05-.08.05h-.36c-.36,0-.37.15-.37.28v4.22c0,.08,0,.16.09.16h.69c.05,0,.08.02.08.06s-.03.05-.08.05h-2.38c-.05,0-.07,0-.07-.05s.03-.06.08-.06"/>
        <path class="cls-1" d="M24.08,1.31l.91,2.38.39,1.01s0,.03,0,.04c-.01.02-.03.06-.05.06h-.9s-.08,0-.08.05.03.05.07.05h2.68s.08-.01.08-.06-.04-.05-.08-.05h-.63s-.05-.05-.05-.07L24.61.1s-.04-.1-.1-.1c-.06,0-.09.05-.11.1l-.34.87c-.04.09-.04.19,0,.29h0"/>
        <path class="cls-1" d="M21.98,4.92c-.08,0-.1-.01-.1-.05,0-.07.05-.06.11-.06h.49s.02-.05.02-.07l1.16-2.96c.03-.05.07-.07.09-.07.02,0,.03,0,.05.01.02.02.05.05.04.1l-.02.05-.64,1.62s0,0,.01,0h1.2c.07.02.1.06.11.09,0,.02,0,.07,0,.08-.02.03-.04.03-.09.04h-.02s-1.27,0-1.27,0c0,0-.02.01-.02.02l-.39,1.02h0s.01.06.02.06h.61c.08,0,.09,0,.08.06,0,.03-.01.05-.1.05h-1.34Z"/>
        <path class="cls-1" d="M15.98.04s-.08,0-.08.05.03.05.08.05h.49c.05,0,.09.08.09.13v4.4s-.04.13-.09.13h-.51c-.05,0-.07.01-.07.05,0,.04.03.06.07.06h4.01c.05,0,.1-.04.11-.1v-1.34s0-.07-.07-.07c-.04,0-.07.04-.07.07-.14.96-.61,1.32-1.72,1.32h-.6c-.05,0-.09-.05-.09-.1V.28s0-.03,0-.06V.04s-1.56,0-1.56,0Z"/>
        <path class="cls-1" d="M11.63.17h0s-.03,0-.03,0c0,0,0,0,0,0h0s0,0,0,0h0s0,0,0,0h0s0,0,0,0c-.05,0-.07.03-.07.05,0,.03.01.05.04.07h0s.03.01.03.01h0s0,0,0,0c0,0,0,0,0,0h0s0,0,0,0c.22.04.4.12.54.23.39.33.47.99.47,2.01s-.08,1.67-.47,1.99c-.18.14-.34.22-.54.26h0s0,0,0,0h0s-.01,0-.01,0h0c-.06.03-.06.07-.05.07,0,.01.01.05.07.05h0s0,0,0,0h0s.02,0,.02,0h0s0,0,0,0h.02s0,0,0,0c1.24-.17,2.1-1.14,2.1-2.37S12.84.36,11.63.17"/>
        <path class="cls-1" d="M10.98,4.82h0s-.08-.03-.12-.04c-.17-.04-.32-.12-.48-.25-.39-.32-.47-1-.47-1.99s.08-1.68.47-2.01c.03-.03.06-.05.11-.08.01,0,.03-.02.05-.03.02,0,.03-.02.05-.03,0,0,.02,0,.03-.01.02,0,.04-.02.06-.02.02,0,.04-.01.06-.02h0s.04-.01.04-.01c.05-.01.09-.02.14-.03h.03s0,0,0,0c.04-.02.05-.05.05-.07,0-.02-.02-.04-.06-.05h0s-.02,0-.02,0c0,0,0,0,0,0,0,0,0,0,0,0h0s0,0-.01,0c0,0-.01,0-.01,0h0c-1.22.18-2.1,1.17-2.1,2.37s.86,2.2,2.09,2.37h0s.02,0,.02,0c0,0,0,0,.01,0h0s0,0,0,0h0s0,0,0,0h0s0,0,0,0h0s0,0,0,0h0s.06-.03.07-.05c0-.02,0-.03-.02-.05"/>
      </g>
    </g>
  </g>
</svg>