<?xml version="1.0" encoding="UTF-8"?>
<svg id="_レイヤー_2" data-name="レイヤー 2" xmlns="http://www.w3.org/2000/svg" viewBox="0 0 41.53 11.99">
  <defs>
    <style>
      .cls-1 {
        fill: #8c6464;
        stroke-linecap: round;
        stroke-linejoin: round;
        stroke-width: .08px;
      }

      .cls-1, .cls-2 {
        stroke: #8c6464;
      }

      .cls-2 {
        fill: none;
        stroke-miterlimit: 10;
        stroke-width: .09px;
      }
    </style>
  </defs>
  <g id="lay">
    <g>
      <line class="cls-2" x1="0" y1=".04" x2="41.53" y2=".04"/>
      <line class="cls-2" x1="0" y1="11.94" x2="41.53" y2="11.94"/>
      <g>
        <path class="cls-1" d="M11.57,3.01c-.2.2-.36.3-.36.51v5.33h.57c.73,0,1.01-1.06,1.16-1.62h.09l-.18,1.74h-2.38c.2-.2.27-.3.27-.51V3.52c0-.21-.07-.31-.27-.51h1.09Z"/>
        <path class="cls-1" d="M13.73,8.46v-3.24c0-.27-.08-.36-.18-.36-.08,0-.19.07-.27.12v-.08c.2-.2.51-.5.71-.5.14,0,.19.14.19.53v3.53c0,.21.07.31.27.51h-.98c.2-.2.27-.3.27-.51ZM13.87,2.95c.23,0,.38.14.38.36s-.14.36-.38.36-.38-.14-.38-.36.14-.36.38-.36Z"/>
        <path class="cls-1" d="M15.12,8.46v-3.24c0-.27-.08-.36-.18-.36-.08,0-.19.07-.27.12v-.08c.2-.2.51-.5.71-.5.14,0,.19.14.19.53v.94c.21-.63.56-1.46,1.29-1.46.46,0,.88.35.88,1.23v2.83c0,.21.07.31.27.51h-.98c.2-.2.27-.3.27-.51v-2.4c0-.73-.06-1.54-.56-1.54-.53,0-.95.9-1.15,1.53v2.41c0,.21.07.31.27.51h-.98c.2-.2.27-.3.27-.51Z"/>
        <path class="cls-1" d="M21.32,5.99c.79.17,1.4.62,1.4,1.41,0,.91-.79,1.63-2.01,1.63-1.39,0-2.5-.89-2.5-2.32s1.07-2.32,2.37-2.32c1.03,0,1.79.6,2.09,1.59h-1.36ZM18.78,5.99c-.06.22-.09.46-.09.72,0,1.36.91,2.21,2.11,2.21.98,0,1.84-.58,1.84-1.51,0-.86-.74-1.3-1.65-1.42h-2.21ZM22.2,5.9c-.27-.88-.84-1.4-1.61-1.4s-1.52.52-1.79,1.4h3.4Z"/>
        <path class="cls-1" d="M25.99,4.97v3.49c0,.21.07.31.27.51h-.72v-1.4c-.21.63-.56,1.46-1.29,1.46-.46,0-.88-.35-.88-1.23v-2.83c0-.21-.07-.31-.27-.51h.98c-.2.2-.27.3-.27.51v2.4c0,.73.06,1.54.56,1.54.53,0,.95-.9,1.15-1.53v-2.41c0-.21-.07-.31-.27-.51h.98c-.2.2-.27.3-.27.51Z"/>
        <path class="cls-1" d="M26.78,10v-4.77c0-.27-.08-.36-.18-.36-.08,0-.19.07-.27.12v-.08c.2-.2.51-.5.71-.5.14,0,.19.14.19.53v1.03c.15-.71.42-1.56,1.14-1.56.89,0,1.2,1.29,1.2,2.32s-.16,2.32-1.23,2.32c-.65,0-.94-.5-1.12-.99v1.95c0,.21.07.32.27.51h-.98c.2-.2.27-.3.27-.51ZM27.23,7.81c.17.51.49,1.11.94,1.11.7,0,.94-1.38.94-2.2s-.32-2.18-.91-2.18c-.54,0-.81,1.12-.97,1.85v1.42Z"/>
      </g>
    </g>
  </g>
</svg>