<?xml version="1.0" encoding="UTF-8"?>
<svg id="_レイヤー_2" data-name="レイヤー 2" xmlns="http://www.w3.org/2000/svg" viewBox="0 0 48.1 7.95">
  <defs>
    <style>
      .cls-1 {
        fill: #8c6464;
        stroke: #8c6464;
        stroke-linecap: round;
        stroke-linejoin: round;
        stroke-width: .08px;
      }
    </style>
  </defs>
  <g id="lay">
    <g>
      <path class="cls-1" d="M3.18.98l.12,1.31h-.09c-.25-.79-.62-1.87-1.47-1.87-.58,0-.98.52-.98,1.09,0,1.6,2.66,1.79,2.66,3.52,0,.91-.59,1.35-1.57,1.35-1.16,0-1.41-.54-1.57-.68l-.23-1.39h.09c.36.79.88,1.95,1.8,1.95.62,0,1.01-.52,1.01-1.14C2.94,3.56.28,3.38.28,1.61.28.75.86.29,1.73.29c.98,0,1.29.54,1.45.68Z"/>
      <path class="cls-1" d="M6.17,6.31v-.97c-.19.47-.52,1.03-1.22,1.03-.83,0-1.12-.71-1.12-1.44,0-.53.16-1.66,1.23-1.66.65,0,.94.36,1.12.7v-.66c0-.48-.02-1.47-.63-1.47-.48,0-.96.6-1.32,1.25h-.09l.27-1c.18-.09.48-.35,1.05-.35.81,0,1.18.52,1.18,1.41v2.66c0,.21.07.32.27.51h-.72ZM6.17,4.13c-.17-.36-.48-.78-.91-.78-.7,0-.96,1.1-.96,1.67s.3,1.27.81,1.27.89-.71,1.06-1.2v-.95Z"/>
      <path class="cls-1" d="M9.39,2.31l-.73,1.13,1.27,2.36c.1.19.25.32.45.51h-1.05c.2-.2.18-.34.09-.51l-1.05-1.91-.58.89v1.01c0,.21.07.32.27.51h-.98c.2-.2.27-.3.27-.51V.87c0-.27-.08-.36-.18-.36-.08,0-.19.07-.27.12v-.08c.2-.2.51-.5.71-.5.14,0,.19.14.19.53v4.03l1.46-2.28c.1-.15.12-.31,0-.51h.68c-.28.2-.43.35-.54.51Z"/>
      <path class="cls-1" d="M13.06,2.31v3.49c0,.21.07.32.27.51h-.72v-1.4c-.21.63-.56,1.46-1.29,1.46-.46,0-.88-.35-.88-1.23v-2.83c0-.21-.07-.31-.27-.51h.98c-.2.2-.27.3-.27.51v2.4c0,.73.06,1.54.56,1.54.53,0,.95-.9,1.15-1.53v-2.41c0-.21-.07-.31-.27-.51h.98c-.2.2-.27.3-.27.51Z"/>
      <path class="cls-1" d="M16.18,2.26l.09,1.35h-.09c-.19-.99-.47-1.74-.81-1.74-.42,0-.76,1.09-.92,1.89v2.04c0,.21.07.32.27.51h-.98c.2-.2.27-.3.27-.51v-3.24c0-.27-.08-.36-.18-.36-.08,0-.19.07-.27.12v-.08c.2-.2.51-.5.71-.5.14,0,.19.14.19.53v1.09c.19-.79.49-1.62.97-1.62.3,0,.65.33.76.52Z"/>
      <path class="cls-1" d="M18.66,6.31v-.97c-.19.47-.52,1.03-1.22,1.03-.83,0-1.12-.71-1.12-1.44,0-.53.16-1.66,1.23-1.66.65,0,.94.36,1.12.7v-.66c0-.48-.02-1.47-.63-1.47-.48,0-.96.6-1.32,1.25h-.09l.27-1c.18-.09.48-.35,1.05-.35.81,0,1.18.52,1.18,1.41v2.66c0,.21.07.32.27.51h-.72ZM18.66,4.13c-.17-.36-.48-.78-.91-.78-.7,0-.96,1.1-.96,1.67s.3,1.27.81,1.27.89-.71,1.06-1.2v-.95Z"/>
      <path class="cls-1" d="M27.7.35c-.2.2-.27.3-.27.51v4.94c0,.21.07.32.27.51h-1c.2-.2.27-.3.27-.51V.7l-2.12,5.62h-.13l-2.29-5.58v4.9c0,.38.25.49.45.68h-1.02c.2-.2.45-.3.45-.68V.87c0-.21-.07-.31-.27-.51h.73l2.19,5.34L26.97.35h.73Z"/>
      <path class="cls-1" d="M28.56,5.8v-3.24c0-.27-.08-.36-.18-.36-.08,0-.19.07-.27.12v-.08c.2-.2.51-.5.71-.5.14,0,.19.14.19.53v3.53c0,.21.07.32.27.51h-.98c.2-.2.27-.3.27-.51ZM28.69.29c.23,0,.38.14.38.36s-.14.36-.38.36-.38-.14-.38-.36.14-.36.38-.36Z"/>
      <path class="cls-1" d="M32.61,2.31l-1.44,4.31c-.19.57-.36,1.29-.97,1.29-.39,0-.68-.29-.68-.75,0-.81.87-.92,1.61-.93l-1.39-3.92c-.07-.2-.2-.31-.39-.51h1.01c-.2.2-.21.31-.14.51l1.18,3.29,1.09-3.29c.07-.2.05-.31-.12-.51h.65c-.22.2-.34.31-.41.51ZM29.62,7.15c0,.43.26.66.55.66.52,0,.69-.68.87-1.18l.11-.31c-.71,0-1.53.07-1.53.83Z"/>
      <path class="cls-1" d="M35.15,6.31v-.97c-.19.47-.52,1.03-1.22,1.03-.83,0-1.12-.71-1.12-1.44,0-.53.16-1.66,1.23-1.66.65,0,.94.36,1.12.7v-.66c0-.48-.02-1.47-.63-1.47-.48,0-.96.6-1.32,1.25h-.09l.27-1c.18-.09.48-.35,1.05-.35.81,0,1.18.52,1.18,1.41v2.66c0,.21.07.32.27.51h-.72ZM35.15,4.13c-.17-.36-.48-.78-.91-.78-.7,0-.96,1.1-.96,1.67s.3,1.27.81,1.27.89-.71,1.06-1.2v-.95Z"/>
      <path class="cls-1" d="M38.35,1.8l.91,3.7.76-3.19c.04-.2.02-.31-.13-.51h.65c-.24.2-.35.31-.4.51l-.97,4.06h-.12l-.94-3.58-.85,3.58h-.12l-1.05-4.06c-.05-.2-.2-.31-.39-.51h1.01c-.2.2-.2.31-.14.51l.79,3.19.88-3.7h.12Z"/>
      <path class="cls-1" d="M42.71,6.31v-.97c-.19.47-.52,1.03-1.22,1.03-.83,0-1.12-.71-1.12-1.44,0-.53.16-1.66,1.23-1.66.65,0,.94.36,1.12.7v-.66c0-.48-.02-1.47-.63-1.47-.48,0-.96.6-1.32,1.25h-.09l.27-1c.18-.09.48-.35,1.05-.35.81,0,1.18.52,1.18,1.41v2.66c0,.21.07.32.27.51h-.72ZM42.71,4.13c-.17-.36-.48-.78-.91-.78-.7,0-.96,1.1-.96,1.67s.3,1.27.81,1.27.89-.71,1.06-1.2v-.95Z"/>
      <path class="cls-1" d="M45.93,2.31l-.73,1.13,1.27,2.36c.1.19.25.32.45.51h-1.05c.2-.2.18-.34.09-.51l-1.05-1.91-.58.89v1.01c0,.21.07.32.27.51h-.98c.2-.2.27-.3.27-.51V.87c0-.27-.08-.36-.18-.36-.08,0-.19.07-.27.12v-.08c.2-.2.51-.5.71-.5.14,0,.19.14.19.53v4.03l1.46-2.28c.1-.15.12-.31,0-.51h.68c-.28.2-.43.35-.54.51Z"/>
      <path class="cls-1" d="M47.34,5.8v-3.24c0-.27-.08-.36-.18-.36-.08,0-.19.07-.27.12v-.08c.2-.2.51-.5.71-.5.14,0,.19.14.19.53v3.53c0,.21.07.32.27.51h-.98c.2-.2.27-.3.27-.51ZM47.48.29c.23,0,.38.14.38.36s-.14.36-.38.36-.38-.14-.38-.36.14-.36.38-.36Z"/>
    </g>
  </g>
</svg>