<?xml version="1.0" encoding="UTF-8"?>
<svg id="_レイヤー_2" data-name="レイヤー 2" xmlns="http://www.w3.org/2000/svg" viewBox="0 0 15.48 5.33">
  <defs>
    <style>
      .cls-1 {
        stroke: #8c6464;
        stroke-linecap: round;
        stroke-linejoin: round;
        stroke-width: .05px;
      }

      .cls-1, .cls-2 {
        fill: #8c6464;
      }

      .cls-2 {
        stroke-width: 0px;
      }
    </style>
  </defs>
  <g id="lay">
    <g>
      <g>
        <path class="cls-1" d="M.13,4.49v-1.91c0-.08-.03-.12-.1-.2h.63c.79,0,1.34.39,1.34,1.15s-.54,1.15-1.34,1.15H.03c.08-.08.1-.12.1-.2ZM.58,4.64c.73,0,1.23-.38,1.23-1.11s-.5-1.11-1.23-1.11h-.27v2.21h.27Z"/>
        <path class="cls-1" d="M3.15,4.69v-.38c-.07.18-.2.4-.47.4-.32,0-.43-.28-.43-.56,0-.2.06-.64.47-.64.25,0,.36.14.43.27v-.25c0-.18,0-.57-.25-.57-.19,0-.37.23-.51.48h-.04l.1-.39c.07-.04.19-.14.41-.14.31,0,.46.2.46.54v1.03c0,.08.03.12.1.2h-.28ZM3.15,3.84c-.07-.14-.19-.3-.35-.3-.27,0-.37.43-.37.65s.12.49.31.49.35-.28.41-.46v-.37Z"/>
        <path class="cls-1" d="M4.64,3.12l.04.52h-.04c-.07-.38-.18-.67-.32-.67-.16,0-.29.42-.36.73v.79c0,.08.03.12.1.2h-.38c.08-.08.1-.12.1-.2v-1.25c0-.11-.03-.14-.07-.14-.03,0-.07.03-.1.05v-.03c.08-.08.2-.19.27-.19.05,0,.07.05.07.2v.42c.07-.31.19-.63.38-.63.12,0,.25.13.29.2Z"/>
        <path class="cls-1" d="M5.75,3.14l-.28.44.49.91c.04.07.1.12.17.2h-.41c.08-.08.07-.13.03-.2l-.41-.74-.22.35v.39c0,.08.03.12.1.2h-.38c.08-.08.1-.12.1-.2v-1.91c0-.11-.03-.14-.07-.14-.03,0-.07.03-.1.05v-.03c.08-.08.2-.19.27-.19.06,0,.07.05.07.2v1.56l.56-.88c.04-.06.04-.12,0-.2h.26c-.11.08-.17.14-.21.2Z"/>
        <path class="cls-1" d="M7.49,4.49v-1.91c0-.08-.03-.12-.1-.2h.4c.39,0,.78.11.78.57s-.38.57-.78.57h-.11v.87c0,.15.1.22.17.3h-.46c.08-.08.1-.12.1-.2ZM7.78,3.48c.33,0,.6-.1.6-.52s-.27-.53-.6-.53h-.11v1.05h.11Z"/>
        <path class="cls-1" d="M9.86,3.53c.31.07.54.24.54.55,0,.35-.3.63-.78.63-.54,0-.97-.34-.97-.9s.42-.9.92-.9c.4,0,.69.23.81.62h-.53ZM8.88,3.53c-.02.09-.04.18-.04.28,0,.53.35.85.82.85.38,0,.71-.22.71-.58,0-.33-.29-.5-.64-.55h-.86ZM10.2,3.5c-.1-.34-.33-.54-.62-.54-.31,0-.59.2-.69.54h1.32Z"/>
        <path class="cls-1" d="M11.58,2.92c.54,0,.92.34.92.9s-.38.9-.92.9-.92-.34-.92-.9.38-.9.92-.9ZM11.58,4.67c.43,0,.74-.33.74-.86s-.3-.86-.74-.86-.74.33-.74.86.3.86.74.86Z"/>
        <path class="cls-1" d="M12.86,4.49v-1.25c0-.11-.03-.14-.07-.14-.03,0-.07.03-.1.05v-.03c.08-.08.2-.19.27-.19.06,0,.07.05.07.2v.36c.08-.24.22-.57.5-.57.18,0,.34.14.34.48v1.09c0,.08.03.12.1.2h-.38c.08-.08.1-.12.1-.2v-.93c0-.28-.02-.6-.22-.6-.21,0-.37.35-.45.59v.93c0,.08.03.12.1.2h-.38c.08-.08.1-.12.1-.2Z"/>
        <path class="cls-1" d="M15.29,3.14l-.56,1.67c-.07.22-.14.5-.38.5-.15,0-.26-.11-.26-.29,0-.31.34-.36.62-.36l-.54-1.52c-.03-.08-.08-.12-.15-.2h.39c-.08.08-.08.12-.06.2l.46,1.27.42-1.27c.03-.08.02-.12-.04-.2h.25c-.09.08-.13.12-.16.2ZM14.14,5.01c0,.17.1.25.21.25.2,0,.27-.26.34-.46l.04-.12c-.27,0-.59.03-.59.32Z"/>
      </g>
      <g>
        <path class="cls-2" d="M.23.67s-.07.05-.08.05-.01,0-.04-.03c-.03-.03-.06-.05-.11-.08.16-.1.26-.18.35-.31.06-.09.11-.18.13-.26.16.06.2.08.2.1,0,0,0,.01-.02.02-.01.01-.03.04-.08.1h.03c.05,0,.09,0,.1,0,.15,0,.18,0,.23-.02.01,0,.02,0,.03,0,.02,0,.04.02.09.07.04.04.05.06.05.08,0,.01,0,.02-.02.04-.01.01-.03.04-.05.08-.14.26-.25.4-.42.55-.13.12-.34.26-.39.26-.01,0-.03,0-.04-.02-.04-.04-.08-.07-.13-.09.21-.1.37-.21.51-.36t-.04-.04s-.07-.06-.14-.12c0,0-.01-.01-.01-.02,0,0,.02-.03.07-.08.03-.03.03-.03.04-.03.02,0,.11.07.2.16.09-.12.15-.23.19-.32q-.17,0-.39,0c-.07.09-.16.18-.26.26ZM1.22.28s-.05.04-.06.04,0,0-.04-.04c-.02-.04-.06-.09-.09-.12,0,0,0,0,0-.01,0-.01.06-.05.07-.05.01,0,.03.01.08.07.04.05.07.09.07.1s0,.02-.02.03ZM1.28.21c-.04-.06-.07-.1-.11-.14,0,0,0,0,0-.01,0,0,0-.02.03-.03.02-.02.03-.02.04-.02.02,0,.06.04.11.1.02.03.04.05.04.06,0,0,0,.02-.02.03-.02.02-.05.03-.06.03,0,0-.01,0-.02-.02Z"/>
        <path class="cls-2" d="M1.93.59c.27,0,.43,0,.58-.01h.02s.04,0,.04.12c0,.06,0,.07-.03.07h0c-.1,0-.15,0-.59,0-.16,0-.24,0-.38,0h-.04s-.06,0-.08,0c0,0-.01,0-.02,0-.02,0-.03,0-.03-.02,0-.04-.01-.11-.01-.18.12.01.23.02.54.02Z"/>
        <path class="cls-2" d="M3.35.42c-.1.14-.28.3-.32.3-.01,0-.02,0-.05-.03-.02-.02-.06-.05-.11-.07.11-.06.22-.15.3-.25.09-.1.14-.19.19-.32.07.02.11.04.16.07.02.01.03.02.03.03,0,.01,0,.02-.02.03-.01.01-.03.03-.07.08h.22c.08,0,.1,0,.14-.02,0,0,.01,0,.02,0,.02,0,.05.02.09.08.03.04.04.05.04.07s0,.02-.03.04c-.01.01-.03.04-.05.07-.16.29-.32.48-.56.66-.1.08-.24.16-.27.16-.01,0-.02,0-.04-.02-.03-.03-.07-.06-.12-.09.22-.1.37-.21.52-.36.11-.11.18-.21.25-.33.01-.03.02-.04.05-.09h-.38Z"/>
        <path class="cls-2" d="M4.51.99s.09.05.24.05.21,0,.42-.03c0,0,0,0,.01,0,.01,0,.02,0,.03.02,0,.02.01.1.01.12,0,.02,0,.03-.03.04-.05.01-.26.02-.43.02s-.26-.01-.33-.04c-.05-.03-.09-.07-.1-.12,0-.04-.01-.07-.01-.13v-.06c0-.16,0-.18,0-.28,0-.26,0-.35-.02-.42.18.02.22.02.22.05,0,0,0,.01,0,.03,0,.01,0,.03-.01.06,0,.04,0,.08,0,.16,0,.06,0,.1,0,.12.26-.08.47-.18.56-.28.07.09.12.16.12.18,0,.01,0,.02-.04.03-.02,0-.06.02-.12.05-.18.09-.32.14-.52.19,0,.19,0,.22.01.24ZM5.43.2c0,.09-.07.16-.16.16s-.16-.07-.16-.16.07-.16.16-.16.16.07.16.16ZM5.19.2s.04.08.08.08.08-.04.08-.08-.04-.08-.08-.08-.08.04-.08.08Z"/>
        <path class="cls-2" d="M6.21.65c-.09.12-.2.22-.33.31-.08.06-.21.13-.23.13-.01,0-.02,0-.05-.04-.03-.04-.05-.06-.09-.09.14-.06.23-.11.34-.2.11-.09.18-.15.27-.28-.22,0-.38,0-.44.01-.01,0-.02,0-.03,0-.02,0-.03,0-.03-.02,0-.02-.01-.09-.02-.17.07,0,.3.02.48.02h.1v-.07c0-.1,0-.14-.02-.2.09,0,.15,0,.19.02.01,0,.02.01.02.02s0,.01-.01.03-.01.03-.01.07c0,.02,0,.05,0,.08v.06c.27,0,.3,0,.33,0t.03,0s.04,0,.04.09,0,.08-.03.08h0s-.01,0-.03,0h-.05c-.09,0-.21,0-.26,0l.02.37s0,.02,0,.1c0,.06,0,.07,0,.09,0,.17-.06.21-.25.21-.06,0-.09,0-.1,0-.01,0-.02-.01-.03-.06-.01-.03-.03-.08-.05-.12.07.01.12.02.17.02.07,0,.09-.01.09-.06,0,0,0,0,0,0v-.37Z"/>
        <path class="cls-2" d="M7.45.91c.27,0,.5,0,.61-.01.02,0,.03,0,.03,0,0,0,.01,0,.02,0,.01,0,.01.03.01.11,0,.08,0,.08-.03.08t-.03,0c-.08,0-.17,0-.36,0-.41,0-.61,0-.7.02-.01,0-.02,0-.03,0-.03,0-.04-.03-.05-.21.12,0,.27.01.53.01ZM7.49.27c.2,0,.32,0,.4-.02,0,0,.01,0,.02,0,.02,0,.02,0,.03.03,0,.01,0,.06,0,.11,0,.05,0,.06-.02.06,0,0-.01,0-.03,0-.03,0-.25,0-.42,0-.12,0-.19,0-.28,0-.02,0-.04,0-.05,0-.02,0-.03,0-.03-.02,0-.02-.02-.11-.02-.18.09.01.19.02.4.02Z"/>
        <path class="cls-2" d="M8.89.59c.27,0,.43,0,.58-.01h.02s.04,0,.04.12c0,.06,0,.07-.03.07h0c-.1,0-.15,0-.59,0-.16,0-.24,0-.38,0h-.04s-.06,0-.08,0c0,0-.01,0-.02,0-.02,0-.03,0-.03-.02,0-.04-.01-.11-.01-.18.12.01.23.02.54.02Z"/>
      </g>
    </g>
  </g>
</svg>