<?xml version="1.0" encoding="UTF-8"?>
<svg id="_レイヤー_2" data-name="レイヤー 2" xmlns="http://www.w3.org/2000/svg" viewBox="0 0 13.93 5.26">
  <defs>
    <style>
      .cls-1 {
        stroke: #8c6464;
        stroke-linecap: round;
        stroke-linejoin: round;
        stroke-width: .05px;
      }

      .cls-1, .cls-2 {
        fill: #8c6464;
      }

      .cls-2 {
        stroke-width: 0px;
      }
    </style>
  </defs>
  <g id="lay">
    <g>
      <g>
        <path class="cls-1" d="M2.29,2.31c-.08.08-.1.12-.1.2v1.91c0,.08.03.12.1.2h-.39c.08-.08.1-.12.1-.2v-1.98l-.82,2.18h-.05L.25,2.46v1.9c0,.15.1.19.17.26H.03c.08-.08.17-.12.17-.26v-1.85c0-.08-.03-.12-.1-.2h.28l.85,2.07.78-2.07h.28Z"/>
        <path class="cls-1" d="M3.71,3.47c.31.07.54.24.54.55,0,.35-.3.63-.78.63-.54,0-.97-.34-.97-.9s.42-.9.92-.9c.4,0,.69.23.81.62h-.53ZM2.73,3.47c-.02.09-.04.18-.04.28,0,.53.35.85.82.85.38,0,.71-.22.71-.58,0-.33-.29-.5-.64-.55h-.86ZM4.05,3.43c-.1-.34-.33-.54-.62-.54-.31,0-.59.2-.69.54h1.32Z"/>
        <path class="cls-1" d="M4.62,4.42v-1.91c0-.11-.03-.14-.07-.14-.03,0-.07.03-.1.05v-.03c.08-.08.2-.19.27-.19.06,0,.07.05.07.2v2.03c0,.08.03.12.1.2h-.38c.08-.08.1-.12.1-.2Z"/>
        <path class="cls-1" d="M5.37,2.45h.04v.42h.24v.04h-.24v.96c.56.08.66.77.17.77-.08,0-.35-.02-.35-.4v-1.33h-.17v-.04c.18,0,.31-.29.31-.42ZM5.41,4.18c0,.37.11.42.21.42.36,0,.32-.62-.21-.71v.28Z"/>
        <path class="cls-1" d="M7.07,3.07l-.56,1.67c-.07.22-.14.5-.38.5-.15,0-.26-.11-.26-.29,0-.31.34-.36.62-.36l-.54-1.52c-.03-.08-.08-.12-.15-.2h.39c-.08.08-.08.12-.06.2l.46,1.27.42-1.27c.03-.08.02-.12-.04-.2h.25c-.09.08-.13.12-.16.2ZM5.91,4.94c0,.17.1.25.21.25.2,0,.27-.26.34-.46l.04-.12c-.27,0-.59.03-.59.32Z"/>
        <path class="cls-1" d="M10.72,2.31c-.08.08-.1.12-.1.2v1.91c0,.08.03.12.1.2h-.39c.08-.08.1-.12.1-.2v-1.98l-.82,2.18h-.05l-.89-2.16v1.9c0,.15.1.19.17.26h-.4c.08-.08.17-.12.17-.26v-1.85c0-.08-.03-.12-.1-.2h.28l.85,2.07.78-2.07h.28Z"/>
        <path class="cls-1" d="M11.19,4.42v-1.25c0-.11-.03-.14-.07-.14-.03,0-.07.03-.1.05v-.03c.08-.08.2-.19.27-.19.06,0,.07.05.07.2v1.37c0,.08.03.12.1.2h-.38c.08-.08.1-.12.1-.2ZM11.24,2.29c.09,0,.15.05.15.14s-.06.14-.15.14-.15-.05-.15-.14.06-.14.15-.14Z"/>
        <path class="cls-1" d="M12.73,3.05l.04.42h-.04c-.07-.28-.2-.58-.45-.58-.17,0-.28.15-.28.32,0,.45.86.53.86,1.04,0,.27-.23.4-.52.4-.34,0-.49-.16-.54-.2l-.07-.46h.03c.11.28.33.62.6.62.18,0,.32-.15.32-.33,0-.43-.85-.51-.85-1.03,0-.25.2-.39.45-.39.29,0,.41.16.45.2Z"/>
        <path class="cls-1" d="M13.38,2.45h.04v.42h.24v.04h-.24v.96c.56.08.66.77.17.77-.08,0-.35-.02-.35-.4v-1.33h-.17v-.04c.18,0,.31-.29.31-.42ZM13.42,4.18c0,.37.11.42.21.42.36,0,.32-.62-.21-.71v.28Z"/>
      </g>
      <g>
        <path class="cls-2" d="M.87.15s.02-.08.03-.13c.13.05.21.09.21.12,0,0,0,.01-.01.02-.03.03-.05.06-.07.12-.08.15-.12.23-.19.34.07.06.13.12.19.18.01.01.02.03.02.04,0,.01-.02.04-.06.09-.03.03-.05.05-.06.05,0,0-.02,0-.03-.02-.09-.1-.1-.11-.17-.18-.13.16-.27.3-.41.39-.04.03-.07.04-.09.04-.01,0-.02,0-.05-.04-.03-.02-.06-.05-.11-.08.21-.1.38-.24.53-.45-.07-.06-.11-.08-.23-.17-.03-.02-.03-.02-.03-.03,0-.02.02-.04.07-.1.02-.02.03-.03.04-.03.02,0,.12.07.26.17.08-.13.13-.23.17-.35Z"/>
        <path class="cls-2" d="M1.76.13s.02.01.02.03c0,0,0,0,0,.02,0,.03-.01.06-.01.12,0,.37-.07.6-.23.8-.04.04-.05.06-.06.06,0,0-.01,0-.03,0-.04-.03-.08-.04-.15-.05.1-.1.14-.16.19-.26.06-.14.09-.28.09-.5,0-.1,0-.14-.01-.22.08,0,.15.01.19.02ZM1.92.27c0-.07,0-.13-.01-.2.16,0,.22.02.22.05,0,0,0,.01,0,.03,0,0,0,.03,0,.06t0,.7c.19-.11.32-.21.44-.37,0,.08,0,.14.02.18,0,.01,0,.02,0,.03,0,.02-.01.04-.08.11-.11.1-.19.15-.33.23-.03.02-.05.03-.07.05-.01,0-.02.01-.04.01-.02,0-.07-.04-.11-.07-.03-.03-.04-.05-.04-.07,0,0,0-.01,0-.03.01-.03.01-.06.01-.14V.27Z"/>
        <path class="cls-2" d="M2.87.57s-.03,0-.03,0-.01,0-.01,0h-.01s-.03,0-.03-.03c0-.04-.01-.09-.01-.15.07,0,.08,0,.23.01.2,0,.31,0,.36,0,.25,0,.54,0,.59,0h.01s.02,0,.02.1c0,.07,0,.07-.02.07h-.01c-.07,0-.1,0-.45,0,0,.11-.01.16-.03.23-.05.17-.13.29-.29.38-.04.03-.07.04-.09.04,0,0-.01,0-.03-.02-.05-.05-.07-.07-.13-.1.26-.12.36-.27.37-.54-.24,0-.33,0-.44,0ZM3.4.07c.14,0,.3,0,.36-.01h0s.03.01.03.06v.03s0,.02,0,.04c0,.04,0,.04-.03.04h-.02s-.32,0-.38,0c-.18,0-.31,0-.36,0,0,0,0,0-.01,0-.02,0-.02,0-.03-.02,0-.03-.01-.1-.01-.16.06,0,.26.01.44.01Z"/>
        <path class="cls-2" d="M4.59.75c-.12.08-.27.16-.3.16t-.04-.03s-.06-.06-.09-.08c.2-.06.39-.18.57-.34.07-.06.1-.1.15-.16.08.05.14.11.14.13,0,0,0,.01-.02.02-.02,0-.03.02-.08.06-.03.03-.09.08-.16.13v.24c0,.13,0,.26,0,.33v.02s-.02.03-.11.03c-.06,0-.07,0-.07-.02h0s0-.03,0-.04c0-.04,0-.17,0-.31v-.12Z"/>
        <path class="cls-2" d="M5.89.52c.27,0,.43,0,.58-.01h.02s.04,0,.04.12c0,.06,0,.07-.03.07h0c-.1,0-.15,0-.59,0-.16,0-.24,0-.38,0h-.04s-.06,0-.08,0c0,0-.01,0-.02,0-.02,0-.03,0-.03-.02,0-.04-.01-.11-.01-.18.12.01.23.02.54.02Z"/>
        <path class="cls-2" d="M7.09.84c.15.03.33.08.5.14.13.05.15.06.15.08,0,.02-.02.09-.04.13-.01.03-.02.04-.03.04t-.16-.07c-.15-.07-.42-.14-.59-.17-.06,0-.06,0-.06-.03,0-.02.02-.08.04-.12,0-.02.02-.03.03-.03,0,0,.12.02.17.03ZM7.58.33c-.08-.04-.2-.08-.29-.1-.09-.02-.25-.06-.3-.06-.02,0-.03,0-.03-.02,0-.02.02-.1.03-.13,0-.01.01-.02.03-.02,0,0,.01,0,.02,0,0,0,.02,0,.04,0,.16.02.34.07.48.11.09.03.1.04.1.06,0,.01-.02.1-.03.14,0,.02-.01.02-.03.02,0,0,0,0-.02,0ZM7.46.51c.08.03.09.04.09.06,0,.01-.02.1-.03.13,0,.02-.01.02-.02.02,0,0,0,0-.02,0-.06-.03-.12-.05-.19-.08-.09-.03-.23-.06-.29-.07-.03,0-.03,0-.03-.02,0-.02.02-.11.04-.14,0,0,.01-.01.02-.01.05,0,.33.07.44.11Z"/>
        <path class="cls-2" d="M9.1.89c.1.09.15.15.15.17,0,.01-.02.04-.07.08-.03.03-.05.04-.06.04,0,0-.01,0-.02-.01t-.09-.1c-.08-.09-.19-.19-.33-.29-.1.1-.23.22-.34.29-.08.06-.17.1-.18.1-.01,0-.02,0-.05-.04-.02-.02-.06-.05-.09-.08.17-.08.3-.17.44-.3.15-.14.26-.27.38-.48q-.51,0-.59.01s-.02,0-.02,0c-.02,0-.03,0-.03-.02,0-.05-.01-.09-.01-.17.1.01.26.02.48.02.09,0,.18,0,.23,0,.02,0,.02,0,.05-.01,0,0,0,0,.02,0,.03,0,.05.02.09.07.03.04.04.07.04.09,0,.02,0,.02-.04.06-.02.02-.03.04-.08.11-.04.08-.11.17-.17.24.12.08.2.14.29.23Z"/>
        <path class="cls-2" d="M9.86.76c0,.09,0,.34,0,.41h0s0,.03-.01.04c-.01,0-.07.02-.13.02-.05,0-.06,0-.06-.03h0s0-.48,0-.66c0-.35,0-.44-.02-.53.11,0,.16.01.2.02.01,0,.02.01.02.02t0,.03s0,.04-.01.06c0,0,0,.09,0,.27q.11.03.17.05c.15.05.24.09.37.16.01,0,.02.02.02.03,0,.01-.03.09-.05.13-.01.03-.02.03-.03.03,0,0-.01,0-.02-.01-.15-.1-.3-.17-.46-.21v.17Z"/>
      </g>
    </g>
  </g>
</svg>