<?xml version="1.0" encoding="UTF-8"?>
<svg id="_レイヤー_2" data-name="レイヤー 2" xmlns="http://www.w3.org/2000/svg" viewBox="0 0 17.68 5.37">
  <defs>
    <style>
      .cls-1 {
        stroke: #8c6464;
        stroke-linecap: round;
        stroke-linejoin: round;
        stroke-width: .05px;
      }

      .cls-1, .cls-2 {
        fill: #8c6464;
      }

      .cls-2 {
        stroke-width: 0px;
      }
    </style>
  </defs>
  <g id="lay">
    <g>
      <g>
        <path class="cls-1" d="M.13,4.53v-1.91c0-.08-.03-.12-.1-.2h.63c.79,0,1.34.39,1.34,1.15s-.54,1.15-1.34,1.15H.03c.08-.08.1-.12.1-.2ZM.58,4.68c.73,0,1.23-.38,1.23-1.11s-.5-1.11-1.23-1.11h-.27v2.21h.27Z"/>
        <path class="cls-1" d="M3.15,4.73v-.38c-.07.18-.2.4-.47.4-.32,0-.43-.28-.43-.56,0-.2.06-.64.47-.64.25,0,.36.14.43.27v-.25c0-.18,0-.57-.25-.57-.19,0-.37.23-.51.48h-.04l.1-.39c.07-.04.19-.14.41-.14.31,0,.46.2.46.54v1.03c0,.08.03.12.1.2h-.28ZM3.15,3.88c-.07-.14-.19-.3-.35-.3-.27,0-.37.43-.37.65s.12.49.31.49.35-.28.41-.46v-.37Z"/>
        <path class="cls-1" d="M4.45,3.02h-.22c-.28,0-.4.09-.48.36h-.03l.03-.4h.9v.04l-.8,1.67h.34c.28,0,.4-.09.48-.36h.04l-.04.4h-1.02v-.04l.8-1.67Z"/>
        <path class="cls-1" d="M5.78,3.02h-.22c-.28,0-.4.09-.48.36h-.03l.03-.4h.9v.04l-.8,1.67h.34c.28,0,.4-.09.48-.36h.04l-.04.4h-1.02v-.04l.8-1.67Z"/>
        <path class="cls-1" d="M6.43,4.53v-1.91c0-.11-.03-.14-.07-.14-.03,0-.07.03-.1.05v-.03c.08-.08.2-.19.27-.19.06,0,.07.05.07.2v2.03c0,.08.03.12.1.2h-.38c.08-.08.1-.12.1-.2Z"/>
        <path class="cls-1" d="M8.16,3.57c.31.07.54.24.54.55,0,.35-.3.63-.78.63-.54,0-.97-.34-.97-.9s.42-.9.92-.9c.4,0,.69.23.81.62h-.53ZM7.17,3.57c-.02.09-.04.18-.04.28,0,.53.35.85.82.85.38,0,.71-.22.71-.58,0-.33-.29-.5-.64-.55h-.86ZM8.5,3.54c-.1-.34-.33-.54-.62-.54-.31,0-.59.2-.69.54h1.32Z"/>
        <path class="cls-1" d="M10.19,4.53v-1.91c0-.08-.03-.12-.1-.2h.42c.58,0,.78.18.78.45,0,.33-.32.43-.65.47.45.05.86.15.86.67,0,.44-.23.72-.99.72h-.42c.08-.08.1-.12.1-.2ZM10.45,3.32c.27,0,.66-.1.66-.45,0-.24-.16-.4-.67-.4h-.07v.85h.08ZM10.43,4.68c.69,0,.88-.31.88-.67,0-.49-.49-.65-.87-.65h-.08v1.32h.07Z"/>
        <path class="cls-1" d="M12.99,3.57c.31.07.54.24.54.55,0,.35-.3.63-.78.63-.54,0-.97-.34-.97-.9s.42-.9.92-.9c.4,0,.69.23.81.62h-.53ZM12,3.57c-.02.09-.04.18-.04.28,0,.53.35.85.82.85.38,0,.71-.22.71-.58,0-.33-.29-.5-.64-.55h-.86ZM13.33,3.54c-.1-.34-.33-.54-.62-.54-.31,0-.59.2-.69.54h1.32Z"/>
        <path class="cls-1" d="M13.92,4.53v-1.25c0-.11-.03-.14-.07-.14-.03,0-.07.03-.1.05v-.03c.08-.08.2-.19.27-.19.05,0,.07.05.07.2v1.37c0,.08.03.12.1.2h-.38c.08-.08.1-.12.1-.2ZM13.97,2.4c.09,0,.15.05.15.14s-.06.14-.15.14-.15-.05-.15-.14.06-.14.15-.14Z"/>
        <path class="cls-1" d="M14.8,4.16c-.06.03-.1.1-.1.16,0,.31,1.07.04,1.07.59,0,.33-.36.43-.65.43-.25,0-.68-.07-.68-.41,0-.17.11-.28.27-.35-.07-.05-.1-.12-.1-.2,0-.12.07-.18.17-.23-.21-.12-.28-.35-.28-.56,0-.35.18-.63.58-.63.16,0,.31.05.42.17l.24-.24h.03v.15l-.26.12c.1.12.13.29.13.44,0,.35-.18.63-.57.63-.09,0-.19-.01-.27-.06ZM14.61,4.91c0,.28.27.39.5.39.19,0,.58-.09.58-.31,0-.28-.72-.27-.94-.38-.08.08-.14.18-.14.3ZM15.46,3.59c0-.24-.08-.6-.39-.6s-.4.36-.4.6.08.59.4.59.39-.36.39-.59Z"/>
        <path class="cls-1" d="M17.11,3.57c.31.07.54.24.54.55,0,.35-.3.63-.78.63-.54,0-.97-.34-.97-.9s.42-.9.92-.9c.4,0,.69.23.81.62h-.53ZM16.12,3.57c-.02.09-.04.18-.04.28,0,.53.35.85.82.85.38,0,.71-.22.71-.58,0-.33-.29-.5-.64-.55h-.86ZM17.45,3.54c-.1-.34-.33-.54-.62-.54-.31,0-.59.2-.69.54h1.32Z"/>
      </g>
      <g>
        <path class="cls-2" d="M.23.71s-.07.05-.08.05-.01,0-.04-.03c-.03-.03-.06-.05-.11-.08.16-.1.26-.18.35-.31.06-.09.11-.18.13-.26.16.06.2.08.2.1,0,0,0,.01-.02.02-.01.01-.03.04-.08.1h.03c.05,0,.09,0,.1,0,.15,0,.18,0,.23-.02.01,0,.02,0,.03,0,.02,0,.04.02.09.07.04.04.05.06.05.08,0,.01,0,.02-.02.04-.01.01-.03.04-.05.08-.14.26-.25.4-.42.55-.13.12-.34.26-.39.26-.01,0-.03,0-.04-.02-.04-.04-.08-.07-.13-.09.21-.1.37-.21.51-.36t-.04-.04s-.07-.06-.14-.12c0,0-.01-.01-.01-.02,0,0,.02-.03.07-.08.03-.03.03-.03.04-.03.02,0,.11.07.2.16.09-.12.15-.23.19-.32q-.17,0-.39,0c-.07.09-.16.18-.26.26ZM1.22.32s-.05.04-.06.04,0,0-.04-.04c-.02-.04-.06-.09-.09-.12,0,0,0,0,0-.01,0-.01.06-.05.07-.05.01,0,.03.01.08.07.04.05.07.09.07.1s0,.02-.02.03ZM1.28.25c-.04-.06-.07-.1-.11-.14,0,0,0,0,0-.01,0,0,0-.02.03-.03.02-.02.03-.02.04-.02.02,0,.06.04.11.1.02.03.04.05.04.06,0,0,0,.02-.02.03-.02.02-.05.03-.06.03,0,0-.01,0-.02-.02Z"/>
        <path class="cls-2" d="M2.5,1c.1.09.15.15.15.17,0,.01-.02.04-.07.08-.03.03-.05.04-.06.04,0,0-.01,0-.02-.01t-.08-.1c-.08-.09-.2-.19-.33-.28-.1.1-.23.22-.34.29-.09.06-.17.1-.18.1-.01,0-.02,0-.05-.04-.02-.02-.06-.05-.09-.08.17-.08.3-.17.44-.3.15-.14.26-.27.38-.48q-.51,0-.59.01s-.02,0-.02,0c-.02,0-.03,0-.03-.02,0-.05-.01-.09-.01-.17.1.01.26.02.48.02.09,0,.18,0,.23,0,.02,0,.02,0,.05-.01,0,0,0,0,.02,0,.03,0,.05.02.09.07.03.04.04.07.04.09s0,.02-.04.06c-.02.02-.03.04-.08.11-.04.08-.11.17-.17.24.12.08.2.14.29.22ZM2.58.32c-.04-.06-.06-.1-.11-.15t0-.01s0-.02.03-.04c.02-.02.03-.02.04-.02.01,0,.03.01.06.05.05.05.08.1.08.11,0,.02-.07.07-.09.07,0,0,0,0-.01-.01ZM2.79.21s-.02.02-.03.02c0,0,0,0,0,0t0,0s0,0-.02-.02c-.04-.07-.08-.11-.11-.15t0-.01S2.68,0,2.69,0c.01,0,.01,0,.03.02.03.02.08.08.1.12,0,0,0,.01.01.03,0,0-.02.03-.05.04Z"/>
        <path class="cls-2" d="M3.33.24s.02.01.02.03c0,0,0,0,0,.02,0,.03-.01.06-.01.12,0,.37-.07.6-.23.8-.04.04-.05.06-.06.06,0,0-.01,0-.03,0-.04-.03-.08-.04-.15-.05.1-.1.14-.16.19-.26.06-.14.09-.28.09-.5,0-.1,0-.14-.01-.22.08,0,.15.01.19.02ZM3.49.38c0-.07,0-.13-.01-.2.16,0,.22.02.22.05,0,0,0,.01,0,.03,0,0,0,.03,0,.06t0,.7c.19-.11.32-.21.44-.37,0,.08,0,.14.02.18,0,.01,0,.02,0,.03,0,.02-.01.04-.08.11-.11.1-.19.15-.33.23-.03.02-.05.03-.07.05-.01,0-.02.01-.04.01-.02,0-.07-.04-.11-.07-.03-.03-.04-.05-.04-.07,0,0,0-.01,0-.03.01-.03.01-.06.01-.14V.38Z"/>
        <path class="cls-2" d="M4.65.52c.08-.08.09-.1.12-.12.03-.02.06-.03.09-.03.04,0,.07,0,.11.03t.12.11c.1.1.23.22.34.31.07.06.12.09.22.15.01,0,.02.02.02.03,0,.01-.01.04-.04.09-.03.06-.05.08-.07.08,0,0-.01,0-.02,0-.19-.13-.37-.29-.57-.51-.08-.08-.08-.08-.1-.08-.02,0-.03,0-.04.02-.01.02-.11.14-.16.2-.04.05-.04.05-.07.09-.02.02-.03.03-.04.04-.01.02-.02.02-.03.02-.02,0-.05-.02-.08-.06-.02-.03-.04-.04-.07-.1.07-.05.13-.1.28-.28ZM5.31.53c-.03-.06-.06-.1-.11-.15,0,0,0-.01,0-.01,0,0,0-.02.04-.04.02-.02.03-.02.04-.02.01,0,.03.01.06.05.05.05.08.1.08.11,0,0,0,.02-.02.03-.03.03-.05.04-.07.04,0,0,0,0-.01-.01ZM5.52.42s-.02.02-.03.02t0,0s0,0,0,0c0,0,0,0-.01-.01-.04-.07-.07-.11-.11-.15,0,0,0,0,0-.01,0,0,.01-.01.02-.02.02-.02.05-.03.05-.03t.04.02s.11.13.11.14c0,0-.02.02-.04.04Z"/>
        <path class="cls-2" d="M6.49.63c.27,0,.43,0,.58-.01h.02s.04,0,.04.12c0,.06,0,.07-.03.07h0c-.1,0-.15,0-.59,0-.16,0-.24,0-.38,0h-.04s-.06,0-.08,0c0,0-.01,0-.02,0-.02,0-.03,0-.03-.02,0-.04-.01-.11-.01-.18.12.01.23.02.54.02Z"/>
        <path class="cls-2" d="M7.79.76s-.03.04-.04.04t-.08-.04c-.05-.03-.12-.07-.23-.1-.02,0-.03-.01-.03-.03,0,0,.01-.03.04-.07,0-.01.01-.02.01-.03.02-.03.02-.04.04-.04.03,0,.14.04.22.08.05.02.1.06.11.06,0,0,0,.01,0,.02,0,.02-.02.06-.06.11ZM8.56.58s0,.02,0,.03c0,.02,0,.03-.04.06-.12.14-.25.25-.41.35-.13.09-.28.17-.43.23-.04.02-.06.03-.07.04-.01.01-.02.01-.03.01-.03,0-.08-.08-.12-.2.15-.03.32-.1.49-.2.11-.06.24-.16.33-.25.08-.08.13-.13.22-.25,0,.07.02.09.05.17ZM7.94.46s-.03.03-.04.03c0,0-.01,0-.02-.01-.09-.08-.18-.14-.28-.18-.01,0-.02-.01-.02-.02,0,0,0-.01,0-.02.07-.11.07-.11.09-.11.03,0,.16.06.24.12.07.05.09.06.09.08,0,.02-.04.08-.07.12ZM8.43.36c-.03-.06-.06-.1-.11-.15,0,0,0-.01,0-.01,0,0,0-.02.03-.04.02-.02.03-.02.04-.02.01,0,.03.01.06.05.05.05.08.1.08.11,0,.02-.07.07-.09.07,0,0,0,0-.01-.01ZM8.64.25s-.03.02-.04.02c0,0,0,0-.02-.01-.04-.07-.07-.1-.11-.15,0,0,0,0,0-.01,0-.01.06-.06.08-.06.01,0,.03.02.06.05.04.05.08.1.08.11,0,.01-.01.02-.04.04Z"/>
        <path class="cls-2" d="M9.12.71c-.05,0-.09,0-.12,0,0,0,0,0-.01,0-.01,0-.02,0-.03-.02,0-.03-.01-.08-.01-.15.05.01.14.02.31.02.14,0,.15,0,.18-.01,0,0,.01,0,.02,0,.03,0,.05.01.09.05.03.03.05.06.05.07,0,0,0,.01-.01.03t-.04.17c-.02.12-.03.17-.04.22t0,0c.13,0,.16,0,.22,0h0s.03.01.03.09c0,.06,0,.07-.02.07,0,0-.01,0-.07,0-.05,0-.21,0-.35,0-.23,0-.41,0-.47.01h-.01s-.03,0-.04-.02c0-.02-.01-.06-.02-.15.11,0,.15.01.56.01,0-.01,0-.01,0-.03.02-.09.04-.22.05-.35h-.26Z"/>
      </g>
    </g>
  </g>
</svg>