<?xml version="1.0" encoding="UTF-8"?>
<svg id="_レイヤー_2" data-name="レイヤー 2" xmlns="http://www.w3.org/2000/svg" viewBox="0 0 16.96 4.69">
  <defs>
    <style>
      .cls-1 {
        stroke: #8c6464;
        stroke-linecap: round;
        stroke-linejoin: round;
        stroke-width: .05px;
      }

      .cls-1, .cls-2 {
        fill: #8c6464;
      }

      .cls-2 {
        stroke-width: 0px;
      }
    </style>
  </defs>
  <g id="lay">
    <g>
      <g>
        <path class="cls-1" d="M.13,4.45v-1.91c0-.08-.03-.12-.1-.2h.4c.39,0,.78.11.78.57s-.38.57-.78.57h-.11v.87c0,.15.1.22.17.3H.03c.08-.08.1-.12.1-.2ZM.42,3.44c.33,0,.6-.1.6-.52s-.27-.53-.6-.53h-.11v1.05h.11Z"/>
        <path class="cls-1" d="M2.5,3.49c.31.07.54.24.54.55,0,.35-.3.63-.78.63-.54,0-.97-.34-.97-.9s.42-.9.92-.9c.4,0,.69.23.81.62h-.53ZM1.52,3.49c-.02.09-.04.18-.04.28,0,.53.35.85.82.85.38,0,.71-.22.71-.58,0-.33-.29-.5-.64-.55h-.86ZM2.84,3.45c-.1-.34-.33-.54-.62-.54-.31,0-.59.2-.69.54h1.32Z"/>
        <path class="cls-1" d="M4.23,4.64v-.38c-.07.18-.2.4-.47.4-.32,0-.43-.28-.43-.56,0-.2.06-.64.47-.64.25,0,.36.14.43.27v-.25c0-.18,0-.57-.25-.57-.19,0-.37.23-.51.48h-.04l.1-.39c.07-.04.19-.14.41-.14.31,0,.46.2.46.54v1.03c0,.08.03.12.1.2h-.28ZM4.23,3.8c-.07-.14-.19-.3-.35-.3-.27,0-.37.43-.37.65s.12.49.31.49.35-.28.41-.46v-.37Z"/>
        <path class="cls-1" d="M5.63,2.87c.35,0,.58.16.63.2l.03.42h-.03c-.07-.28-.21-.58-.62-.58-.43,0-.75.33-.75.86s.3.86.77.86.6-.3.68-.58h.03l-.03.42s-.3.2-.68.2c-.55,0-.94-.34-.94-.9s.41-.9.92-.9Z"/>
        <path class="cls-1" d="M6.71,4.45v-1.79c0-.33.16-.44.33-.44.29,0,.35.38.14.73.06-.04.12-.07.2-.07.18,0,.34.14.34.48v1.09c0,.08.03.12.1.2h-.38c.08-.08.1-.12.1-.2v-.93c0-.28-.02-.6-.22-.6-.21,0-.37.35-.45.59v.93c0,.08.03.12.1.2h-.38c.08-.08.1-.12.1-.2ZM7.09,3.02c.29-.41.19-.76-.03-.76-.18,0-.18.25-.18.52v.66c.04-.14.11-.31.21-.42Z"/>
        <path class="cls-1" d="M9.17,3.49c0-.73.54-1.18,1.23-1.18.49,0,.75.28.82.33l.04.51h-.04c-.1-.31-.33-.79-.84-.79s-1.03.44-1.03,1.13.5,1.13,1.03,1.13c.55,0,.85-.48.95-.79h.03l-.04.51c-.06.05-.38.33-.92.33-.68,0-1.22-.45-1.22-1.18Z"/>
        <path class="cls-1" d="M12.63,3.08l.04.52h-.04c-.07-.38-.18-.67-.32-.67-.16,0-.29.42-.36.73v.79c0,.08.03.12.1.2h-.38c.08-.08.1-.12.1-.2v-1.25c0-.11-.03-.14-.07-.14-.03,0-.07.03-.1.05v-.03c.08-.08.2-.19.27-.19.06,0,.07.05.07.2v.42c.07-.31.19-.63.38-.63.12,0,.25.13.29.2Z"/>
        <path class="cls-1" d="M13.98,3.1v1.35c0,.08.03.12.1.2h-.28v-.54c-.08.24-.22.57-.5.57-.18,0-.34-.14-.34-.48v-1.09c0-.08-.03-.12-.1-.2h.38c-.08.08-.1.12-.1.2v.93c0,.28.02.6.22.6.21,0,.37-.35.45-.59v-.93c0-.08-.03-.12-.1-.2h.38c-.08.08-.1.12-.1.2Z"/>
        <path class="cls-1" d="M15.34,3.08l.04.42h-.04c-.07-.28-.2-.58-.45-.58-.17,0-.28.15-.28.32,0,.45.86.53.86,1.04,0,.27-.23.4-.52.4-.34,0-.49-.16-.54-.2l-.07-.46h.03c.11.28.33.62.6.62.18,0,.32-.15.32-.33,0-.43-.85-.51-.85-1.03,0-.25.2-.39.45-.39.29,0,.41.16.45.2Z"/>
        <path class="cls-1" d="M15.82,4.45v-1.79c0-.33.16-.44.33-.44.29,0,.35.38.14.73.06-.04.12-.07.2-.07.18,0,.34.14.34.48v1.09c0,.08.03.12.1.2h-.38c.08-.08.1-.12.1-.2v-.93c0-.28-.02-.6-.22-.6-.21,0-.37.35-.45.59v.93c0,.08.03.12.1.2h-.38c.08-.08.1-.12.1-.2ZM16.2,3.02c.29-.41.19-.76-.03-.76-.18,0-.18.25-.18.52v.66c.04-.14.11-.31.21-.42Z"/>
      </g>
      <g>
        <path class="cls-2" d="M.34.95s.09.05.24.05.21,0,.42-.03c0,0,0,0,.01,0,.01,0,.02,0,.03.02,0,.02.01.1.01.12,0,.02,0,.03-.03.04-.05.01-.26.02-.43.02s-.26-.01-.33-.04c-.05-.03-.09-.07-.1-.12,0-.04-.01-.07-.01-.13v-.06c0-.16,0-.18,0-.28,0-.26,0-.35-.02-.42.18.02.22.02.22.05,0,0,0,.01,0,.03,0,.01,0,.03-.01.06,0,.04,0,.08,0,.16,0,.06,0,.1,0,.12.26-.08.47-.18.56-.28.07.09.12.16.12.18,0,.01,0,.02-.04.03-.02,0-.06.02-.12.05-.18.09-.32.14-.52.19,0,.19,0,.22.01.24ZM1.26.16c0,.09-.07.16-.16.16s-.16-.07-.16-.16.07-.16.16-.16.16.07.16.16ZM1.02.16s.04.08.08.08.08-.04.08-.08-.04-.08-.08-.08-.08.04-.08.08Z"/>
        <path class="cls-2" d="M1.85.55c.27,0,.43,0,.58-.01h.02s.04,0,.04.12c0,.06,0,.07-.03.07h0c-.1,0-.15,0-.59,0-.16,0-.24,0-.38,0h-.04s-.06,0-.08,0c0,0-.01,0-.02,0-.02,0-.03,0-.03-.02,0-.04-.01-.11-.01-.18.12.01.23.02.54.02Z"/>
        <path class="cls-2" d="M3.36.53s0-.06,0-.11c0-.01,0-.05,0-.12-.11.02-.29.05-.33.05-.01,0-.03,0-.03-.03,0-.02-.03-.06-.05-.08,0,0-.01-.01-.04-.04.2,0,.39-.03.58-.09.08-.03.14-.05.21-.09.07.06.12.13.12.15,0,.01,0,.02-.03.02-.03,0-.05,0-.08.02-.08.03-.09.03-.17.05,0,.06,0,.07,0,.15v.13c.22,0,.39,0,.44-.01,0,0,.01,0,.01,0,.02,0,.02.02.02.08,0,.1,0,.1-.02.1,0,0-.05,0-.07,0-.06,0-.15,0-.39,0-.02.15-.06.28-.13.38-.04.07-.12.15-.17.19,0,0-.02,0-.02,0t-.06-.03s-.07-.03-.12-.05c.11-.06.18-.13.24-.23.04-.08.08-.17.09-.26-.28,0-.39,0-.46.02-.02,0-.02,0-.03,0-.01,0-.02,0-.02-.02-.01-.03-.02-.1-.02-.17.06,0,.16.01.35.01h.19Z"/>
        <path class="cls-2" d="M4.77.38c-.1.14-.28.3-.32.3-.01,0-.02,0-.05-.03-.02-.02-.06-.05-.11-.07.11-.06.22-.15.3-.25.09-.1.14-.19.19-.32.07.02.11.04.16.07.02.01.03.02.03.03,0,.01,0,.02-.02.03-.01.01-.03.03-.07.08h.22c.08,0,.1,0,.14-.02,0,0,.01,0,.02,0,.02,0,.05.02.09.08.03.04.04.05.04.07s0,.02-.03.04c-.01.01-.03.04-.05.07-.16.29-.32.48-.56.66-.1.08-.24.16-.27.16-.01,0-.02,0-.04-.02-.03-.03-.07-.06-.12-.09.22-.1.37-.21.52-.36.11-.11.18-.21.25-.33.01-.03.02-.04.05-.09h-.38Z"/>
        <path class="cls-2" d="M5.74.59s0,0-.01,0c-.03,0-.05-.05-.06-.21.07.01.18.02.46.02.3,0,.38,0,.41,0,.02,0,.03,0,.06-.01.01,0,.02,0,.03,0,.02,0,.04.01.06.04.04.05.07.09.07.11,0,.02,0,.03-.03.05-.01.01-.02.02-.05.09-.1.22-.21.36-.39.47-.08.05-.21.11-.24.11-.02,0-.03,0-.06-.04-.04-.05-.06-.06-.1-.08.17-.05.33-.14.44-.24.08-.08.15-.19.19-.32-.57,0-.67.01-.78.03ZM6.23.06q.16,0,.33-.01h.02s.03.02.03.06c0,.02,0,.03,0,.05h0c0,.06,0,.07-.03.07,0,0-.02,0-.03,0-.03,0-.14,0-.19,0-.22,0-.39,0-.47.01h-.01s-.04-.02-.05-.19c.1.01.19.02.41.02Z"/>
        <path class="cls-2" d="M7.21.74c-.02-.06-.07-.15-.09-.18-.03-.05-.04-.05-.04-.06,0-.01.02-.03.06-.05.05-.03.05-.03.06-.03.01,0,.02,0,.04.04.05.06.12.2.12.22,0,.01-.01.02-.04.04-.04.02-.08.04-.09.04-.01,0-.01,0-.02-.03ZM8.03.49s0,.01,0,.02c-.01.02-.02.03-.04.08-.11.24-.18.35-.3.47-.09.09-.23.19-.26.19,0,0-.02,0-.03-.01-.03-.03-.07-.06-.12-.09.23-.12.35-.24.46-.44.06-.11.1-.23.1-.31.12.03.19.07.19.09ZM7.48.67c-.02-.06-.06-.15-.11-.23,0,0,0,0,0-.02,0-.01.01-.02.06-.04.06-.03.06-.03.07-.03.01,0,.02,0,.04.04.05.08.11.2.11.22,0,0,0,.02-.03.03-.03.02-.09.05-.1.05,0,0-.01,0-.02-.02Z"/>
        <path class="cls-2" d="M8.72.67s-.03.04-.04.04t-.08-.04c-.05-.03-.12-.07-.23-.1-.02,0-.03-.01-.03-.03,0,0,.01-.03.04-.07,0-.01.01-.02.01-.03.02-.03.02-.04.04-.04.03,0,.14.04.22.08.05.02.1.06.11.06,0,0,0,.01,0,.02,0,.02-.02.06-.06.11ZM9.49.5s0,.02,0,.03c0,.02,0,.03-.04.06-.12.14-.25.25-.41.35-.13.09-.28.17-.43.23-.04.02-.06.03-.07.04-.01.01-.02.01-.03.01-.03,0-.08-.08-.12-.2.15-.03.32-.1.49-.2.11-.06.24-.16.33-.25.08-.08.13-.13.22-.25,0,.07.02.09.05.17ZM8.86.38s-.03.03-.04.03c0,0-.01,0-.02-.01-.09-.08-.18-.14-.28-.18-.01,0-.02-.01-.02-.02,0,0,0-.01,0-.02.07-.11.07-.11.09-.11.03,0,.16.06.24.12.07.05.09.06.09.08,0,.02-.04.08-.07.12Z"/>
        <path class="cls-2" d="M10.04.63c-.05,0-.09,0-.12,0,0,0,0,0-.01,0-.01,0-.02,0-.03-.02,0-.03-.01-.08-.01-.15.05.01.14.02.31.02.14,0,.15,0,.18-.01,0,0,.01,0,.02,0,.03,0,.05.01.09.05.03.03.05.06.05.07,0,0,0,.01-.01.03t-.04.17c-.02.12-.03.17-.04.22t0,0c.13,0,.16,0,.22,0h0s.03.01.03.09c0,.06,0,.07-.02.07,0,0-.01,0-.07,0-.05,0-.21,0-.35,0-.23,0-.41,0-.47.01h-.01s-.03,0-.04-.02c0-.02-.01-.06-.02-.15.11,0,.15.01.56.01,0-.01,0-.01,0-.03.02-.09.04-.22.05-.35h-.26Z"/>
      </g>
    </g>
  </g>
</svg>