<?xml version="1.0" encoding="UTF-8"?>
<svg id="_レイヤー_2" data-name="レイヤー 2" xmlns="http://www.w3.org/2000/svg" viewBox="0 0 16.51 5.35">
  <defs>
    <style>
      .cls-1 {
        stroke: #8c6464;
        stroke-linecap: round;
        stroke-linejoin: round;
        stroke-width: .05px;
      }

      .cls-1, .cls-2 {
        fill: #8c6464;
      }

      .cls-2 {
        stroke-width: 0px;
      }
    </style>
  </defs>
  <g id="lay">
    <g>
      <g>
        <path class="cls-1" d="M.13,4.51v-1.91c0-.08-.03-.12-.1-.2h.63c.79,0,1.34.39,1.34,1.15s-.54,1.15-1.34,1.15H.03c.08-.08.1-.12.1-.2ZM.58,4.66c.73,0,1.23-.38,1.23-1.11s-.5-1.11-1.23-1.11h-.27v2.21h.27Z"/>
        <path class="cls-1" d="M3.19,2.94c.54,0,.92.34.92.9s-.38.9-.92.9-.92-.34-.92-.9.38-.9.92-.9ZM3.19,4.69c.43,0,.74-.33.74-.86s-.3-.86-.74-.86-.74.33-.74.86.3.86.74.86Z"/>
        <path class="cls-1" d="M4.46,4.51v-1.91c0-.11-.03-.14-.07-.14-.03,0-.07.03-.1.05v-.03c.08-.08.2-.19.27-.19.06,0,.07.05.07.2v2.03c0,.08.03.12.1.2h-.38c.08-.08.1-.12.1-.2Z"/>
        <path class="cls-1" d="M5.08,4.51v-1.91c0-.11-.03-.14-.07-.14-.03,0-.07.03-.1.05v-.03c.08-.08.2-.19.27-.19.06,0,.07.05.07.2v2.03c0,.08.03.12.1.2h-.38c.08-.08.1-.12.1-.2Z"/>
        <path class="cls-1" d="M5.75,4.51v-1.25c0-.11-.03-.14-.07-.14-.03,0-.07.03-.1.05v-.03c.08-.08.2-.19.27-.19.06,0,.07.05.07.2v1.37c0,.08.03.12.1.2h-.38c.08-.08.1-.12.1-.2ZM5.8,2.38c.09,0,.15.05.15.14s-.06.14-.15.14-.15-.05-.15-.14.06-.14.15-.14Z"/>
        <path class="cls-1" d="M7.29,3.14l.04.42h-.04c-.07-.28-.2-.58-.45-.58-.17,0-.28.15-.28.32,0,.45.86.53.86,1.04,0,.27-.23.4-.52.4-.34,0-.49-.16-.54-.2l-.07-.46h.03c.11.28.33.62.6.62.18,0,.32-.15.32-.33,0-.43-.85-.51-.85-1.03,0-.25.2-.39.45-.39.29,0,.41.16.45.2Z"/>
        <path class="cls-1" d="M7.76,4.51v-1.79c0-.33.16-.44.33-.44.29,0,.35.38.14.73.06-.04.12-.07.2-.07.18,0,.34.14.34.48v1.09c0,.08.03.12.1.2h-.38c.08-.08.1-.12.1-.2v-.93c0-.28-.02-.6-.22-.6-.21,0-.37.35-.45.59v.93c0,.08.03.12.1.2h-.38c.08-.08.1-.12.1-.2ZM8.15,3.08c.29-.41.19-.76-.03-.76-.18,0-.18.25-.18.52v.66c.04-.14.11-.31.21-.42Z"/>
        <path class="cls-1" d="M12.36,4.37c-.12.1-.37.36-.92.36-.68,0-1.22-.45-1.22-1.18s.51-1.18,1.17-1.18c.49,0,.9.27.9.64,0,.17-.08.44-.34.54h.42v.81ZM12.18,3.97c0-.32-.15-.39-.43-.39h-.15v-.04h.29c.33-.12.36-.4.36-.5,0-.42-.44-.64-.83-.64-.53,0-1.01.44-1.01,1.14s.5,1.13,1.06,1.13c.29,0,.53-.1.72-.23v-.48Z"/>
        <path class="cls-1" d="M13.61,3.14l.04.52h-.04c-.07-.38-.18-.67-.32-.67-.16,0-.29.42-.36.73v.79c0,.08.03.12.1.2h-.38c.08-.08.1-.12.1-.2v-1.25c0-.11-.03-.14-.07-.14-.03,0-.07.03-.1.05v-.03c.08-.08.2-.19.27-.19.06,0,.07.05.07.2v.42c.07-.31.19-.63.38-.63.12,0,.25.13.29.2Z"/>
        <path class="cls-1" d="M14.71,4.71v-.38c-.07.18-.2.4-.47.4-.32,0-.43-.28-.43-.56,0-.2.06-.64.47-.64.25,0,.36.14.43.27v-.25c0-.18,0-.57-.25-.57-.19,0-.37.23-.51.48h-.04l.1-.39c.07-.04.19-.14.41-.14.31,0,.46.2.46.54v1.03c0,.08.03.12.1.2h-.28ZM14.71,3.86c-.07-.14-.19-.3-.35-.3-.27,0-.37.43-.37.65s.12.49.31.49.35-.28.41-.46v-.37Z"/>
        <path class="cls-1" d="M16.32,3.16l-.56,1.67c-.07.22-.14.5-.38.5-.15,0-.26-.11-.26-.29,0-.31.34-.36.62-.36l-.54-1.52c-.03-.08-.08-.12-.15-.2h.39c-.08.08-.08.12-.06.2l.46,1.27.42-1.27c.03-.08.02-.12-.04-.2h.25c-.09.08-.13.12-.16.2ZM15.16,5.03c0,.17.1.25.21.25.2,0,.27-.26.34-.46l.04-.12c-.27,0-.59.03-.59.32Z"/>
      </g>
      <g>
        <path class="cls-2" d="M.41.85c0,.09,0,.34,0,.41H.42s0,.03,0,.04c-.01,0-.07.02-.13.02-.05,0-.06,0-.06-.03H.23s0-.48,0-.66c0-.34,0-.44-.02-.53.11,0,.16.01.2.02.02,0,.02.01.02.02t0,.03s0,.04-.01.06c0,0,0,.09,0,.27q.11.03.17.05c.15.05.24.09.37.16.01,0,.02.02.02.03,0,.02-.03.09-.05.13-.01.03-.02.03-.03.03,0,0-.01,0-.02-.01-.15-.1-.3-.17-.45-.21v.17ZM.79.39c-.03-.05-.07-.1-.11-.15,0,0,0,0,0-.01,0,0,0-.02.04-.04.02-.02.03-.02.04-.02.01,0,.03.01.06.05.05.05.08.1.08.11,0,.02-.07.07-.09.07,0,0,0,0-.01-.01ZM1,.28s-.03.02-.04.02c0,0,0,0-.02-.01-.04-.06-.07-.1-.11-.15,0,0,0,0,0-.01,0-.01.06-.05.08-.05,0,0,.02,0,.03.02.05.04.11.13.11.14,0,0-.01.02-.04.04Z"/>
        <path class="cls-2" d="M1.85.61c.27,0,.43,0,.58-.01h.02s.04,0,.04.12c0,.06,0,.07-.03.07h0c-.1,0-.15,0-.59,0-.16,0-.24,0-.38,0h-.04s-.06,0-.08,0c0,0-.01,0-.02,0-.02,0-.03,0-.03-.02,0-.04-.01-.11-.01-.18.12.01.23.02.54.02Z"/>
        <path class="cls-2" d="M3.13.57s0,.1,0,.15c0,.02,0,.03,0,.04,0,.03-.02.04-.14.04-.04,0-.05,0-.05-.03v-.03c0-.12,0-.18,0-.29,0-.17,0-.24-.02-.32.08,0,.15,0,.18.01.02,0,.03.02.03.03,0,0,0,.01,0,.02-.01.03-.01.06-.01.13v.25ZM3.71.37c0,.21-.01.35-.04.46-.05.19-.17.34-.35.44-.04.02-.07.03-.08.03-.01,0-.02,0-.03-.02-.04-.04-.06-.07-.11-.1.1-.04.18-.09.24-.15.08-.08.13-.17.15-.27.02-.09.03-.25.03-.42,0-.12,0-.18-.01-.24.09,0,.14,0,.19.02.02,0,.03.01.03.03,0,0,0,.01,0,.03-.01.03-.01.06-.01.13v.06Z"/>
        <path class="cls-2" d="M4.27.8c-.02-.06-.07-.15-.09-.18-.03-.05-.04-.05-.04-.06,0-.01.02-.03.06-.05.05-.03.05-.03.06-.03.01,0,.02,0,.04.04.05.06.12.2.12.22,0,.01-.01.02-.04.04-.04.02-.08.04-.09.04-.01,0-.01,0-.02-.03ZM5.09.55s0,.01,0,.02c-.01.02-.02.03-.04.08-.11.24-.18.35-.3.47-.09.09-.23.19-.26.19,0,0-.02,0-.03-.01-.03-.03-.07-.06-.12-.09.23-.12.35-.24.46-.44.06-.11.1-.23.1-.31.12.03.19.07.19.09ZM4.55.73c-.02-.06-.06-.15-.11-.23,0,0,0,0,0-.02,0-.01.01-.02.06-.04.06-.03.06-.03.07-.03.01,0,.02,0,.04.04.05.08.11.2.11.22,0,0,0,.02-.03.03-.03.02-.09.05-.1.05,0,0-.01,0-.02-.02Z"/>
        <path class="cls-2" d="M5.78.73s-.03.04-.04.04t-.08-.04c-.05-.03-.12-.07-.23-.1-.02,0-.03-.01-.03-.03,0,0,.01-.03.04-.07,0-.01.01-.02.01-.03.02-.03.02-.04.04-.04.03,0,.14.04.22.08.05.02.1.06.11.06,0,0,0,.01,0,.02,0,.02-.02.06-.06.11ZM6.55.56s0,.02,0,.03c0,.02,0,.03-.04.06-.12.14-.25.25-.41.35-.13.09-.28.17-.43.23-.04.02-.06.03-.07.04-.01.01-.02.01-.03.01-.03,0-.08-.08-.12-.2.15-.03.32-.1.49-.2.11-.06.24-.16.33-.25.08-.08.13-.13.22-.25,0,.07.02.09.05.17ZM5.93.44s-.03.03-.04.03c0,0-.01,0-.02-.01-.09-.08-.18-.14-.28-.18-.01,0-.02-.01-.02-.02,0,0,0-.01,0-.02.07-.11.07-.11.09-.11.03,0,.16.06.24.12.07.05.09.06.09.08,0,.02-.04.08-.07.12Z"/>
        <path class="cls-2" d="M7.1.69c-.05,0-.09,0-.12,0,0,0,0,0-.01,0-.01,0-.02,0-.03-.02,0-.03-.01-.08-.01-.15.05.01.14.02.31.02.14,0,.15,0,.18-.01,0,0,.01,0,.02,0,.03,0,.05.01.09.05.03.03.05.06.05.07,0,0,0,.01-.01.03t-.04.17c-.02.12-.03.17-.04.22t0,0c.13,0,.16,0,.22,0h0s.03.01.03.09c0,.06,0,.07-.02.07,0,0-.01,0-.07,0-.05,0-.21,0-.35,0-.23,0-.41,0-.47.01h-.01s-.03,0-.04-.02c0-.02-.01-.06-.02-.15.11,0,.15.01.56.01,0-.01,0-.01,0-.03.02-.09.04-.22.05-.35h-.26Z"/>
        <path class="cls-2" d="M8.44.45c-.1.14-.28.3-.32.3-.01,0-.02,0-.05-.03-.02-.02-.06-.05-.11-.08.11-.06.22-.15.3-.24.09-.11.14-.19.19-.32.07.02.11.04.16.07.02.01.03.02.03.03,0,.01,0,.02-.02.03-.02.01-.03.03-.07.08h.22c.08,0,.1,0,.14-.02,0,0,.01,0,.02,0,.02,0,.05.02.09.08.03.04.04.05.04.07s0,.02-.03.05c-.01.01-.03.04-.05.07-.16.29-.32.48-.56.65-.1.08-.24.16-.27.16-.01,0-.02,0-.04-.02-.03-.03-.07-.06-.12-.09.22-.1.37-.21.52-.36.11-.11.18-.21.25-.33.01-.03.02-.04.05-.09h-.38ZM9.15.28s-.05.04-.06.04t-.04-.04s-.06-.09-.09-.12c0,0,0,0,0-.01,0-.01.06-.05.07-.05.01,0,.03.01.08.07.04.05.07.09.07.1s0,.02-.02.03ZM9.22.21c-.04-.06-.07-.1-.11-.14,0,0,0,0,0-.01,0,0,0-.02.03-.03.02-.02.03-.02.04-.02.02,0,.06.04.11.1.02.03.03.05.03.06s0,.02-.02.03c-.02.02-.05.03-.06.03,0,0,0,0-.02-.02Z"/>
        <path class="cls-2" d="M9.59.44c0-.1,0-.17-.01-.25.07,0,.14.01.19.02.02,0,.03.01.03.03,0,0,0,.01,0,.03t-.02.72c.22-.07.35-.14.51-.25.09-.06.15-.12.22-.19h0c0,.07,0,.12.02.18,0,.01,0,.02,0,.02,0,.03-.02.05-.1.11-.08.07-.21.15-.31.2-.08.04-.16.08-.27.11-.03.01-.05.02-.07.04-.01.01-.02.02-.04.02-.04,0-.15-.1-.15-.15,0,0,0-.02,0-.03,0-.02,0-.04,0-.1V.44Z"/>
        <path class="cls-2" d="M11.4.61c.27,0,.43,0,.58-.01h.02s.04,0,.04.12c0,.06,0,.07-.03.07h0c-.1,0-.15,0-.59,0-.16,0-.24,0-.38,0h-.04s-.06,0-.08,0c0,0-.01,0-.02,0-.02,0-.03,0-.03-.02,0-.04-.01-.11-.01-.18.12.01.23.02.54.02Z"/>
      </g>
    </g>
  </g>
</svg>