<?xml version="1.0" encoding="UTF-8"?>
<svg id="_レイヤー_2" data-name="レイヤー 2" xmlns="http://www.w3.org/2000/svg" viewBox="0 0 15.31 4.8">
  <defs>
    <style>
      .cls-1 {
        stroke: #8c6464;
        stroke-linecap: round;
        stroke-linejoin: round;
        stroke-width: .05px;
      }

      .cls-1, .cls-2 {
        fill: #8c6464;
      }

      .cls-2 {
        stroke-width: 0px;
      }
    </style>
  </defs>
  <g id="lay">
    <g>
      <g>
        <path class="cls-1" d="M.17,4.55v-1.91c0-.08-.03-.12-.1-.2h.42c.58,0,.78.18.78.45,0,.33-.32.43-.65.47.45.05.86.15.86.67,0,.44-.23.72-.99.72H.06c.08-.08.1-.12.1-.2ZM.42,3.34c.27,0,.66-.1.66-.45,0-.24-.16-.4-.67-.4h-.07v.85h.08ZM.41,4.71c.69,0,.88-.31.88-.67,0-.49-.49-.65-.87-.65h-.08v1.32h.07Z"/>
        <path class="cls-1" d="M2.87,3.2v1.35c0,.08.03.12.1.2h-.28v-.54c-.08.24-.22.57-.5.57-.18,0-.34-.14-.34-.48v-1.09c0-.08-.03-.12-.1-.2h.38c-.08.08-.1.12-.1.2v.93c0,.28.02.6.22.6.21,0,.37-.35.45-.59v-.93c0-.08-.03-.12-.1-.2h.38c-.08.08-.1.12-.1.2Z"/>
        <path class="cls-1" d="M3.27,4.77v-2.13c0-.11-.03-.14-.07-.14-.03,0-.07.03-.1.05v-.03c.08-.08.2-.19.27-.19.05,0,.07.05.07.2v1.06c.06-.27.16-.6.44-.6.35,0,.46.5.46.9s-.06.9-.49.9c-.24,0-.35-.15-.42-.27l-.14.27h-.03ZM3.45,4.44c.07.12.19.29.35.29.29,0,.38-.53.38-.85s-.12-.84-.35-.84c-.21,0-.31.43-.37.72v.69Z"/>
        <path class="cls-1" d="M4.68,4.77v-2.13c0-.11-.03-.14-.07-.14-.03,0-.07.03-.1.05v-.03c.08-.08.2-.19.27-.19.05,0,.07.05.07.2v1.06c.06-.27.16-.6.44-.6.35,0,.46.5.46.9s-.06.9-.49.9c-.24,0-.35-.15-.42-.27l-.14.27h-.03ZM4.86,4.44c.07.12.19.29.35.29.29,0,.38-.53.38-.85s-.12-.84-.35-.84c-.21,0-.31.43-.37.72v.69Z"/>
        <path class="cls-1" d="M6.13,4.55v-1.91c0-.11-.03-.14-.07-.14-.03,0-.07.03-.1.05v-.03c.08-.08.2-.19.27-.19.06,0,.07.05.07.2v2.03c0,.08.03.12.1.2h-.38c.08-.08.1-.12.1-.2Z"/>
        <path class="cls-1" d="M7.86,3.6c.31.07.54.24.54.55,0,.35-.3.63-.78.63-.54,0-.97-.34-.97-.9s.42-.9.92-.9c.4,0,.69.23.81.62h-.53ZM6.87,3.6c-.02.09-.04.18-.04.28,0,.53.35.85.82.85.38,0,.71-.22.71-.58,0-.33-.29-.5-.64-.55h-.86ZM8.2,3.56c-.1-.34-.33-.54-.62-.54-.31,0-.59.2-.69.54h1.32Z"/>
        <path class="cls-1" d="M9.88,4.55v-1.91c0-.08-.03-.12-.1-.2h.42c.58,0,.78.18.78.45,0,.33-.32.43-.65.47.45.05.86.15.86.67,0,.44-.23.72-.99.72h-.42c.08-.08.1-.12.1-.2ZM10.14,3.34c.27,0,.66-.1.66-.45,0-.24-.16-.4-.67-.4h-.07v.85h.08ZM10.13,4.71c.69,0,.88-.31.88-.67,0-.49-.49-.65-.87-.65h-.08v1.32h.07Z"/>
        <path class="cls-1" d="M11.57,4.55v-1.91c0-.11-.03-.14-.07-.14-.03,0-.07.03-.1.05v-.03c.08-.08.2-.19.27-.19.06,0,.07.05.07.2v2.03c0,.08.03.12.1.2h-.38c.08-.08.1-.12.1-.2Z"/>
        <path class="cls-1" d="M13.18,3.2v1.35c0,.08.03.12.1.2h-.28v-.54c-.08.24-.22.57-.5.57-.18,0-.34-.14-.34-.48v-1.09c0-.08-.03-.12-.1-.2h.38c-.08.08-.1.12-.1.2v.93c0,.28.02.6.22.6.21,0,.37-.35.45-.59v-.93c0-.08-.03-.12-.1-.2h.38c-.08.08-.1.12-.1.2Z"/>
        <path class="cls-1" d="M14.74,3.6c.31.07.54.24.54.55,0,.35-.3.63-.78.63-.54,0-.97-.34-.97-.9s.42-.9.92-.9c.4,0,.69.23.81.62h-.53ZM13.75,3.6c-.02.09-.04.18-.04.28,0,.53.35.85.82.85.38,0,.71-.22.71-.58,0-.33-.29-.5-.64-.55h-.86ZM15.08,3.56c-.1-.34-.33-.54-.62-.54-.31,0-.59.2-.69.54h1.32Z"/>
      </g>
      <g>
        <path class="cls-2" d="M.55.43s0,.01-.01.03c-.02.03-.02.05-.04.14-.05.21-.13.39-.23.53-.04.06-.08.09-.09.09,0,0-.01,0-.02,0-.05-.03-.09-.04-.15-.06.14-.12.24-.31.3-.54.02-.08.03-.15.03-.22v-.03c.13.01.22.04.22.07ZM1.11,1.18c-.08-.27-.19-.53-.31-.71-.02-.03-.02-.03-.02-.04,0-.01.01-.02.06-.05.04-.03.07-.04.08-.04.02,0,.02,0,.08.09.07.1.13.24.21.43.05.13.08.23.08.25,0,.02,0,.02-.04.04-.04.02-.1.04-.11.04-.01,0-.02,0-.03-.02ZM1.1.43c-.03-.06-.06-.1-.11-.15,0,0,0-.01,0-.01,0,0,0-.02.04-.04.02-.02.03-.02.04-.02.01,0,.03.01.06.05.05.05.08.1.08.11,0,.02-.07.07-.09.07,0,0,0,0-.01-.01ZM1.31.32s-.03.02-.04.02c0,0,0,0-.01-.01-.04-.07-.06-.1-.11-.15,0,0,0,0,0-.01,0-.01.06-.06.08-.06.01,0,.03.02.06.05.04.05.08.1.08.11,0,.01-.01.02-.04.04Z"/>
        <path class="cls-2" d="M2.09.44c-.27,0-.46.01-.51.02,0,0,0,0,0,0-.03,0-.04-.05-.04-.2.07.01.17.02.39.02.2,0,.44,0,.47,0,.03,0,.04,0,.06-.02,0,0,.01,0,.02,0,.03,0,.06.02.11.08.03.04.03.04.03.06,0,.01,0,.02-.01.03-.01.02-.02.02-.05.13-.08.26-.25.5-.48.68-.09.07-.17.12-.2.12-.02,0-.02,0-.05-.04-.04-.04-.07-.06-.11-.09.22-.11.34-.2.46-.35.1-.13.17-.27.2-.44q-.12,0-.29,0ZM2.74.28s-.05.04-.06.04t-.04-.04s-.06-.09-.09-.12c0,0,0,0,0-.01,0-.01.06-.05.07-.05.01,0,.03.02.08.07.04.05.07.09.07.1s0,.02-.02.03ZM2.8.21c-.04-.06-.07-.1-.11-.14,0,0,0,0,0-.01,0,0,0-.02.03-.03.02-.02.03-.02.04-.02.02,0,.06.04.11.1.02.03.03.05.03.06,0,0,0,.02-.02.03-.02.02-.05.03-.05.03,0,0-.01,0-.02-.02Z"/>
        <path class="cls-2" d="M3.32.26s.02.01.02.03c0,0,0,0,0,.02,0,.03-.01.06-.01.12,0,.37-.07.6-.23.8-.04.04-.05.06-.06.06,0,0-.01,0-.03,0-.04-.03-.08-.04-.15-.05.1-.1.14-.16.19-.26.06-.14.09-.28.09-.5,0-.1,0-.14-.01-.22.08,0,.15.01.19.02ZM3.48.41c0-.07,0-.13-.01-.2.16,0,.22.02.22.05,0,0,0,.01,0,.03,0,0,0,.03,0,.06t0,.7c.19-.11.32-.21.44-.37,0,.08,0,.14.02.18,0,.01,0,.02,0,.03,0,.02-.01.04-.08.11-.11.1-.19.15-.33.23-.03.02-.05.03-.07.05-.01,0-.02.01-.04.01-.02,0-.07-.04-.11-.07-.03-.03-.04-.05-.04-.07,0,0,0-.01,0-.03.01-.03.01-.06.01-.14V.41Z"/>
        <path class="cls-2" d="M4.78.44c-.27,0-.46.01-.51.02,0,0,0,0,0,0-.03,0-.04-.05-.04-.2.07.01.17.02.39.02.2,0,.44,0,.47,0,.03,0,.04,0,.06-.02,0,0,.01,0,.02,0,.03,0,.06.02.11.08.03.04.03.04.03.06,0,.01,0,.02-.01.03-.01.02-.02.02-.05.13-.08.26-.25.5-.48.68-.09.07-.17.12-.2.12-.02,0-.02,0-.05-.04-.04-.04-.07-.06-.11-.09.22-.11.34-.2.46-.35.1-.13.17-.27.2-.44q-.12,0-.29,0ZM5.42.28s-.05.04-.06.04t-.04-.04s-.06-.09-.09-.12c0,0,0,0,0-.01,0-.01.06-.05.07-.05.01,0,.03.02.08.07.04.05.07.09.07.1s0,.02-.02.03ZM5.49.21c-.04-.06-.07-.1-.11-.14,0,0,0,0,0-.01,0,0,0-.02.03-.03.02-.02.03-.02.04-.02.02,0,.06.04.11.1.02.03.03.05.03.06,0,0,0,.02-.02.03-.02.02-.05.03-.05.03,0,0-.01,0-.02-.02Z"/>
        <path class="cls-2" d="M6,.26s.02.01.02.03c0,0,0,0,0,.02,0,.03-.01.06-.01.12,0,.37-.07.6-.23.8-.04.04-.05.06-.06.06,0,0-.01,0-.03,0-.04-.03-.08-.04-.15-.05.1-.1.14-.16.19-.26.06-.14.09-.28.09-.5,0-.1,0-.14-.01-.22.08,0,.15.01.19.02ZM6.17.41c0-.07,0-.13-.01-.2.16,0,.22.02.22.05,0,0,0,.01,0,.03,0,0,0,.03,0,.06t0,.7c.19-.11.32-.21.44-.37,0,.08,0,.14.02.18,0,.01,0,.02,0,.03,0,.02-.01.04-.08.11-.11.1-.19.15-.33.23-.03.02-.05.03-.07.05-.01,0-.02.01-.04.01-.02,0-.07-.04-.11-.07-.03-.03-.04-.05-.04-.07,0,0,0-.01,0-.03.01-.03.01-.06.01-.14V.41Z"/>
        <path class="cls-2" d="M7.67.65c.27,0,.43,0,.58-.01h.02s.04,0,.04.12c0,.06,0,.07-.03.07h0c-.1,0-.15,0-.59,0-.16,0-.24,0-.38,0h-.04s-.06,0-.08,0c0,0-.01,0-.02,0-.02,0-.03,0-.03-.02,0-.04-.01-.11-.01-.18.12.01.23.02.54.02Z"/>
      </g>
    </g>
  </g>
</svg>