<?xml version="1.0" encoding="UTF-8"?>
<svg id="_レイヤー_2" data-name="レイヤー 2" xmlns="http://www.w3.org/2000/svg" viewBox="0 0 18.5 5.32">
  <defs>
    <style>
      .cls-1 {
        stroke: #8c6464;
        stroke-linecap: round;
        stroke-linejoin: round;
        stroke-width: .05px;
      }

      .cls-1, .cls-2 {
        fill: #8c6464;
      }

      .cls-2 {
        stroke-width: 0px;
      }
    </style>
  </defs>
  <g id="lay">
    <g>
      <g>
        <path class="cls-1" d="M.45,4.68c.08-.08.17-.12.17-.3v-1.96h-.01c-.39,0-.5.34-.55.79H.03l.07-.84h1.25l.07.84h-.04c-.06-.45-.17-.79-.55-.79h-.01v1.96c0,.18.1.22.17.3H.45Z"/>
        <path class="cls-1" d="M2.46,4.68v-.38c-.07.18-.2.4-.47.4-.32,0-.43-.28-.43-.56,0-.2.06-.64.47-.64.25,0,.36.14.43.27v-.25c0-.18,0-.57-.25-.57-.19,0-.37.23-.51.48h-.04l.1-.39c.07-.04.19-.14.41-.14.31,0,.46.2.46.54v1.03c0,.08.03.12.1.2h-.28ZM2.46,3.84c-.07-.14-.19-.3-.35-.3-.27,0-.37.43-.37.65s.12.49.31.49.35-.28.41-.46v-.37Z"/>
        <path class="cls-1" d="M3.11,4.48v-1.25c0-.11-.03-.14-.07-.14-.03,0-.07.03-.1.05v-.03c.08-.08.2-.19.27-.19.05,0,.07.05.07.2v.36c.08-.24.22-.57.5-.57.18,0,.34.14.34.48v1.09c0,.08.03.12.1.2h-.38c.08-.08.1-.12.1-.2v-.93c0-.28-.02-.6-.22-.6-.21,0-.37.35-.45.59v.93c0,.08.03.12.1.2h-.38c.08-.08.1-.12.1-.2Z"/>
        <path class="cls-1" d="M4.75,4.12c-.06.03-.1.1-.1.16,0,.31,1.07.04,1.07.59,0,.33-.36.43-.65.43-.25,0-.68-.07-.68-.41,0-.17.11-.28.27-.35-.07-.05-.1-.12-.1-.2,0-.12.07-.18.17-.23-.21-.12-.28-.35-.28-.56,0-.35.18-.63.58-.63.16,0,.31.05.42.17l.24-.24h.03v.15l-.26.12c.1.12.13.29.13.44,0,.35-.18.63-.57.63-.09,0-.19-.01-.27-.06ZM4.56,4.87c0,.28.27.39.5.39.19,0,.58-.09.58-.31,0-.28-.72-.27-.94-.38-.08.08-.14.18-.14.3ZM5.42,3.54c0-.24-.08-.6-.39-.6s-.4.36-.4.6.08.59.4.59.39-.36.39-.59Z"/>
        <path class="cls-1" d="M7.06,3.53c.31.07.54.24.54.55,0,.35-.3.63-.78.63-.54,0-.97-.34-.97-.9s.42-.9.92-.9c.4,0,.69.23.81.62h-.53ZM6.08,3.53c-.02.09-.04.18-.04.28,0,.53.35.85.82.85.38,0,.71-.22.71-.58,0-.33-.29-.5-.64-.55h-.86ZM7.4,3.49c-.1-.34-.33-.54-.62-.54-.31,0-.59.2-.69.54h1.32Z"/>
        <path class="cls-1" d="M8.8,3.11l.04.52h-.04c-.07-.38-.18-.67-.32-.67-.16,0-.29.42-.36.73v.79c0,.08.03.12.1.2h-.38c.08-.08.1-.12.1-.2v-1.25c0-.11-.03-.14-.07-.14-.03,0-.07.03-.1.05v-.03c.08-.08.2-.19.27-.19.05,0,.07.05.07.2v.42c.07-.31.19-.63.38-.63.12,0,.25.13.29.2Z"/>
        <path class="cls-1" d="M9.24,4.48v-1.25c0-.11-.03-.14-.07-.14-.03,0-.07.03-.1.05v-.03c.08-.08.2-.19.27-.19.06,0,.07.05.07.2v1.37c0,.08.03.12.1.2h-.38c.08-.08.1-.12.1-.2ZM9.29,2.35c.09,0,.15.05.15.14s-.06.14-.15.14-.15-.05-.15-.14.06-.14.15-.14Z"/>
        <path class="cls-1" d="M9.91,4.48v-1.25c0-.11-.03-.14-.07-.14-.03,0-.07.03-.1.05v-.03c.08-.08.2-.19.27-.19.05,0,.07.05.07.2v.36c.08-.24.22-.57.5-.57.18,0,.34.14.34.48v1.09c0,.08.03.12.1.2h-.38c.08-.08.1-.12.1-.2v-.93c0-.28-.02-.6-.22-.6-.21,0-.37.35-.45.59v.93c0,.08.03.12.1.2h-.38c.08-.08.1-.12.1-.2Z"/>
        <path class="cls-1" d="M12.45,3.53c.31.07.54.24.54.55,0,.35-.3.63-.78.63-.54,0-.97-.34-.97-.9s.42-.9.92-.9c.4,0,.69.23.81.62h-.53ZM11.46,3.53c-.02.09-.04.18-.04.28,0,.53.35.85.82.85.38,0,.71-.22.71-.58,0-.33-.29-.5-.64-.55h-.86ZM12.79,3.49c-.1-.34-.33-.54-.62-.54-.31,0-.59.2-.69.54h1.32Z"/>
        <path class="cls-1" d="M14.2,4.68c.08-.08.17-.12.17-.3v-1.96h-.01c-.39,0-.5.34-.55.79h-.04l.07-.84h1.25l.07.84h-.04c-.06-.45-.17-.79-.55-.79h-.01v1.96c0,.18.1.22.17.3h-.53Z"/>
        <path class="cls-1" d="M16.47,3.53c.31.07.54.24.54.55,0,.35-.3.63-.78.63-.54,0-.97-.34-.97-.9s.42-.9.92-.9c.4,0,.69.23.81.62h-.53ZM15.48,3.53c-.02.09-.04.18-.04.28,0,.53.35.85.82.85.38,0,.71-.22.71-.58,0-.33-.29-.5-.64-.55h-.86ZM16.81,3.49c-.1-.34-.33-.54-.62-.54-.31,0-.59.2-.69.54h1.32Z"/>
        <path class="cls-1" d="M18.2,4.68v-.38c-.07.18-.2.4-.47.4-.32,0-.43-.28-.43-.56,0-.2.06-.64.47-.64.25,0,.36.14.43.27v-.25c0-.18,0-.57-.25-.57-.19,0-.37.23-.51.48h-.04l.1-.39c.07-.04.19-.14.41-.14.31,0,.46.2.46.54v1.03c0,.08.03.12.1.2h-.28ZM18.2,3.84c-.07-.14-.19-.3-.35-.3-.27,0-.37.43-.37.65s.12.49.31.49.35-.28.41-.46v-.37Z"/>
      </g>
      <g>
        <path class="cls-2" d="M.31.65s-.07.05-.08.05c-.01,0-.01,0-.04-.03-.03-.03-.07-.05-.11-.08.16-.1.26-.18.35-.31.06-.09.11-.18.13-.26.16.06.2.08.2.1,0,0,0,.01-.02.02-.01.01-.03.04-.07.1h.03c.05,0,.09,0,.1,0,.15,0,.18,0,.23-.02.01,0,.02,0,.03,0,.02,0,.04.02.09.07.04.04.05.06.05.08,0,.01,0,.02-.02.04-.01.01-.03.04-.05.08-.14.26-.25.4-.42.55-.13.12-.35.26-.39.26-.01,0-.03,0-.04-.02-.04-.04-.08-.07-.13-.09.21-.1.37-.21.51-.36t-.04-.05s-.07-.06-.14-.12c0,0-.01-.01-.01-.02,0,0,.02-.03.07-.08.03-.03.03-.03.04-.03.02,0,.11.07.2.16.09-.12.16-.23.19-.32q-.17,0-.39,0c-.07.09-.16.18-.26.26Z"/>
        <path class="cls-2" d="M2.58.46s.01.03.01.03c0,.02,0,.03-.03.05-.08.11-.17.19-.3.3-.15.12-.28.19-.46.28-.12.05-.12.06-.14.07-.01.01-.02.02-.03.02-.01,0-.03-.01-.05-.04-.03-.05-.06-.11-.07-.16.15-.03.33-.12.51-.23.23-.15.38-.29.49-.49.02.06.03.09.07.16ZM1.58.21s.04-.04.05-.04c.03,0,.14.07.23.15.06.05.08.07.08.08,0,.01-.03.05-.06.09-.03.04-.05.05-.06.05t-.07-.06s-.12-.1-.16-.12q-.05-.03-.06-.04s0,0,0-.01c0-.01.03-.06.07-.1Z"/>
        <path class="cls-2" d="M3.23.71s-.03.04-.04.04t-.08-.04c-.05-.03-.12-.07-.23-.1-.02,0-.03-.01-.03-.03,0,0,.01-.03.04-.07,0-.01.01-.02.01-.03.02-.03.02-.04.04-.04.03,0,.14.04.22.08.05.02.1.06.11.06,0,0,0,.01,0,.02,0,.02-.02.06-.06.11ZM4.01.54s0,.02,0,.03c0,.02,0,.03-.04.06-.12.14-.25.25-.41.35-.13.09-.28.17-.43.23-.04.02-.06.03-.07.04-.01.01-.02.01-.03.01-.03,0-.08-.08-.12-.2.15-.03.32-.1.49-.2.11-.06.24-.16.33-.25.08-.08.13-.13.22-.25,0,.07.02.09.05.17ZM3.38.42s-.03.03-.04.03c0,0-.01,0-.02-.01-.09-.08-.18-.14-.28-.18-.01,0-.02-.01-.02-.02,0,0,0-.01,0-.02.07-.11.07-.11.09-.11.03,0,.16.06.24.12.07.05.09.06.09.08,0,.02-.04.08-.07.12ZM3.88.32c-.03-.06-.06-.1-.11-.15,0,0,0-.01,0-.01,0,0,0-.02.03-.04.02-.02.03-.02.04-.02.01,0,.03.01.06.05.05.05.08.1.08.11,0,.02-.07.07-.09.07,0,0,0,0-.01-.01ZM4.09.21s-.03.02-.04.02c0,0,0,0-.02-.01-.04-.07-.07-.1-.11-.15,0,0,0,0,0-.01,0-.01.06-.06.08-.06.01,0,.03.02.06.05.04.05.08.1.08.11,0,.01-.01.02-.04.04Z"/>
        <path class="cls-2" d="M4.64.67c-.1,0-.18,0-.25,0-.02,0-.03,0-.03-.02,0-.03,0-.06-.01-.15.07,0,.15.01.31.01.26,0,.32,0,.41-.01,0,0,0,0,.01,0,.01,0,.02,0,.02.02,0,0,0,.06,0,.09,0,.05,0,.06-.03.06h-.01s-.06,0-.06,0h-.2v.39c.26,0,.32,0,.38-.01h0s.02.01.02.1c0,.06,0,.07-.02.07,0,0-.02,0-.06,0-.05,0-.22,0-.35,0-.26,0-.43,0-.5.02h0s-.02,0-.02-.02c-.01-.03-.02-.09-.02-.15.07,0,.11,0,.4,0v-.39Z"/>
        <path class="cls-2" d="M5.77.54s0,.1,0,.15c0,.02,0,.03,0,.04,0,.03-.02.04-.14.04-.04,0-.05,0-.05-.03v-.03c0-.12,0-.18,0-.29,0-.17,0-.24-.02-.32.08,0,.15,0,.18.01.02,0,.03.02.03.03,0,0,0,.01,0,.02-.01.03-.01.06-.01.13v.25ZM6.35.35c0,.21-.01.35-.04.46-.05.19-.17.34-.35.44-.04.02-.07.03-.08.03-.01,0-.02,0-.03-.02-.04-.04-.06-.07-.11-.1.1-.04.18-.09.24-.15.08-.08.13-.17.15-.27.02-.09.03-.25.03-.42,0-.12,0-.18-.01-.24.09,0,.14,0,.19.02.02,0,.03.01.03.03,0,0,0,.01,0,.03-.01.03-.01.06-.01.13v.06Z"/>
        <path class="cls-2" d="M7.81.46s.01.03.01.03c0,.02,0,.03-.03.05-.08.11-.17.19-.3.3-.15.12-.28.19-.46.28-.12.05-.12.06-.14.07-.01.01-.02.02-.03.02-.01,0-.03-.01-.05-.04-.03-.05-.06-.11-.07-.16.15-.03.33-.12.51-.23.23-.15.38-.29.49-.49.02.06.03.09.07.16ZM6.82.21s.04-.04.05-.04c.03,0,.14.07.23.15.06.05.08.07.08.08,0,.01-.03.05-.06.09-.03.04-.05.05-.06.05t-.07-.06s-.12-.1-.16-.12q-.05-.03-.06-.04s0,0,0-.01c0-.01.03-.06.07-.1Z"/>
        <path class="cls-2" d="M8.17.64s-.03,0-.03,0-.01,0-.01,0h-.01s-.03,0-.03-.03c0-.04-.01-.09-.01-.15.07,0,.08,0,.23.01.2,0,.31,0,.36,0,.25,0,.54,0,.59,0h.01s.02,0,.02.1c0,.07,0,.07-.02.07h-.01c-.07,0-.1,0-.45,0,0,.11-.01.16-.03.23-.05.17-.13.29-.29.38-.04.03-.07.04-.09.04,0,0-.01,0-.03-.02-.05-.05-.07-.07-.13-.1.26-.12.36-.27.37-.54-.24,0-.33,0-.44,0ZM8.69.13c.14,0,.3,0,.36-.01h0s.03.01.03.06v.03s0,.02,0,.04c0,.04,0,.04-.03.04h-.02s-.32,0-.38,0c-.18,0-.31,0-.36,0,0,0,0,0-.01,0-.02,0-.02,0-.03-.02,0-.03-.01-.1-.01-.16.06,0,.26.01.44.01Z"/>
        <path class="cls-2" d="M9.88.81c-.12.08-.27.16-.3.16t-.04-.03s-.06-.06-.09-.08c.2-.06.39-.18.57-.34.07-.06.1-.1.15-.16.08.05.14.11.14.13,0,0,0,.01-.02.02-.02,0-.03.02-.08.06-.03.03-.09.08-.16.13v.24c0,.13,0,.26,0,.33v.02s-.02.03-.11.03c-.06,0-.07,0-.07-.02h0s0-.03,0-.04c0-.04,0-.17,0-.31v-.12Z"/>
        <path class="cls-2" d="M11.19.58c.27,0,.43,0,.58-.01h.02s.04,0,.04.12c0,.06,0,.07-.03.07h0c-.1,0-.15,0-.59,0-.16,0-.24,0-.38,0h-.04s-.06,0-.08,0c0,0-.01,0-.02,0-.02,0-.03,0-.03-.02,0-.04-.01-.11-.01-.18.12.01.23.02.54.02Z"/>
      </g>
    </g>
  </g>
</svg>