<?xml version="1.0" encoding="UTF-8"?><svg id="_レイヤー_1" xmlns="http://www.w3.org/2000/svg" viewBox="0 0 1500 450"><g><path d="M489.66,58.93c-7.3,0-13.23,5.94-13.23,13.23s5.94,13.23,13.23,13.23,13.24-5.94,13.24-13.23-5.94-13.23-13.24-13.23Z"/><path d="M275.73,122.78c-13.6-12.9-31.01-19.44-51.75-19.44s-38.66,7-52.46,20.81c-13.59,13.58-20.49,31.11-20.49,52.13s7,38.34,20.79,52.13c13.6,13.82,31.15,20.82,52.15,20.82,8.76,0,16.76-1.15,23.8-3.41,18.35-5.89,32.12-17.37,40.95-34.13l1.28-2.43-16.75-7.71-1.21,1.96c-7.12,11.53-15.22,19.25-24.08,22.96-7.08,2.92-15.15,4.41-23.99,4.41-17.14,0-30.76-5.25-40.48-15.6-8.9-9.68-13.63-22.91-14.07-39.34h127.17v-2.6c0-20.6-7.02-37.61-20.86-50.55Zm-103.34,35.12c8.82-24.36,25.73-36.21,51.59-36.21,12.75,0,24.18,3.59,33.97,10.68h.01c9.23,6.6,15.17,15.18,17.7,25.53h-103.27Z"/><rect x="374.72" width="18.36" height="249.22"/><path d="M710.49,125.52c-14.13-14.3-31.47-21.54-51.62-21.54s-37.77,7.11-51.8,21.14c-13.82,13.8-20.82,31.11-20.82,51.46s7.11,37.77,21.14,51.82c13.81,13.81,31.13,20.81,51.48,20.81s37.66-7.22,51.62-21.48v19.18h18.69V105.96h-18.69v19.56Zm-13.36,12.81c10.62,10.62,16,23.49,16,38.26s-5.38,27.98-16,38.6c-10.4,10.4-23.27,15.68-38.26,15.68s-27.63-5.38-38.26-16c-10.62-10.62-16-23.49-16-38.28s5.38-27.97,16-38.58c10.39-10.4,23.26-15.68,38.26-15.68s27.63,5.38,38.26,16Z"/><path d="M937.72,106.28c-17.12,0-30.05,6.41-38.51,19.05-8.83-12.65-21.84-19.05-38.73-19.05-12.43,0-22.25,3.57-29.29,10.64v-8.66h-18.67V249.22h18.67v-96.29c0-8.71,2.73-15.39,8.39-20.44,5.68-5.29,12.52-7.86,20.91-7.86s14.99,2.68,20.95,8.22c5.61,5.02,8.33,11.58,8.33,20.08v96.29h18.69v-96.29c0-19.04,9.58-28.3,29.28-28.3,9.6,0,16.7,2.73,21.72,8.33,5.09,5.7,7.56,12.23,7.56,19.96v96.29h18.69v-96.29c0-14.47-4.48-26.05-13.34-34.45-8.79-8.09-20.44-12.19-34.63-12.19Z"/><path d="M1185.31,124.79c-14.02-14.02-31.34-21.13-51.47-21.13s-37.7,7.23-51.48,21.47c-14.03,14.03-21.14,31.34-21.14,51.46s7.11,37.77,21.14,51.82c13.81,13.81,31.13,20.81,51.48,20.81s37.77-7.11,51.8-21.14c13.81-13.81,20.81-31.13,20.81-51.48s-7.11-37.77-21.14-51.8Zm2.79,51.8c0,14.99-5.38,27.98-16,38.6-10.4,10.4-23.28,15.68-38.26,15.68s-27.63-5.38-38.26-16c-10.62-10.61-16-23.49-16-38.28s5.49-27.43,16.34-38.28c10.62-10.82,23.38-16.3,37.92-16.3s28.17,5.38,38.57,15.98l.02,.02c10.4,10.4,15.68,23.38,15.68,38.58Z"/><rect x="480.32" y="108.26" width="18.69" height="140.95"/><path d="M51.1,37.56c0-16.3,8.37-18.59,14.54-18.89h9.06V0h-2.6s-7.02-.01-7.33,0c-21.47,.63-32.36,11.94-32.36,33.6V108.26H.18v18.67H32.41v122.28h18.69V126.93h32.2v-18.67H51.1V37.56Z"/></g><g><path d="M1016.04,372.86l-.83-.58-1.41,.25-.58,.83c-15.74,12.98-26.53,19.98-32.36,21-.52-.88-.95-1.29-1.31-1.23l-1.06,.19-.29,.42,.06,.35,.42,.29-1.47-.11-.06-.35,.29-.41-.13-.7-3.74-2.62-.35,.06,.42,.29,.19,1.06-.35,.06-.66-1.7,.52-1.19-.89-.93-.19-1.06c-.38-2.18,.29-5.94,2.02-11.28,1.56-5.62,5.9-12.7,13.01-21.24,4.19-2.38,6.2-4.07,6.03-5.07,2.32-.59,3.44-1.15,3.34-1.68l-.18-1.06c-.08-.47-.6-.63-1.54-.46l.69-2.31c-.66-.98-1.23-1.48-1.73-1.52l-1.41,.25-.58,.83-1.6-.81-1.06,.19-1.16,1.66c-3.2,4.21-8.87,7.88-17,11.01l-.35,.06-.42-.29-.06-.35,.29-.41-.31-1.77c-.84-1.31-2.96-1.66-6.38-1.06-2.83,.5-4.05,1.81-3.68,3.93l.06,.35,1.08,1.99-.94,.89c.29,1.65,1.74,2.98,4.34,3.97,.08,.47-.23,.77-.93,.89l.41,.29c-.15,.81-.65,2.08-1.51,3.81v-.07s-.43-.29-.43-.29l-.35,.06-.29,.42,.06,.35,.42,.29,.23-.04c-.37,.72-.79,1.51-1.28,2.37l-.05-.31-.35,.06-.87,1.24,.96-.43c-.86,1.51-1.87,3.23-3.04,5.15l-.12-.69-.71,.13-.55,.78c.97-2.84,1.43-5.85,1.36-9.03l-1.56-2.64c-.11-.65-1.58-1.36-4.38-2.14l-.06-.35c-4.29-.94-6.5-1.77-6.63-2.47l-.29,.42c-.61-.37-1.48-.47-2.6-.27,.31-2.73,.67-4.13,1.08-4.2l.35-.06,.06,.35-.04,1.83,.7-.12,.46-1.54-.12-.71-.6-1.35,.11-1.48-.13-.71c-.43-.71-1.49-1.25-3.2-1.62l-1,.54-2.18,.02-1.41,.25-.29,.41-.42-.29-1.23,1.31-.35,.06-.41-.29,.06,.35c-3.05,1.27-4.99,2.7-5.8,4.3l.06,.35,.71-.12,.93-.89,.71-.12-6.03,5.07c-4.71,2.9-9.95,8.31-15.71,16.25l-.06-.35,1.45-2.08-.06-.35-.42-.29c-1.24,1.19-1.96,2.65-2.14,4.38l.06,.35,.42,.29c-1.18,.21-1.73,.55-1.64,1.02l.06,.35,.71-.13,.06,.35-.58,.83-.12-.71-.71,.12-1.83,6.15,.06,.35,.41,.29-.58,.83,.13,.71,.41,.29c.12,.71-1.14,1.78-3.8,3.22l-.35,.06-.06-.35c2.41-1.46,3.58-2.4,3.51-2.81l-.06-.35c-2.47,1.16-3.66,1.98-3.57,2.45l-.35,.06-.42-.29-.58,.83,.02,.09-.09,.02-.82,.78-.39,.07-.28,.4h-.01s-.06-.34-.06-.34l-3.75-.06-1.12-.17c-3.39,2.78-4.74,4.11-4.03,3.99l.06,.35c-1.41,.25-2.02,.97-1.81,2.14l.35-.06,.42,.29,.15,.13-.45,.29-1.99,1.08-1.48-.1-.42-.29c-3.28,1.37-5.13,.88-5.54-1.48,.52-4.28,2.04-10.13,4.56-17.56,6.94-8.81,10.38-13.43,10.31-13.84,1.87-1.79,3.95-4.46,6.23-8.02,8.61-11.41,15.93-21.57,21.95-30.46,15.42-23.06,23.3-36.22,23.63-39.5l1.35-6.79,.83,.58,.06,.35-.29,.41,.35-.06,.58-.83-.73-2.06,.17-1.12c-.96-1.65-1.71-2.49-2.26-2.52l-4.24,.75c-2.8,.98-6.31,3.79-10.54,8.41l.13,.71,.71-.12,2.16-2.2,.35-.06c-9.72,8.58-20.49,23.95-32.3,46.13-7.42,14.73-14.04,30.22-19.85,46.48l-14.66,16.06-.35,.06,1.69-2.85-.06-.35-.35,.06c-1.92,1.71-4.35,3.69-7.23,5.92,2.29-4.04,3.38-8.48,3.28-13.32l-1.56-2.64c-.11-.65-1.58-1.36-4.38-2.14l-.06-.35c-4.29-.94-6.5-1.76-6.63-2.47l-.29,.41c-.61-.37-1.48-.47-2.6-.27,.31-2.72,.67-4.13,1.08-4.2l.35-.06,.06,.35-.04,1.83,.71-.13,.46-1.54-.12-.71-.6-1.35,.1-1.48-.12-.71c-.43-.71-1.5-1.25-3.2-1.62l-1,.54-2.18,.02-1.41,.25-.29,.42-.41-.29-1.23,1.31-.35,.06-.42-.29,.06,.35c-3.05,1.27-4.99,2.7-5.8,4.3l.06,.35,.71-.12,.94-.89,.71-.12-6.03,5.07c-4.71,2.9-9.95,8.31-15.71,16.25l-.06-.35,1.45-2.08-.06-.35-.41-.29c-1.25,1.19-1.96,2.65-2.14,4.38l.06,.35,.42,.29c-1.18,.21-1.73,.55-1.64,1.02l.06,.35,.71-.12,.06,.35-.58,.83-.12-.71-.71,.12-1.83,6.15,.06,.35,.41,.29-.58,.83,.12,.71,.41,.29c.13,.71-1.14,1.78-3.8,3.22l-.35,.06-.06-.35c2.41-1.46,3.58-2.4,3.51-2.81l-.06-.35c-2.47,1.17-3.66,1.98-3.57,2.45l-.35,.06-.42-.29-.58,.83,.06,.35,.83,.58,.06,.35-.29,.42-.35,.06-.42-.29-1.52,1.73-1.06,.19-.06-.35,2.28-1.5-.12-.71-.71,.12-.29,.42-.06-.35-3.75-.07-1.12-.17c-3.39,2.78-4.74,4.11-4.03,3.99l.06,.35c-.46,.08-.82,.22-1.11,.4-.38-.06-.8-.06-1.28,.02l-1.69,.75-1.12-1.17c-2.06,.36-2.91,1.58-2.55,3.64l-2.99,3.71,1.77-.31,.36-.52,.16,.88c-4.22,2.57-12.08,6.23-23.56,10.99-8.57,2.72-12.8,4.38-12.69,4.97l-.44,.08-.52-.36-.44,.08-2.49,1.35-1.4-.21-2.5,1.35-.44,.08-.52-.36c-5.84,1.33-9.29,2.4-10.36,3.19l-.52-.36-13.69,2.41-2.13,.83c-.1-.59-1.48-.65-4.13-.18-19.93,.6-30.79-4.16-32.57-14.29l-.31-1.77c-1.3-7.36,1.99-17.96,9.88-31.8,2.29-2.53,3.33-4.38,3.12-5.56,1.47-.26,2.1-.98,1.9-2.16,2.43-1.71,3.52-3.26,3.27-4.68,2.42-1.76,3.56-3.03,3.43-3.79,2.32-1.99,3.46-3.25,3.43-3.79l15.86-15.91c2.06-.36,2.99-1.13,2.78-2.31,3.64-2.4,5.74-4.29,6.29-5.66,2-.35,4.59-2.02,7.77-5.01,10.36-7.35,21.85-13.47,34.46-18.37l.44-.08-.65,1.48,.16,.88,7.72-2.73,13.04-.93,.08,.44-2.05,1.27-3.61,.18c-1.18,.21-1.93,1.1-2.26,2.67,.73,1.39,1.6,2,2.6,1.82l.23,1.32-2.05,1.27c.1,.59,1.04,.73,2.8,.41l.08,.44-.36,.52,.16,.88,1.04,.73,.88-.16,20.89-13.24,.44-.08,.52,.37c1.29-.23,1.97-1.56,2.03-4l2.28,.05,.44-.08,1.09-1.56-.08-.44c-.1-.59-.89-.75-2.36-.5l1.3-2.96c-.97-1.35-1.83-1.95-2.6-1.82l-1.25,.68-3.25-.34-.36,.52-1.48-.65c-1.69,.73-2.45,1.62-2.26,2.68-3.65,.34-5.93,.28-6.86-.16l-1.24,.68-2.81-.42-.73,1.04-1.04-.73-2.86,1.87-.52-.36-1.32,.23-.36,.52c-.16-.88-.53-1.27-1.12-1.17l-.88,.16-.36,.52-.08-.44-3.01,.99c.1,.59,1.04,.73,2.8,.41l.08,.44-7.79,2.29-.44,.08,.21-1.4-.08-.44c-.59,.1-.8,.6-.65,1.48l-16.08,6.93c-8.72,4.27-16.75,9.33-24.1,15.17-4.4,2.6-6.49,4.49-6.29,5.66l-4.99,2.7-3.51,3.35-9.87,8.57-5.34,5.86,.16,.88c-1.76,.31-2.55,1.06-2.34,2.23l-.88,.16-3.87,3.87-2.91,4.16c-15.48,18.94-22.06,34.98-19.75,48.1l4.21,8.37-.36,.52,.08,.44,.88-.16c3.19,3.26,7.21,5.44,12.08,6.52l.73-1.04,.75,1.69,2.21-.39-.08-.44-.88,.15-.08-.44,.44-.08,1.84,.13,.08,.44-.36,.52,.08,.44,1.32-.23-.08-.44-.52-.37,16.81-.23,.44-.08,.36-.52,9.87-.83,.36-.52,.44-.08,.52,.36,4.26-1.66,.52,.36,1.69-.75,1.85,.13,5.14-1.82,.52,.36,3.82-1.58,.44-.08,.52,.36,9.84-3.56,.52,.36,4.09-2.09,.08,.44,2.49-1.35,.44-.08,.52,.37,18.65-7.84-.36,.52,.08,.44,.52,.37c7.15-2.48,11.01-4.68,11.59-6.6l-1.04-.73,2.71-4.72,1.3,1.1,.71-.12c4.3-.76,8.95-2.79,13.95-6.1,.71-.12,1.25,.88,1.62,2.99,3.12,5.28,7.5,7.42,13.15,6.42l1.06-.18c10.34-4.01,16.92-7.36,19.72-10.04,3.2-1.67,6.68-4.5,10.44-8.49l-.15,.21,.06,.35,2.12-.37,.06,.35-1.06,.18,.06,.35c.64,.86,1.43,1.21,2.37,1.04,3.59-1,9.92-7.09,19-18.28l-.56,3.01c-.79,1.36-1.33,3.15-1.6,5.38l.35-.06-1.5,3.91,.06,.35,.41,.29-.58,.83,.06,.35,.42,.29-.58,.83,.44,2.47-.04,1.83c2.66,2.69,4.7,3.91,6.11,3.66,7.46-4.54,12.66-7.92,15.64-10.15,2.55-1.05,5.19-2.47,7.95-4.3,.71-.12,1.25,.87,1.62,2.99,3.12,5.28,7.5,7.42,13.15,6.42l1.06-.19c10.34-4.01,16.92-7.35,19.72-10.03,2.37-1.23,4.9-3.13,7.57-5.64l.16,.9,1.48,.11,.06,.35,4.81-1.67,6.48-9.25,4.54-9.36c2.24-5.49,4.28-8.4,6.11-8.73l1.83,.04,4.7-2.28,.35-.06,.06,.35-.29,.41,.06,.35c.47-.08,.64-.48,.52-1.18,.71-.12,1.02-.42,.94-.89l.71-.13c-4.7,8.48-7.01,13.26-6.95,14.34-1.32,1.45-2.58,6.05-3.76,13.78l.83,.58,.06,.35c-.71,.12-1.02,.42-.94,.89l.63,3.53,.71-.13-.37-2.12,.35-.06,.73,2.06-.35,.06,.54,1,.12,.71-.35,.06-.19-1.06-.71,.12,.12,.71c3.24,4.28,6.37,6.16,9.37,5.63,4.65-1.18,6.92-2.07,6.82-2.66l.42,.29c3.17-1.29,4.72-2.17,4.63-2.64,1.97-1.2,2.89-2.21,2.74-3.03l.83,.58,5.22-3.47-.13-.71-.41-.29,1.64-1.02,11.78-7.54c2.21-1.6,3.39-3.15,3.55-4.63l-.19-1.06Zm-54.51-13.7l.58-.83,.25,1.41-.83-.58Zm-25.35-76.58l1.06-.19,.06,.35-1.93,1.43-.35,.06,1.17-1.66Zm-1.87,1.79l.35-.06,.06,.35-.29,.42-1.06,.19-.06-.35,1-.54Zm-18.04,25.76c9.69-13.24,17.65-21.08,23.9-23.52l.35-.06-.37,4.07c-1.02,.79-1.6,1.62-1.75,2.49l.12,.71,.41,.29-3.82,7.23c-3.71,7.88-13.17,22.42-28.37,43.62-7.65,10.64-14.67,19.77-21.03,27.39l-.35,.06c5.83-17.91,16.13-38.66,30.91-62.28Zm-129.81,110.86l-.44,.08-.08-.44,1.24-.68,.44-.08,.08,.44-1.25,.68Zm23.87-6.67l-.31-1.77,.35-.06,.31,1.77-.35,.06Zm31.37-39.04l.35-.06-.16,1.12-2.53,.08-.06-.35,2.41-.79Zm-8.63,4.8l.35-.06,.19,1.06-1.35,.6c.08,.47,.83,.58,2.24,.33l-.58,.83,1.02,1.64,1.35-.6,.35-.06c-5.49,6.37-13.37,13.35-23.63,20.92,1.65-8.18,8.34-16.4,20.06-24.67Zm-18.73,34.26l-.06-.35,1.25,.87,.13,.71c-.35,.06-.79-.34-1.31-1.23Zm6.11,3.66l-.06-.35,1.41-.25,.06,.35-1.41,.25Zm9.41-2.39l-.06-.35-1.25-.87-.35,.06-.29,.42,.83,.58c.1,.59-1.01,1.15-3.35,1.68l-1.06,.19-.06-.35,.7-.12-.18-1.06-.71,.12c-.47,.08-.62,.6-.46,1.54l-.71,.13c-.16-.94-.49-1.37-.95-1.29l-.35,.06-.29,.41c-.07-.41-.82-.52-2.24-.33-.94-1.23-2.05-2.01-3.33-2.33-1.2-2.7-2.04-4.01-2.51-3.93l-.35,.06-.29,.41-.12-.71c10.56-8.29,17.97-14.46,22.24-18.49l8.64-8.81c9.15,.94,13.99,2.88,14.51,5.82,.25,1.41-.77,3.9-3.06,7.46l.06,.35c.71-.12,1.43-.85,2.16-2.2l.06,.35c-4.72,8-13.8,15.06-27.23,21.19Zm69.31-21.15c0-.21-.03-.42-.05-.66l.14,.1,.06,.35-.15,.21Zm6.19,3.1l-.31-1.77,.35-.06,.31,1.77-.35,.06Zm50.88-20.87l.12,.67,.71-.12,.48-.69c-.42,.69-.86,1.4-1.32,2.14l-.04-.2-.5-.35c.2-.48,.38-.96,.55-1.44Zm-19.51-18.18l.35-.06-.17,1.12-2.53,.08-.06-.35,2.41-.79Zm-8.63,4.8l.35-.06,.18,1.06-1.35,.6c.08,.47,.83,.58,2.24,.33l-.58,.83,1.02,1.64,1.35-.6,.35-.06c-5.49,6.38-13.37,13.35-23.63,20.92,1.65-8.18,8.34-16.4,20.06-24.66Zm-18.73,34.26l-.06-.35,1.25,.87,.12,.71c-.35,.06-.79-.35-1.31-1.23Zm6.11,3.66l-.06-.35,1.41-.25,.06,.35-1.41,.25Zm9.41-2.39l-.06-.35-1.25-.87-.35,.06-.29,.41,.83,.58c.1,.59-1.01,1.15-3.34,1.68l-1.06,.19-.06-.35,.71-.12-.19-1.06-.71,.12c-.47,.08-.62,.6-.46,1.54l-.7,.12c-.17-.94-.49-1.37-.96-1.29l-.35,.06-.29,.42c-.07-.41-.82-.52-2.24-.33-.95-1.23-2.05-2.01-3.32-2.33-1.21-2.7-2.04-4.01-2.51-3.93l-.35,.06-.29,.42-.12-.71c10.56-8.29,17.97-14.46,22.24-18.49l8.65-8.81c9.15,.94,13.98,2.88,14.5,5.82,.25,1.41-.77,3.9-3.05,7.46l.06,.35c.7-.12,1.42-.85,2.16-2.2l.06,.35c-4.72,7.99-13.8,15.06-27.22,21.19Zm26-13.24l-.27,.05c.89-.98,1.8-2.01,2.72-3.12,.36-.54,.69-1.09,1.01-1.64l.38-.33,.12,.71-3.97,4.34Zm3.98-5.71c.15-.3,.31-.59,.45-.9l.8-.14c-.33,.53-.68,1.08-1.03,1.64-.05-.26-.12-.45-.22-.6Z"/><path d="M1500.04,223.77c-.1-.59-.85-.85-2.23-.79l-.08-.44c.82-.15,1.19-.49,1.09-1.01l-.06-.35c-.27-1.53-1.11-2.35-2.53-2.47l-2.32,.78-1.73-.51-3.84,1.5-1.37-.58-4.34,1.22,.14,.79-12.14,.87-2.31,.86-2.17-.44-9.92,2.11-2.89,.15-.29,.41-.06-.35-1.18,.57-.35,.06-.5-.28-1.17,.57-.41-.29-.44,.08-1.01,1-11.57,2.04-2.11-.08,.08,.44-.38,.43-22.19,4.82-2.46-.02-.65,.94-3.18,.56h-2.09c.09,.54-.54,.92-1.89,1.16l-2.38,.42-2.02-.1c.03,.19-.52,.49-1.64,.88-.38-1.11-1.16-1.72-2.36-1.82l-2.32,.77-1.73-.51-3.84,1.49-1.38-.58-4.34,1.22,.14,.79-12.14,.87-2.31,.86-2.17-.44-9.92,2.11-2.89,.15-.29,.41-.06-.35-1.17,.57-.35,.06-.35-.19c5.81-12.49,11.11-22.81,15.9-30.97,1.46-1.04,1.92-3.04,1.4-5.99,1.18-.21,1.88-.88,2.1-2.01l-.08-.44-1.35-.94-1.24,.22c-.53,.09-.66,.93-.37,2.52l-.79,.14-.08-.44,.29-.41-.22-1.24-.94-.66-1.15,.2-1.31,1.87,.08,.44,.42,.29-.87,1.79,.22,1.24,.8-.14-12.62,26.54c-1.59,2.85-3.21,6.03-4.84,9.51l-10.12,1.78-2.11-.08,.08,.44-.38,.43-22.19,4.82-2.46-.02-.65,.94-3.18,.56h-2.09c.09,.54-.54,.92-1.89,1.16l-2.38,.42-2.02-.1c.09,.53-4.23,1.84-12.97,3.92l-1.65-.07-.65,.94-.79,.14-2.91,.06c.09,.53-.89,1.13-2.96,1.8l-.08-.44-.41-.29c-1.26,.77-5.68,2.22-13.26,4.34l-1.3-.13-1.01,1-2.11-.08c.07,.41-.39,.92-1.37,1.52l-.08-.44-7.82,2.65-.08-.44-.8,.14-.65,.94-1.65-.07-.35,.06-.38,.43-.06-.35c7.49-16.74,14.2-30.16,20.13-40.25,1.45-1.05,1.92-3.04,1.4-5.99,1.18-.21,1.88-.88,2.1-2.01l-.08-.44-1.35-.94-1.24,.22c-.53,.09-.65,.93-.37,2.52l-.79,.14-.08-.44,.29-.41-.22-1.24-.94-.66-1.15,.2-1.31,1.87,.08,.44,.42,.29-.87,1.79,.22,1.24,.79-.14-12.62,26.54c-3.04,5.45-6.16,12.05-9.35,19.77l-1.21-.15-1.45,1.08-.52-.36-.35,.06-1.02,1.46-1.32-.22-29.96,9.83c-.09-.53,.27-.87,1.1-1.01l-.22-1.23-.44,.08c-.65,.12-.97,.72-.96,1.81l-.35,.06-5.63-1.47-1.51,.72-2.17-.44-.95,1.35,.22,1.23,.42,.29-1.31,1.87,.08,.44c.09,.53,.55,.72,1.38,.58,1.45,1.69,2.68,2.44,3.68,2.26l5.07-1.71,.42,.29c2.67-.71,3.95-1.33,3.86-1.86l-.08-.44-.5-.28,1.51-.72,.44-.08,.08,.44-1.17,.57,.93,.66,.44-.08,.29-.41,.06,.35,.44-.08c-.01-1.09,.52-1.88,1.59-2.38l.44-.08,.08,.44-.79,.14,.14,.79,1.59-.28c-.19-1.06-.01-1.64,.51-1.73l1.24-.22,.06,.35-.36,.52,.08,.44,.79-.14-.16-.88,13.39-5.64,.44-.08,.52,.36c4.3-1.79,6.4-2.98,6.29-3.57h2.09s.79-.15,.79-.15l.38-.43,.14,.8-10.6,24.09c-6.51,14.02-12.88,25.58-19.11,34.69-.19-1.06-.55-1.54-1.08-1.45l-1.67,2.39c-3.66,2.65-5.43,4.32-5.31,5.03l.14,.8c.09,.53,.67,.7,1.73,.51l.06,.35c-.82,.15-1.5,.96-2.03,2.45l.22,1.24,.34-.06c-1.87,1.6-3.43,2.52-4.7,2.74l-.35,.06-.06-.35c.94-.17,1.57-.76,1.87-1.79l-2.12,.37c-.76,.86-1.52,1.36-2.29,1.5l-2.47,.44-2.49-1.75c-.13-.7-.54-1-1.25-.87l.58-.83-.54-1c-.28-1.59,1.69-8.98,5.92-22.17-.21-1.18-.08-1.81,.4-1.89l.6,1.35,.35-.06,.29-.42-.98-3.47,.1-1.48c-.26-1.47-2.66-2.02-7.21-1.64-3.39,.72-7.76,4.89-13.09,12.51l.06,.35c.82-.15,1.56-.76,2.22-1.85l.35-.06-9.21,11.82,2.02-5.09,.35-.06,.41,.29,2.68-3.39-.06-.35-1.06,.19-.29,.42-.81,1.6-.35,.06-.06-.35c2.68-5.45,3.89-8.94,3.62-10.47l.35-.06,.6,1.35-.35,.06,.06,.35,.42,.29,1.75-2.49-.06-.35c-.08-.47-.48-.64-1.18-.52l-.06-.35,.52-1.18-.25-1.41-1.66-1.17-.71,.12-.93,.89-1.25-.87-.71,.12c-.47,.08-2.04,2.91-4.7,8.48l.06,.35,.35-.06,.94-.89,.35-.06,.06,.35c-3.49,4.68-8.89,11.22-16.21,19.61-.13-.7-.42-1.02-.89-.93-.86,.64-1.23,1.31-1.1,2.02-3.24,2.67-5.47,4.61-6.7,5.83,.4-.46,.79-.91,1.19-1.39,2.97-4.47,4.4-9.46,4.28-14.96l-1.56-2.64c-.12-.65-1.58-1.36-4.39-2.14l-.06-.35c-4.3-.94-6.5-1.76-6.63-2.47l-.29,.41c-.61-.37-1.48-.47-2.6-.27,.31-2.73,.67-4.13,1.08-4.2l.35-.06,.06,.35-.04,1.83,.71-.13,.46-1.54-.12-.71-.6-1.35,.11-1.48-.13-.71c-.43-.71-1.5-1.25-3.2-1.62l-1,.54-2.18,.02-1.41,.25-.29,.42-.41-.29-1.23,1.31-.35,.06-.41-.29,.06,.35c-3.05,1.27-4.99,2.7-5.8,4.3l.06,.35,.7-.12,.94-.89,.71-.12-6.03,5.07c-4.71,2.9-9.95,8.31-15.71,16.25l-.06-.35,1.45-2.08-.06-.35-.41-.29c-1.25,1.19-1.96,2.65-2.14,4.38l.06,.35,.41,.29c-1.18,.21-1.72,.55-1.64,1.02l.06,.35,.71-.12,.06,.35-.58,.83-.12-.71-.71,.12-1.83,6.15,.06,.35,.42,.29-.58,.83,.12,.71,.41,.29c.12,.71-1.14,1.78-3.8,3.22l-.35,.06-.06-.35c2.42-1.46,3.59-2.4,3.51-2.81l-.06-.35c-2.47,1.16-3.66,1.98-3.58,2.45l-.35,.06-.41-.29-.58,.83,.06,.35,.83,.58,.06,.35-.29,.42-.27,.05-.09-.53-.89-.93c-.41,.25-.81,.48-1.22,.73l-3.58-.06-1.12-.17c-3.39,2.78-4.74,4.11-4.03,3.99l.06,.35c-1.13,.2-1.74,.71-1.83,1.5-6,2.82-11.47,4.67-16.42,5.54l-.41-.29-1.35,.6-.12-.71c-2.74-.36-4.16-.84-4.26-1.43l-.06-.35c5.37-8.78,9.55-14.01,12.53-15.69,1.03-1.76,4.54-4.56,10.54-8.41,5.18-1.64,8.17-3.26,8.98-4.86l-1.08-2,.52-1.18c-.2-1.12-2.09-1.51-5.67-1.19-2.34,1.51-4.14,3.04-5.38,4.59l.06,.35,1.7-.66,.35-.06,.06,.35-3.86,2.87c-4.64,2.64-11.74,10.57-21.31,23.79l-.35,.06-.12-.71c-.94,.17-1.78,1.65-2.5,4.45l.83,.58-.69,2.31c.79,1.38,2.19,2.47,4.22,3.26l7.36-1.66,2.12-.37,.58-.83-.06-.35-.42-.29,1.77-.31,.06,.35-.71,.12,.06,.35,2.53-.08,.58-.83-.06-.35-.42-.29,1.06-.18c.12,.71,.54,1,1.25,.87,.71-.13,1.02-.42,.94-.89l1.12,.17c.71-.12,1.02-.42,.94-.89l1.83,.04,.58-.83,.35-.06,.42,.29,4.81-2.53,.04,.03,.7-.12c4.3-.76,8.95-2.79,13.95-6.1,.71-.12,1.25,.88,1.62,2.99,3.12,5.28,7.5,7.42,13.15,6.42l1.06-.19c10.34-4.01,16.92-7.35,19.72-10.03,3.6-1.88,7.57-5.25,11.89-10.08-.03,.06-.06,.12-.06,.16l.12,.71c.08,.47,.71,.6,1.89,.4l.06,.35c-1.12,.2-1.82,1.05-2.1,2.56,.08,.47,2.05-.24,5.91-2.13l13.98-14.21,3.28-5.68-.06,1.19-2.72,5.76,.42,.29-.7,.67,.06,.35,.42,.29-.17,1.12-.42-.29-.58,.83,.06,.35,.41,.29-.35,.06,.12,.71-.35,.06-.41-.29-.35,.06c-1.01,2.91-2.77,6.01-5.28,9.31l.12,.71c.12,.71,.66,.98,1.6,.81l-1.04,2.37,.83,.58,.58-.83,.35-.06,.41,.29-.46,1.54,1.25,.87,.7-.12c.57-.22,1.01-1.15,1.33-2.78l1.12,.16c.94-.17,1.35-.6,1.23-1.31l-.06-.35-.41-.29,.35-.06-.54-1c.58-2.89,3.42-8.13,8.52-15.71,8.49-10.73,14.53-16.4,18.12-17.04l.35-.06c-.09,1.23-.33,1.88-.75,1.95,.06,2.42-.2,3.68-.79,3.78-.12,1.72-.33,2.61-.62,2.66l-3.41,13.71,.54,1c0,1.7-.21,2.59-.63,2.66l.73,2.05c.64,3.65,3.41,5.59,8.31,5.82,2.56-.63,3.79-1.22,3.7-1.75l.42,.29,3.93-2.52c5.01-4.28,8.17-7.87,9.48-10.78l-.17-.95c3.62-4.37,7.56-11.13,11.81-20.32,.34,1.94,0,3.09-1.03,3.46l-2.8,9.97c.29,1.65,.05,2.54-.71,2.67l.56,1.09-.89,4.25,1.51,3.92,.06,.35-.93-.65-.34-1.94-.8,.14,.48,2.74c2.34,2.62,4.61,3.74,6.79,3.36,2.04-1.34,3.97-2.9,5.82-4.63,1.4,.96,2.96,1.5,4.67,1.59l3.41-1.33c4.77-1.51,12.09-6.81,21.97-15.89,.9,5.12,4.47,7.65,10.72,7.58,.79-.36,1.48-.69,2.13-1.01,.83,.96,2.02,1.75,3.58,2.37l7.36-1.66,2.12-.37,.58-.83-.06-.35-.41-.29,1.76-.31,.06,.35-.71,.12,.06,.35,2.53-.08,.58-.83-.06-.35-.42-.29,1.06-.19c.12,.71,.54,1,1.25,.88,.7-.13,1.02-.42,.93-.89l1.12,.17c.71-.12,1.02-.42,.93-.89l1.83,.04,.58-.83,.35-.06,.42,.29,6.59-3.47v.03s1.24-.22,1.24-.22c.19,1.06,2.26-.53,6.21-4.78,3.96-4.25,8.31-11.5,13.06-21.75,.34,1.94,0,3.1-1.03,3.46l-2.8,9.97c.29,1.65,.05,2.54-.71,2.67l.56,1.09-.89,4.25,1.51,3.92,.06,.35-.93-.65-.34-1.94-.8,.14,.48,2.74c2.34,2.62,4.61,3.74,6.79,3.36,3.53-2.32,6.78-5.23,9.75-8.73l-.22-1.23-.41-.29,2.19-4.12-.14-.8-.94-.65-.44,.08-1.37,1.52-.44,.08c-.24-1.35-.62-1.98-1.15-1.89l-.35,.06-1.96,2.8c-1.12,2.63-2.97,4.32-5.57,5.08l-.79,.14c-.13-.76-.59-1.08-1.35-.95l-.07-2.45c1.75-10.75,3-16.19,3.77-16.33-.11-2.71,.18-4.13,.89-4.26l1.97-5.35c-.23-1.3-.08-1.99,.45-2.09,.58-2.59,2.01-6,4.3-10.23l10.21-21.66c-.35-2,1.63-3.99,5.96-5.97l.52,.36,.79-.14,.66-.94,1.21,.15,3.4-1.87,.52,.36,.35-.06,.36-.52,.43,.38,.44-.08,.65-.93,1.65,.07,2.24-1.22,.52,.36,2.24-1.22,1.65,.07,.66-.94,2.46,.02,2.96-1.8,.08,.44,.5,.28,2.24-1.22,1.67,.16,.66-.93,.5,.27,1.53-.63h2s.96-.45,.96-.45l.62,.18,.08,.44c-1.32,.41-1.93,.92-1.83,1.5,.09,.53,.82,.68,2.17,.44,.29,1.65,.7,2.42,1.23,2.33l1.24-.22c2.81-.92,4.14-1.85,3.97-2.79h4.56s.65-.92,.65-.92l-.71-1.97,1.09-.56,1.79,.87,1.23-.22,.65-.93-.14-.8c-.1-.59-.85-.85-2.23-.79l-.08-.44c.47-.08,.78-.24,.95-.45l1.98-.07,4.19-1.56,3.35-.13,2.24-1.22,.06,.35,1.09-.55h2.09s6.16-2.27,6.16-2.27l.5,.27,.35-.06,.38-.43,.35-.06,.5,.28,7.45-2.13,.43,.38,5.13-1.36,4.49-.34,4.63-1.64,.44-.08,.41,.29,.44-.08,.29-.41,9.33-1.28,6.3-1.47,9.25-1.27,1.53-.64c.14,.76,3.29,.76,9.47-.03l.14,.8-.29,.42,.35-.06,.52,.36,.35-.06-.14-.79-.43-.38,.79-.14c.47-.08,.97,.53,1.51,1.83l1.16-.66,1.73,.51,.08,.44c-1.32,.42-1.93,.92-1.83,1.51,.09,.53,.82,.68,2.17,.44,.29,1.65,.7,2.42,1.23,2.33l1.24-.22c2.81-.92,4.13-1.85,3.97-2.79l4.56,.02,.66-.93-.71-1.97,1.09-.56,1.79,.87,1.24-.22,.65-.93-.14-.8Zm-454.61,151.47l-.41-.29-.19-1.06,.35-.06,.54,1,.06,.35-.35,.06Zm5.32,1.25l-.06-.35,3.18-.56,.06,.35-3.18,.56Zm22.76-7.29l-.06-.35,.4-.18,.46,.39-.8,.14Zm17.72-4.4l-.31-1.77,.35-.06,.31,1.77-.35,.06Zm31.36-39.04l.35-.06-.17,1.12-2.53,.08-.06-.35,2.41-.79Zm-8.62,4.8l.35-.06,.18,1.06-1.35,.6c.08,.47,.83,.58,2.24,.33l-.58,.83,1.02,1.64,1.35-.6,.35-.06c-5.5,6.38-13.37,13.35-23.63,20.92,1.65-8.18,8.34-16.4,20.06-24.66Zm-18.73,34.26l-.06-.35,1.25,.87,.12,.71c-.35,.06-.79-.35-1.31-1.23Zm6.11,3.66l-.06-.35,1.41-.25,.06,.35-1.41,.25Zm9.41-2.39l-.06-.35-1.25-.87-.35,.06-.29,.41,.83,.58c.11,.59-1.01,1.15-3.34,1.68l-1.06,.19-.06-.35,.71-.12-.19-1.06-.7,.12c-.47,.08-.63,.6-.46,1.54l-.71,.13c-.17-.94-.49-1.37-.95-1.29l-.35,.06-.29,.41c-.07-.41-.82-.52-2.25-.33-.94-1.23-2.05-2.01-3.32-2.33-1.2-2.7-2.04-4.01-2.51-3.93l-.35,.06-.29,.42-.12-.71c10.56-8.29,17.97-14.46,22.24-18.49l8.65-8.81c9.15,.94,13.99,2.88,14.5,5.82,.25,1.41-.77,3.9-3.06,7.46l.06,.35c.71-.12,1.43-.85,2.16-2.2l.06,.35c-4.72,8-13.8,15.06-27.23,21.19Zm30.82-15.82l-.35,.06,1.23-1.31-.87,1.24Zm1.81-2.14c.9-1.8,1.89-3.07,2.97-3.81l.06,.35c-.58,1.2-1.59,2.35-3.03,3.45Zm29.34-21.57l-.12-.71,1-.54,.35-.06,.06,.35-1.29,.96Zm1.81-2.14l-.06-.35,.29-.42,.71-.12,.06,.35-1,.54Zm2.45-2.62c-.06-.35,.34-.79,1.22-1.31l.35-.06,.06,.35-1.64,1.02Zm26.76,14.86l.14,.79c-1.1,.32-1.59,.8-1.48,1.44l-.79,.14-.06-.35,2.19-2.02Zm121.92-14.12l.79-.14,.06,.35-1.06,.19-.14-.8c.31,.74,.43,.87,.34,.4Zm-107.51-4.9l.44-.08,.06,.35-.51,1.73-.44,.08-.06-.35,.51-1.73Zm16,23.04l-.83-.58,1.06-.19,.12,.71-.35,.06Zm21.84-10.41l-.29,.41-.31-1.76,.35-.06,.6,1.35-.35,.06Zm-1.47-6.3c.09,.53-2.67,3.44-8.29,8.74l-9.73,6.82-1.12-.16,4.57-2.99-.12-.71-6.63,3.72-.35,.06-.42-.29-.58,.83-.35,.06-.42-.29-.58,.83c-.8-.2-1.56-.57-2.27-1.13l2.03-3.83-.14-.79-.94-.66-.44,.08-1.37,1.52-.44,.08c-.07-.38-.15-.69-.23-.95,.41-1.47,1.13-3.36,2.17-5.67l4.66-6.65c5.95-6.57,11.88-10.78,17.81-12.61l5.78-.29,.06,.35c-2.17,7-3.05,11.65-2.64,13.95Zm-12.41-14.57c-.08-.47,1.11-1.29,3.57-2.45l.35-.06,.06,.35-.29,.42c-1.18,.21-2.18,.75-2.99,1.62l-.71,.12Zm4.22-2.93l1.71-.66,.12,.71-1.77,.31-.06-.35Zm12.9,23.59l-.06-.35,2.14,1.81,.06,.35c-.41,.07-1.13-.53-2.14-1.81Zm9.32,5.82c.12-.06,.22-.11,.33-.17l.02,.11-.35,.06Zm5.32,1.25l-.06-.35,3.18-.56,.06,.35-3.18,.56Zm22.76-7.29l-.06-.35,1.35-.6,.12,.71-1.41,.25Zm8.96-9.14l-.8,.14-.06-.35,2.19-2.03,.14,.8c-1.1,.31-1.59,.8-1.47,1.44Zm15.73-19.26l-.44,.08-.06-.35,.51-1.73,.44-.08,.06,.35-.51,1.73Zm17.47-45.52l-1.21-.15-1.45,1.08-.52-.37-.35,.06-1.02,1.46-1.32-.22-29.96,9.84c-.09-.53,.27-.87,1.1-1.02l-.22-1.23-.44,.08c-.65,.11-.97,.71-.96,1.8l-.35,.06-5.63-1.47-1.51,.73-2.17-.44-.95,1.35,.22,1.23,.41,.29-1.31,1.87,.08,.44c.09,.53,.55,.72,1.38,.58,1.45,1.69,2.68,2.44,3.68,2.26l5.07-1.71,.42,.29c2.67-.71,3.95-1.33,3.86-1.86l-.08-.44-.5-.28,1.51-.72,.44-.08,.08,.44-1.17,.57,.93,.66,.44-.08,.29-.42,.06,.35,.44-.08c-.01-1.09,.52-1.88,1.59-2.38l.44-.08,.08,.44-.8,.14,.14,.79,1.59-.28c-.18-1.06-.02-1.64,.51-1.73l1.24-.22,.06,.35-.36,.52,.08,.44,.8-.14-.16-.88,13.39-5.64,.44-.08,.52,.36c4.3-1.79,6.4-2.98,6.29-3.57h2.09s.79-.15,.79-.15l.38-.43,.14,.8-10.6,24.09c-6.52,14.02-12.88,25.59-19.11,34.69-.19-1.06-.55-1.54-1.08-1.45l-1.67,2.39c-3.66,2.65-5.43,4.33-5.3,5.03l.14,.8c.03,.15,.11,.27,.21,.36-7.95,4.23-15.06,6.9-21.33,8l-.41-.29-1.35,.6-.12-.71c-1.95-.26-3.22-.58-3.83-.95,0-.03,0-.06,0-.1l-.19-1.06s-.03-.06-.04-.1c5.25-8.52,9.34-13.61,12.27-15.26,1.02-1.76,4.54-4.56,10.54-8.41,5.18-1.64,8.17-3.26,8.98-4.86l-1.08-2,.52-1.18c-.2-1.12-2.09-1.51-5.67-1.19-2.34,1.51-4.14,3.04-5.38,4.59l.06,.35,1.71-.66,.35-.06,.06,.35-3.86,2.87c-4.63,2.64-11.74,10.57-21.31,23.79l-.35,.06-.13-.71c-.85,.15-1.62,1.4-2.29,3.72-.2-.4-.97-.7-2.32-.9l-.35,.06-.29,.41-.2,.4-.35,.06-.26-1.5c-2.37-1.04-3.76-2.71-4.16-5.01l2.72-5.21c1.25-1.55,2.41-5.28,3.49-11.18l.35-.06,.06,.35,.15,2.89,1.79-4.32-.13-.71c-.08-.47-.48-.65-1.18-.52l.04-1.83-.12-.71-1.66-1.17-.71,.13-1.7,.66c-.23-1.29-3.1-1.76-8.63-1.39l-.93,.89-3.18,.56c-6.73,3.49-10.75,6.15-12.08,7.96l.06,.35,.71-.12,3.22-2.39,.12,.71-.29,.41c-6.23,3.95-11.51,10.47-15.86,19.55l-.71,.12-.41-.29-.46,1.54,.06,.35,.41,.29-.29,.42c-1.07,.19-1.7,2.36-1.9,6.49-1.07,1.34-2.47,2.27-4.21,2.78l-.79,.14c-.13-.76-.59-1.08-1.35-.95l-.07-2.45c1.75-10.75,3-16.19,3.77-16.33-.11-2.71,.18-4.13,.89-4.25l1.97-5.35c-.23-1.3-.08-1.99,.45-2.08,.58-2.59,2.01-6,4.3-10.23l10.21-21.65c-.35-2,1.64-3.99,5.96-5.97l.52,.36,.8-.14,.65-.94,1.21,.15,3.4-1.87,.52,.36,.35-.06,.36-.52,.43,.38,.44-.08,.65-.93,1.65,.07,2.24-1.22,.52,.37,2.24-1.22,1.65,.07,.65-.93,2.46,.02,2.96-1.8,.08,.44,.51,.27,2.24-1.22,1.67,.16,.65-.93,.5,.27,1.53-.63h2s2.69-1.28,2.69-1.28l.44-.08,.43,.38,2.69-1.3h2s2.33-1.22,2.33-1.22l1.23,.24,3.83-1.5,2.53-.08,4.19-1.56,3.34-.13,2.24-1.22,.06,.35,1.09-.56h2.09s6.16-2.27,6.16-2.27l.5,.28,.35-.06,.38-.43,.35-.06,.5,.27,7.45-2.13,.43,.38,5.13-1.36,4.49-.34,4.63-1.64,.44-.08,.41,.29,.44-.08,.29-.42,3.27-.45c-1.26,2.73-2.52,5.64-3.8,8.74Zm22.59-7.72l-1.3-.13-1.01,.99-2.11-.08c.07,.41-.39,.92-1.37,1.52l-.08-.44-7.82,2.66-.08-.44-.79,.14-.65,.94-1.65-.07-.35,.06-.38,.43-.06-.35c1.05-2.34,2.07-4.6,3.09-6.81l1.85-.25,6.29-1.48,9.25-1.27,1.53-.63c.13,.76,3.29,.75,9.46-.03l.14,.8-.29,.41-.41-.29c-1.26,.77-5.68,2.22-13.26,4.34Zm13.75-3.61l-.08-.44,.34-.06,.39,.28c-.21,.07-.42,.15-.66,.22Zm1.1-.39l-.11-.6-.43-.38,.79-.14c.28-.05,.57,.15,.88,.6-.29,.17-.67,.35-1.13,.53Z"/></g></svg>