<?xml version="1.0" encoding="UTF-8"?>
<svg id="_レイヤー_2" data-name="レイヤー 2" xmlns="http://www.w3.org/2000/svg" viewBox="0 0 17.03 4.8">
  <defs>
    <style>
      .cls-1 {
        stroke: #8c6464;
        stroke-linecap: round;
        stroke-linejoin: round;
        stroke-width: .05px;
      }

      .cls-1, .cls-2 {
        fill: #8c6464;
      }

      .cls-2 {
        stroke-width: 0px;
      }
    </style>
  </defs>
  <g id="lay">
    <g>
      <g>
        <path class="cls-1" d="M.03,3.6C.03,2.87.57,2.42,1.25,2.42c.49,0,.75.28.82.33l.04.51h-.04c-.1-.31-.33-.79-.84-.79S.21,2.91.21,3.6s.5,1.13,1.03,1.13c.55,0,.85-.48.95-.79h.03l-.04.51c-.06.05-.38.33-.92.33C.57,4.77.03,4.32.03,3.6Z"/>
        <path class="cls-1" d="M3.42,2.98c.54,0,.92.34.92.9s-.38.9-.92.9-.92-.34-.92-.9.38-.9.92-.9ZM3.42,4.74c.43,0,.74-.33.74-.86s-.3-.86-.74-.86-.74.33-.74.86.3.86.74.86Z"/>
        <path class="cls-1" d="M5.53,3.18l.04.52h-.04c-.07-.38-.18-.67-.32-.67-.16,0-.29.42-.36.73v.79c0,.08.03.12.1.2h-.38c.08-.08.1-.12.1-.2v-1.25c0-.11-.03-.14-.07-.14-.03,0-.07.03-.1.05v-.03c.08-.08.2-.19.27-.19.05,0,.07.05.07.2v.42c.07-.31.19-.63.38-.63.12,0,.25.13.29.2Z"/>
        <path class="cls-1" d="M6.63,4.75v-.38c-.07.18-.2.4-.47.4-.32,0-.43-.28-.43-.56,0-.2.06-.64.47-.64.25,0,.36.14.43.27v-.25c0-.18,0-.57-.25-.57-.19,0-.37.23-.51.48h-.04l.1-.39c.07-.04.19-.14.41-.14.31,0,.46.2.46.54v1.03c0,.08.03.12.1.2h-.28ZM6.63,3.91c-.07-.14-.19-.3-.35-.3-.27,0-.37.43-.37.65s.12.49.31.49.35-.28.41-.46v-.37Z"/>
        <path class="cls-1" d="M7.22,4.55v-1.91c0-.11-.03-.14-.07-.14-.03,0-.07.03-.1.05v-.03c.08-.08.2-.19.27-.19.06,0,.07.05.07.2v2.03c0,.08.03.12.1.2h-.38c.08-.08.1-.12.1-.2Z"/>
        <path class="cls-1" d="M8.92,4.55v-1.91c0-.08-.03-.12-.1-.2h.42c.58,0,.78.18.78.45,0,.33-.32.43-.65.47.45.05.86.15.86.67,0,.44-.23.72-.99.72h-.42c.08-.08.1-.12.1-.2ZM9.18,3.34c.27,0,.66-.1.66-.45,0-.24-.16-.4-.67-.4h-.07v.85h.08ZM9.17,4.71c.69,0,.88-.31.88-.67,0-.49-.49-.65-.87-.65h-.08v1.32h.07Z"/>
        <path class="cls-1" d="M11.49,3.18l.04.52h-.04c-.07-.38-.18-.67-.32-.67-.16,0-.29.42-.36.73v.79c0,.08.03.12.1.2h-.38c.08-.08.1-.12.1-.2v-1.25c0-.11-.03-.14-.07-.14-.03,0-.07.03-.1.05v-.03c.08-.08.2-.19.27-.19.06,0,.07.05.07.2v.42c.07-.31.19-.63.38-.63.12,0,.25.13.29.2Z"/>
        <path class="cls-1" d="M12.67,2.98c.54,0,.92.34.92.9s-.38.9-.92.9-.92-.34-.92-.9.38-.9.92-.9ZM12.67,4.74c.43,0,.74-.33.74-.86s-.3-.86-.74-.86-.74.33-.74.86.3.86.74.86Z"/>
        <path class="cls-1" d="M14.67,3l.35,1.43.29-1.24c.02-.08,0-.12-.05-.2h.25c-.09.08-.13.12-.16.2l-.38,1.57h-.04l-.36-1.39-.33,1.39h-.04l-.41-1.57c-.02-.08-.08-.12-.15-.2h.39c-.08.08-.08.12-.06.2l.3,1.24.34-1.43h.04Z"/>
        <path class="cls-1" d="M15.89,4.55v-1.25c0-.11-.03-.14-.07-.14-.03,0-.07.03-.1.05v-.03c.08-.08.2-.19.27-.19.06,0,.07.05.07.2v.36c.08-.24.22-.57.5-.57.18,0,.34.14.34.48v1.09c0,.08.03.12.1.2h-.38c.08-.08.1-.12.1-.2v-.93c0-.28-.02-.6-.22-.6-.21,0-.37.35-.45.59v.93c0,.08.03.12.1.2h-.38c.08-.08.1-.12.1-.2Z"/>
      </g>
      <g>
        <path class="cls-2" d="M.88.48h-.12c-.3,0-.54,0-.6.02-.01,0-.02,0-.02,0-.01,0-.02,0-.02-.02,0-.04-.01-.08-.02-.18.09.01.2.01.41.01.38,0,.42,0,.57,0,0,.14,0,.23,0,.47,0,.11,0,.36,0,.43h0s0,.04-.01.04-.07,0-.12,0q-.05,0-.05-.04s0,0,0-.06h-.08c-.4,0-.58,0-.67.02,0,0,0,0-.01,0-.02,0-.02,0-.03-.04,0-.03,0-.08-.01-.16.1,0,.2.01.44.01.15,0,.17,0,.38,0V.48Z"/>
        <path class="cls-2" d="M1.96.65c.27,0,.43,0,.58-.01h.02s.04,0,.04.12c0,.06,0,.07-.03.07h0c-.1,0-.15,0-.59,0-.16,0-.24,0-.38,0h-.04s-.06,0-.08,0c0,0-.01,0-.02,0-.02,0-.03,0-.03-.02,0-.04-.01-.11-.01-.18.12.01.23.02.54.02Z"/>
        <path class="cls-2" d="M2.96.7s0,0-.01,0c-.03,0-.05-.05-.06-.21.07.01.18.02.46.02.3,0,.38,0,.41,0,.02,0,.03,0,.06-.01.01,0,.02,0,.03,0,.02,0,.04.01.06.04.04.05.07.09.07.11,0,.02,0,.03-.03.05-.01.01-.02.02-.05.09-.1.22-.21.36-.39.47-.08.05-.21.11-.24.11-.02,0-.03,0-.06-.04-.04-.05-.06-.06-.1-.08.17-.05.33-.14.44-.24.08-.08.15-.19.19-.32-.57,0-.67.01-.78.03ZM3.46.17q.16,0,.33-.01h.02s.03.02.03.06c0,.02,0,.03,0,.05h0c0,.06,0,.07-.03.07,0,0-.02,0-.03,0-.03,0-.14,0-.19,0-.22,0-.39,0-.47.01h-.01s-.04-.02-.05-.19c.1.01.19.02.41.02Z"/>
        <path class="cls-2" d="M4.56.26s.02.01.02.03c0,0,0,0,0,.02,0,.03-.01.06-.01.12,0,.37-.07.6-.23.8-.04.04-.05.06-.06.06,0,0-.01,0-.03,0-.04-.03-.08-.04-.15-.05.1-.1.14-.16.19-.26.06-.14.09-.28.09-.5,0-.1,0-.14-.01-.22.08,0,.15.01.19.02ZM4.72.41c0-.07,0-.13-.01-.2.16,0,.22.02.22.05,0,0,0,.01,0,.03,0,0,0,.03,0,.06t0,.7c.19-.11.32-.21.44-.37,0,.08,0,.14.02.18,0,.01,0,.02,0,.03,0,.02-.01.04-.08.11-.11.1-.19.15-.33.23-.03.02-.05.03-.07.05-.01,0-.02.01-.04.01-.02,0-.07-.04-.11-.07-.03-.03-.04-.05-.04-.07,0,0,0-.01,0-.03.01-.03.01-.06.01-.14V.41Z"/>
        <path class="cls-2" d="M6.02.44c-.27,0-.46.01-.51.02,0,0,0,0,0,0-.03,0-.04-.05-.04-.2.07.01.17.02.39.02.2,0,.44,0,.47,0,.03,0,.04,0,.06-.02,0,0,.01,0,.02,0,.03,0,.06.02.11.08.03.04.03.04.03.06,0,.01,0,.02-.01.03-.01.02-.02.02-.05.13-.08.26-.25.5-.48.68-.09.07-.17.12-.2.12-.02,0-.02,0-.05-.04-.04-.04-.07-.06-.11-.09.22-.11.34-.2.46-.35.1-.13.17-.27.2-.44q-.12,0-.29,0ZM6.67.28s-.05.04-.06.04t-.04-.04s-.06-.09-.09-.12c0,0,0,0,0-.01,0-.01.06-.05.07-.05.01,0,.03.02.08.07.04.05.07.09.07.1s0,.02-.02.03ZM6.74.21c-.04-.06-.07-.1-.11-.14,0,0,0,0,0-.01,0,0,0-.02.03-.03.02-.02.03-.02.04-.02.02,0,.06.04.11.1.02.03.03.05.03.06,0,0,0,.02-.02.03-.02.02-.05.03-.05.03,0,0-.01,0-.02-.02Z"/>
        <path class="cls-2" d="M6.99.7s0,0-.01,0c-.03,0-.05-.05-.06-.21.07.01.18.02.46.02.3,0,.38,0,.41,0,.02,0,.03,0,.06-.01.01,0,.02,0,.03,0,.02,0,.04.01.06.04.04.05.07.09.07.11,0,.02,0,.03-.03.05-.01.01-.02.02-.05.09-.1.22-.21.36-.39.47-.08.05-.21.11-.24.11-.02,0-.03,0-.06-.04-.04-.05-.06-.06-.1-.08.17-.05.33-.14.44-.24.08-.08.15-.19.19-.32-.57,0-.67.01-.78.03ZM7.48.17q.16,0,.33-.01h.02s.03.02.03.06c0,.02,0,.03,0,.05h0c0,.06,0,.07-.03.07,0,0-.02,0-.03,0-.03,0-.14,0-.19,0-.22,0-.39,0-.47.01h-.01s-.04-.02-.05-.19c.1.01.19.02.41.02Z"/>
        <path class="cls-2" d="M8.76.3c0-.08,0-.13-.01-.19.11,0,.17,0,.2.02.01,0,.02.01.02.02,0,0,0,.02,0,.03-.01.02-.02.05-.02.12v.05h.19s.08,0,.11-.02c.02,0,.03,0,.04,0,.03,0,.07.03.12.09.03.03.03.04.03.06,0,.01,0,.02-.01.04-.01.03-.02.04-.04.12-.03.14-.06.21-.12.31-.1.17-.24.3-.42.39-.04.02-.07.03-.08.03-.01,0-.02,0-.03-.02-.03-.03-.06-.06-.12-.1.12-.05.18-.08.25-.13.15-.1.24-.23.3-.4.03-.08.04-.13.04-.2-.14,0-.19,0-.31,0-.13,0-.21,0-.4,0q0,.09,0,.11s0,.07,0,.13h0s0,.03-.02.03c-.01,0-.06,0-.1,0-.06,0-.07,0-.07-.03,0,0,0-.02,0-.04,0-.02,0-.18,0-.21,0-.05,0-.09,0-.16.04,0,.13,0,.22,0h.21v-.04Z"/>
        <path class="cls-2" d="M10.82.53s.01.03.01.03c0,.02,0,.03-.03.05-.08.11-.17.19-.3.3-.15.12-.28.19-.46.28-.12.05-.12.06-.14.07-.01.01-.02.02-.03.02-.01,0-.03-.01-.05-.04-.03-.05-.06-.11-.07-.16.15-.03.33-.12.51-.23.23-.15.38-.29.49-.49.02.06.03.09.07.16ZM9.82.28s.04-.04.05-.04c.03,0,.14.07.23.15.06.05.08.07.08.08,0,.01-.03.05-.06.09-.03.04-.05.05-.06.05t-.07-.06s-.12-.1-.16-.12q-.05-.03-.06-.04s0,0,0-.01c0-.01.03-.06.07-.1Z"/>
      </g>
    </g>
  </g>
</svg>