<?xml version="1.0" encoding="UTF-8"?>
<svg id="_レイヤー_2" data-name="レイヤー 2" xmlns="http://www.w3.org/2000/svg" viewBox="0 0 15.59 4.71">
  <defs>
    <style>
      .cls-1 {
        stroke: #8c6464;
        stroke-linecap: round;
        stroke-linejoin: round;
        stroke-width: .05px;
      }

      .cls-1, .cls-2 {
        fill: #8c6464;
      }

      .cls-2 {
        stroke-width: 0px;
      }
    </style>
  </defs>
  <g id="lay">
    <g>
      <g>
        <path class="cls-1" d="M1.26,2.6l.04.51h-.03c-.1-.31-.24-.73-.57-.73-.22,0-.38.2-.38.42,0,.62,1.03.69,1.03,1.36,0,.35-.23.52-.61.52-.45,0-.55-.21-.61-.26l-.09-.54h.04c.14.31.34.75.7.75.24,0,.39-.2.39-.44,0-.6-1.03-.67-1.03-1.36,0-.33.23-.51.56-.51.38,0,.5.21.56.26Z"/>
        <path class="cls-1" d="M2.55,4.66v-.38c-.07.18-.2.4-.47.4-.32,0-.43-.28-.43-.56,0-.2.06-.64.47-.64.25,0,.36.14.43.27v-.25c0-.18,0-.57-.25-.57-.19,0-.37.23-.51.48h-.04l.1-.39c.07-.04.19-.14.41-.14.31,0,.46.2.46.54v1.03c0,.08.03.12.1.2h-.28ZM2.55,3.82c-.07-.14-.19-.3-.35-.3-.27,0-.37.43-.37.65s.12.49.31.49.35-.28.41-.46v-.37Z"/>
        <path class="cls-1" d="M3.94,3.11l-.28.44.49.91c.04.07.1.12.17.2h-.41c.08-.08.07-.13.03-.2l-.41-.74-.22.35v.39c0,.08.03.12.1.2h-.38c.08-.08.1-.12.1-.2v-1.91c0-.11-.03-.14-.07-.14-.03,0-.07.03-.1.05v-.03c.08-.08.2-.19.27-.19.06,0,.07.05.07.2v1.56l.56-.88c.04-.06.04-.12,0-.2h.26c-.11.08-.17.14-.21.2Z"/>
        <path class="cls-1" d="M5.49,3.11v1.35c0,.08.03.12.1.2h-.28v-.54c-.08.24-.22.57-.5.57-.18,0-.34-.14-.34-.48v-1.09c0-.08-.03-.12-.1-.2h.38c-.08.08-.1.12-.1.2v.93c0,.28.02.6.22.6.21,0,.37-.35.45-.59v-.93c0-.08-.03-.12-.1-.2h.38c-.08.08-.1.12-.1.2Z"/>
        <path class="cls-1" d="M6.84,3.09l.04.52h-.04c-.07-.38-.18-.67-.32-.67-.16,0-.29.42-.36.73v.79c0,.08.03.12.1.2h-.38c.08-.08.1-.12.1-.2v-1.25c0-.11-.03-.14-.07-.14-.03,0-.07.03-.1.05v-.03c.08-.08.2-.19.27-.19.05,0,.07.05.07.2v.42c.07-.31.19-.63.38-.63.12,0,.25.13.29.2Z"/>
        <path class="cls-1" d="M7.94,4.66v-.38c-.07.18-.2.4-.47.4-.32,0-.43-.28-.43-.56,0-.2.06-.64.47-.64.25,0,.36.14.43.27v-.25c0-.18,0-.57-.25-.57-.19,0-.37.23-.51.48h-.04l.1-.39c.07-.04.19-.14.41-.14.31,0,.46.2.46.54v1.03c0,.08.03.12.1.2h-.28ZM7.94,3.82c-.07-.14-.19-.3-.35-.3-.27,0-.37.43-.37.65s.12.49.31.49.35-.28.41-.46v-.37Z"/>
        <path class="cls-1" d="M9.61,4.47v-1.91c0-.08-.03-.12-.1-.2h.4c.39,0,.78.11.78.57s-.38.57-.78.57h-.11v.87c0,.15.1.22.17.3h-.46c.08-.08.1-.12.1-.2ZM9.9,3.45c.33,0,.6-.1.6-.52s-.27-.53-.6-.53h-.11v1.05h.11Z"/>
        <path class="cls-1" d="M11.98,3.51c.31.07.54.24.54.55,0,.35-.3.63-.78.63-.54,0-.97-.34-.97-.9s.42-.9.92-.9c.4,0,.69.23.81.62h-.53ZM11,3.51c-.02.09-.04.18-.04.28,0,.53.35.85.82.85.38,0,.71-.22.71-.58,0-.33-.29-.5-.64-.55h-.86ZM12.32,3.47c-.1-.34-.33-.54-.62-.54-.31,0-.59.2-.69.54h1.32Z"/>
        <path class="cls-1" d="M13.06,2.49h.04v.42h.24v.04h-.24v.96c.56.08.66.77.17.77-.08,0-.35-.02-.35-.4v-1.33h-.17v-.04c.18,0,.31-.29.31-.42ZM13.1,4.22c0,.37.11.42.21.42.36,0,.32-.62-.21-.71v.28Z"/>
        <path class="cls-1" d="M14.7,4.66v-.38c-.07.18-.2.4-.47.4-.32,0-.43-.28-.43-.56,0-.2.06-.64.47-.64.25,0,.36.14.43.27v-.25c0-.18,0-.57-.25-.57-.19,0-.37.23-.51.48h-.04l.1-.39c.07-.04.19-.14.41-.14.31,0,.46.2.46.54v1.03c0,.08.03.12.1.2h-.28ZM14.7,3.82c-.07-.14-.19-.3-.35-.3-.27,0-.37.43-.37.65s.12.49.31.49.35-.28.41-.46v-.37Z"/>
        <path class="cls-1" d="M15.29,4.47v-1.91c0-.11-.03-.14-.07-.14-.03,0-.07.03-.1.05v-.03c.08-.08.2-.19.27-.19.06,0,.07.05.07.2v2.03c0,.08.03.12.1.2h-.38c.08-.08.1-.12.1-.2Z"/>
      </g>
      <g>
        <path class="cls-2" d="M.3.37c0-.17,0-.25-.02-.3.07,0,.12,0,.16.01.05,0,.05.01.05.03,0,0,0,.01,0,.02-.01.03-.01.05-.02.24.04,0,.15,0,.33,0,0-.17,0-.24-.02-.31.08,0,.13,0,.17.02.03,0,.04.01.04.03,0,0,0,.01-.01.04,0,.01,0,.06-.01.1v.12c.15,0,.21,0,.25,0,0,0,0,0,.01,0,0,0,.01,0,.02,0,0,0,0,.04,0,.09,0,.07,0,.08-.02.08t-.04,0s-.05,0-.23,0c0,.23-.04.35-.11.47-.06.1-.15.18-.26.24-.04.02-.09.04-.11.04-.01,0-.01,0-.05-.03-.03-.04-.05-.05-.1-.08.22-.08.33-.17.4-.31.04-.09.06-.18.07-.33h-.1s-.06,0-.12,0c-.03,0-.07,0-.12,0q0,.11,0,.24v.02s0,.03-.02.04c-.02,0-.06,0-.1,0-.05,0-.06,0-.06-.03v-.02c0-.14,0-.16,0-.25-.08,0-.21,0-.25.01,0,0,0,0,0,0-.01,0-.02,0-.02-.02,0-.03-.01-.1-.02-.17.08,0,.12.01.24.01h.06Z"/>
        <path class="cls-2" d="M2,.39c-.1.14-.28.3-.32.3-.01,0-.02,0-.05-.03-.02-.02-.06-.05-.11-.07.11-.06.22-.15.3-.25.09-.1.14-.19.19-.32.07.02.11.04.16.07.02.01.03.02.03.03,0,.01,0,.02-.02.03-.01.01-.03.03-.07.08h.22c.08,0,.1,0,.14-.02,0,0,.01,0,.02,0,.02,0,.05.02.09.08.03.04.04.05.04.07s0,.02-.03.04c-.01.01-.03.04-.05.07-.16.29-.32.48-.56.66-.1.08-.24.16-.27.16-.01,0-.02,0-.04-.02-.03-.03-.07-.06-.12-.09.22-.1.37-.21.52-.36.11-.11.18-.21.25-.33.01-.03.02-.04.05-.09h-.38Z"/>
        <path class="cls-2" d="M2.97.61s0,0-.01,0c-.03,0-.05-.05-.06-.21.07.01.18.02.46.02.3,0,.38,0,.41,0,.02,0,.03,0,.06-.01.01,0,.02,0,.03,0,.02,0,.04.01.06.04.04.05.07.09.07.11,0,.02,0,.03-.03.05-.01.01-.02.02-.05.09-.1.22-.21.36-.39.47-.08.05-.21.11-.24.11-.02,0-.03,0-.06-.04-.04-.05-.06-.06-.1-.08.17-.05.33-.14.44-.24.08-.08.15-.19.19-.32-.57,0-.67.01-.78.03ZM3.46.08q.16,0,.33-.01h.02s.03.02.03.06c0,.02,0,.03,0,.05h0c0,.06,0,.07-.03.07,0,0-.02,0-.03,0-.03,0-.14,0-.19,0-.22,0-.39,0-.47.01h-.01s-.04-.02-.05-.19c.1.01.19.02.41.02Z"/>
        <path class="cls-2" d="M4.45.46c.07-.09.09-.1.12-.12.03-.02.06-.03.09-.03.04,0,.07,0,.1.03t.12.11c.1.1.23.22.34.31.07.06.12.09.22.15.02,0,.02.01.02.03s-.01.04-.04.09c-.04.06-.05.08-.07.08,0,0-.02,0-.02,0-.19-.13-.37-.29-.57-.51-.08-.08-.08-.08-.11-.08-.02,0-.03,0-.04.02-.01.02-.11.14-.16.2-.04.05-.04.05-.07.09-.02.02-.03.03-.04.04-.01.02-.02.02-.03.02-.02,0-.05-.02-.08-.06-.02-.03-.04-.04-.07-.1.07-.04.13-.1.28-.28ZM5.33.31c0,.09-.07.16-.16.16-.09,0-.16-.07-.16-.16s.07-.16.16-.16.16.07.16.16ZM5.09.31s.04.08.08.08c.04,0,.08-.04.08-.08s-.04-.08-.08-.08-.08.04-.08.08Z"/>
        <path class="cls-2" d="M5.83.63s-.07.05-.08.05c-.01,0-.01,0-.04-.03-.03-.03-.07-.05-.11-.08.16-.1.26-.18.35-.31.06-.09.11-.18.13-.26.16.06.2.08.2.1,0,0,0,.01-.02.02-.01.01-.03.04-.07.1h.03c.05,0,.09,0,.1,0,.15,0,.18,0,.23-.02.01,0,.02,0,.03,0,.02,0,.04.02.09.07.04.04.05.06.05.08,0,.01,0,.02-.02.04-.01.01-.03.04-.05.08-.14.26-.25.4-.42.55-.13.12-.35.26-.39.26-.01,0-.03,0-.04-.02-.04-.04-.08-.07-.13-.09.21-.1.37-.21.51-.36t-.04-.05s-.07-.06-.14-.12c0,0-.01-.01-.01-.02,0,0,.02-.03.07-.08.03-.03.03-.03.04-.03.02,0,.11.07.2.16.09-.12.16-.23.19-.32q-.17,0-.39,0c-.07.09-.16.18-.26.26Z"/>
        <path class="cls-2" d="M7.25.17s.02.01.02.03c0,0,0,0,0,.02,0,.03-.01.06-.01.12,0,.37-.07.6-.23.8-.04.04-.05.06-.06.06,0,0-.01,0-.03,0-.04-.03-.08-.04-.15-.05.1-.1.14-.16.19-.26.06-.14.09-.28.09-.5,0-.1,0-.14-.01-.22.08,0,.15.01.19.02ZM7.42.32c0-.07,0-.13-.01-.2.16,0,.22.02.22.05,0,0,0,.01,0,.03,0,0,0,.03,0,.06t0,.7c.19-.11.32-.21.44-.37,0,.08,0,.14.02.18,0,.01,0,.02,0,.03,0,.02-.01.04-.08.11-.11.1-.19.15-.33.23-.03.02-.05.03-.07.05-.01,0-.02.01-.04.01-.02,0-.07-.04-.11-.07-.03-.03-.04-.05-.04-.07,0,0,0-.01,0-.03.01-.03.01-.06.01-.14V.32Z"/>
      </g>
    </g>
  </g>
</svg>