<?xml version="1.0" encoding="UTF-8"?>
<svg id="_レイヤー_2" data-name="レイヤー 2" xmlns="http://www.w3.org/2000/svg" viewBox="0 0 16.97 5.39">
  <defs>
    <style>
      .cls-1 {
        stroke: #8c6464;
        stroke-linecap: round;
        stroke-linejoin: round;
        stroke-width: .05px;
      }

      .cls-1, .cls-2 {
        fill: #8c6464;
      }

      .cls-2 {
        stroke-width: 0px;
      }
    </style>
  </defs>
  <g id="lay">
    <g>
      <g>
        <path class="cls-1" d="M.13,4.55v-1.91c0-.08-.03-.12-.1-.2h.42c.58,0,.78.18.78.45,0,.33-.32.43-.65.47.45.05.86.15.86.67,0,.44-.23.72-.99.72H.03c.08-.08.1-.12.1-.2ZM.39,3.34c.27,0,.66-.1.66-.45,0-.24-.16-.4-.67-.4h-.07v.85h.08ZM.38,4.71c.69,0,.88-.31.88-.67,0-.49-.49-.65-.87-.65h-.08v1.32h.07Z"/>
        <path class="cls-1" d="M2.71,3.18l.04.52h-.04c-.07-.38-.18-.67-.32-.67-.16,0-.29.42-.36.73v.79c0,.08.03.12.1.2h-.38c.08-.08.1-.12.1-.2v-1.25c0-.11-.03-.14-.07-.14-.03,0-.07.03-.1.05v-.03c.08-.08.2-.19.27-.19.06,0,.07.05.07.2v.42c.07-.31.19-.63.38-.63.12,0,.25.13.29.2Z"/>
        <path class="cls-1" d="M3.88,2.98c.54,0,.92.34.92.9s-.38.9-.92.9-.92-.34-.92-.9.38-.9.92-.9ZM3.88,4.73c.43,0,.74-.33.74-.86s-.3-.86-.74-.86-.74.33-.74.86.3.86.74.86Z"/>
        <path class="cls-1" d="M5.88,3l.35,1.43.29-1.24c.02-.08,0-.12-.05-.2h.25c-.09.08-.13.12-.16.2l-.38,1.57h-.04l-.36-1.39-.33,1.39h-.04l-.41-1.57c-.02-.08-.08-.12-.15-.2h.39c-.08.08-.08.12-.06.2l.3,1.24.34-1.43h.04Z"/>
        <path class="cls-1" d="M7.1,4.55v-1.25c0-.11-.03-.14-.07-.14-.03,0-.07.03-.1.05v-.03c.08-.08.2-.19.27-.19.06,0,.07.05.07.2v.36c.08-.24.22-.57.5-.57.18,0,.34.14.34.48v1.09c0,.08.03.12.1.2h-.38c.08-.08.1-.12.1-.2v-.93c0-.28-.02-.6-.22-.6-.21,0-.37.35-.45.59v.93c0,.08.03.12.1.2h-.38c.08-.08.1-.12.1-.2Z"/>
        <path class="cls-1" d="M9.64,4.55v-1.91c0-.08-.03-.12-.1-.2h.42c.58,0,.78.18.78.45,0,.33-.32.43-.65.47.45.05.86.15.86.67,0,.44-.23.72-.99.72h-.42c.08-.08.1-.12.1-.2ZM9.9,3.34c.27,0,.66-.1.66-.45,0-.24-.16-.4-.67-.4h-.07v.85h.08ZM9.88,4.71c.69,0,.88-.31.88-.67,0-.49-.49-.65-.87-.65h-.08v1.32h.07Z"/>
        <path class="cls-1" d="M12.34,3.2v1.35c0,.08.03.12.1.2h-.28v-.54c-.08.24-.22.57-.5.57-.18,0-.34-.14-.34-.48v-1.09c0-.08-.03-.12-.1-.2h.38c-.08.08-.1.12-.1.2v.93c0,.28.02.6.22.6.21,0,.37-.35.45-.59v-.93c0-.08-.03-.12-.1-.2h.38c-.08.08-.1.12-.1.2Z"/>
        <path class="cls-1" d="M12.84,4.55v-1.25c0-.11-.03-.14-.07-.14-.03,0-.07.03-.1.05v-.03c.08-.08.2-.19.27-.19.05,0,.07.05.07.2v.36c.08-.24.22-.57.5-.57.18,0,.34.14.34.48v1.09c0,.08.03.12.1.2h-.38c.08-.08.1-.12.1-.2v-.93c0-.28-.02-.6-.22-.6-.21,0-.37.35-.45.59v.93c0,.08.03.12.1.2h-.38c.08-.08.1-.12.1-.2Z"/>
        <path class="cls-1" d="M14.35,4.55v-1.25c0-.11-.03-.14-.07-.14-.03,0-.07.03-.1.05v-.03c.08-.08.2-.19.27-.19.06,0,.07.05.07.2v.36c.08-.24.22-.57.5-.57.18,0,.34.14.34.48v1.09c0,.08.03.12.1.2h-.38c.08-.08.1-.12.1-.2v-.93c0-.28-.02-.6-.22-.6-.21,0-.37.35-.45.59v.93c0,.08.03.12.1.2h-.38c.08-.08.1-.12.1-.2Z"/>
        <path class="cls-1" d="M16.79,3.2l-.56,1.67c-.07.22-.14.5-.38.5-.15,0-.26-.11-.26-.29,0-.31.34-.36.62-.36l-.54-1.52c-.03-.08-.08-.12-.15-.2h.39c-.08.08-.08.12-.06.2l.46,1.27.42-1.27c.03-.08.02-.12-.04-.2h.25c-.09.08-.13.12-.16.2ZM15.63,5.07c0,.17.1.25.21.25.2,0,.27-.26.34-.46l.04-.12c-.27,0-.59.03-.59.32Z"/>
      </g>
      <g>
        <path class="cls-2" d="M.55.44c-.27,0-.46.01-.51.02,0,0,0,0,0,0-.03,0-.04-.05-.04-.2.07.01.17.02.39.02.2,0,.44,0,.47,0,.03,0,.04,0,.06-.02,0,0,.01,0,.02,0,.03,0,.06.02.11.08.03.04.03.04.03.06,0,.01,0,.02-.01.03-.01.02-.02.02-.05.13-.08.26-.25.5-.48.68-.09.07-.17.12-.2.12-.02,0-.02,0-.05-.04-.04-.04-.07-.06-.11-.09.22-.11.34-.2.46-.35.1-.13.17-.27.2-.44q-.12,0-.29,0ZM1.2.28s-.05.04-.06.04t-.04-.04s-.06-.09-.09-.12c0,0,0,0,0-.01,0-.01.06-.05.07-.05.01,0,.03.02.08.07.04.05.07.09.07.1s0,.02-.02.03ZM1.27.21c-.04-.06-.07-.1-.11-.14,0,0,0,0,0-.01,0,0,0-.02.03-.03.02-.02.03-.02.04-.02.02,0,.06.04.11.1.02.03.03.05.03.06,0,0,0,.02-.02.03-.02.02-.05.03-.05.03,0,0-.01,0-.02-.02Z"/>
        <path class="cls-2" d="M1.52.7s0,0-.01,0c-.03,0-.05-.05-.06-.21.07.01.18.02.46.02.3,0,.38,0,.41,0,.02,0,.03,0,.06-.01.01,0,.02,0,.03,0,.02,0,.04.01.06.04.04.05.07.09.07.11,0,.02,0,.03-.03.05-.01.01-.02.02-.05.09-.1.22-.21.36-.39.47-.08.05-.21.11-.24.11-.02,0-.03,0-.06-.04-.04-.05-.06-.06-.1-.08.17-.05.33-.14.44-.24.08-.08.15-.19.19-.32-.57,0-.67.01-.78.03ZM2.01.17q.16,0,.33-.01h.02s.03.02.03.06c0,.02,0,.03,0,.05h0c0,.06,0,.07-.03.07,0,0-.02,0-.03,0-.03,0-.14,0-.19,0-.22,0-.39,0-.47.01h-.01s-.04-.02-.05-.19c.1.01.19.02.41.02Z"/>
        <path class="cls-2" d="M3.29.3c0-.08,0-.13-.01-.19.11,0,.17,0,.2.02.01,0,.02.01.02.02,0,0,0,.02,0,.03-.01.02-.02.05-.02.12v.05h.19s.08,0,.11-.02c.02,0,.03,0,.04,0,.03,0,.07.03.12.09.03.03.03.04.03.06,0,.01,0,.02-.01.04-.01.03-.02.04-.04.12-.03.14-.06.21-.12.31-.1.17-.24.3-.42.39-.04.02-.07.03-.08.03-.01,0-.02,0-.03-.02-.03-.03-.06-.06-.12-.1.12-.05.18-.08.25-.13.15-.1.24-.23.3-.4.03-.08.04-.13.04-.2-.14,0-.19,0-.31,0-.13,0-.21,0-.4,0q0,.09,0,.11s0,.07,0,.13h0s0,.03-.02.03c-.01,0-.06,0-.1,0-.06,0-.07,0-.07-.03,0,0,0-.02,0-.04,0-.02,0-.18,0-.21,0-.05,0-.09,0-.16.04,0,.13,0,.22,0h.21v-.04Z"/>
        <path class="cls-2" d="M5.35.53s.01.03.01.03c0,.02,0,.03-.03.05-.08.11-.17.19-.3.3-.15.12-.28.19-.46.28-.12.05-.12.06-.14.07-.01.01-.02.02-.03.02-.01,0-.03-.01-.05-.04-.03-.05-.06-.11-.07-.16.15-.03.33-.12.51-.23.23-.15.38-.29.49-.49.02.06.03.09.07.16ZM4.35.28s.04-.04.05-.04c.03,0,.14.07.23.15.06.05.08.07.08.08,0,.01-.03.05-.06.09-.03.04-.05.05-.06.05t-.07-.06s-.12-.1-.16-.12q-.05-.03-.06-.04s0,0,0-.01c0-.01.03-.06.07-.1Z"/>
        <path class="cls-2" d="M5.98.43s0,.01-.01.03c-.02.03-.02.05-.04.14-.05.21-.13.39-.23.53-.04.06-.08.09-.09.09,0,0-.01,0-.02,0-.05-.03-.09-.04-.15-.06.14-.12.24-.31.3-.54.02-.08.03-.15.03-.22v-.03c.13.01.22.04.22.07ZM6.54,1.18c-.08-.27-.19-.53-.31-.71-.02-.03-.02-.03-.02-.04,0-.01.01-.02.06-.05.04-.03.07-.04.08-.04.02,0,.02,0,.08.09.07.1.13.24.21.43.05.13.08.23.08.25,0,.02,0,.02-.04.04-.04.02-.1.04-.11.04-.01,0-.02,0-.03-.02ZM6.53.43c-.03-.06-.06-.1-.11-.15,0,0,0-.01,0-.01,0,0,0-.02.04-.04.02-.02.03-.02.04-.02.01,0,.03.01.06.05.05.05.08.1.08.11,0,.02-.07.07-.09.07,0,0,0,0-.01-.01ZM6.74.32s-.03.02-.04.02c0,0,0,0-.01-.01-.04-.07-.06-.1-.11-.15,0,0,0,0,0-.01,0-.01.06-.06.08-.06.01,0,.03.02.06.05.04.05.08.1.08.11,0,.01-.01.02-.04.04Z"/>
        <path class="cls-2" d="M7.46.98c.27,0,.5,0,.61-.01.02,0,.03,0,.03,0,0,0,.01,0,.02,0,.01,0,.01.03.01.11,0,.08,0,.08-.03.08t-.03,0c-.08,0-.17,0-.36,0-.41,0-.61,0-.7.02-.01,0-.02,0-.03,0-.03,0-.04-.03-.05-.21.12,0,.27.01.53.01ZM7.51.33c.2,0,.32,0,.4-.02,0,0,.01,0,.02,0,.02,0,.02,0,.03.03,0,.01,0,.06,0,.11,0,.05,0,.06-.02.06,0,0-.01,0-.03,0-.03,0-.25,0-.42,0-.12,0-.19,0-.28,0-.02,0-.04,0-.05,0-.02,0-.03,0-.03-.02,0-.02-.02-.11-.02-.18.09.01.19.02.4.02Z"/>
        <path class="cls-2" d="M8.9.65c.27,0,.43,0,.58-.01h.02s.04,0,.04.12c0,.06,0,.07-.03.07h0c-.1,0-.15,0-.59,0-.16,0-.24,0-.38,0h-.04s-.06,0-.08,0c0,0-.01,0-.02,0-.02,0-.03,0-.03-.02,0-.04-.01-.11-.01-.18.12.01.23.02.54.02Z"/>
      </g>
    </g>
  </g>
</svg>